<svg xmlns="http://www.w3.org/2000/svg">
<defs>
<symbol id="vjs-icon-audio" viewBox="0 0 512 512">
<path d="M409.7 268q-1.7-34.5-14.3-64.8T362 150.4t-47.8-35.5T256 102t-58.3 13-47.8 35.4-33.3 52.8-14.3 64.7q-8.8 3-14.8 11.1t-6 17.9V379q0 13 9 22t21.7 9h31v-20.4h20.5v-103h-20.5v-20.4h-20q1.6-30 12.5-56.2 11.3-26.2 29.2-45.6t41.4-30.7q23.1-11.3 49.7-11.3t49.7 11.3q23.6 11.2 41.4 30.7t29.2 45.6q10.9 26.2 12.6 56.2h-20.1v20.5h-20.5v102.9h20.5V410h31q12.6 0 21.6-9t9-22v-82.1q0-9.9-6-17.9t-14.7-11zM122.4 389.5h-10.2q-4 0-7.1-3.1T102 379v-82.1q0-4.1 3-7.2t7.2-3h10.2v102.9zM410 379q0 4.4-3 7.5t-7.2 3h-10.2V286.8h10.2q4 0 7.1 3t3.1 7.2v82z"></path>
</symbol>
<symbol id="vjs-icon-big-play" viewBox="0 0 512 512">
<path d="M158 81v350l292-176zm25.5 48.5 210 126-210 126.5V129.5z"></path>
</symbol>
<symbol id="vjs-icon-big-replay" viewBox="0 0 512 512">
<path d="M512.3 205.5 501.8 195l-45.6 45.5q-3-44.5-22-83.5-19-38.5-49.7-67.3T313.7 44q-40-16.5-85.4-16.5-47.6 0-89 18t-72.6 49-49 72.5q-18 42-18 89 0 47.5 18 89t49 72.5 72.5 49 89 18q25 0 49-5.5 24-5 46.3-15.3t41.8-24.7q20-15 36-34l-11-9.5q-15.6 17.5-34 31.5t-39 23.5-43 14.5-46 5q-44 0-83-17t-68-46-46-68-17-83 17-83 46-68 68-46q39-16.5 83-16.5 42 0 79.4 15 37 15.5 65.8 42t46.8 62.5 21 77.5L401.6 200l-10.4 10.5 53 52.5h10.4l57.6-57.5z"></path>
</symbol>
<symbol id="vjs-icon-brightness" viewBox="0 0 512 512">
<path d="M249.8-13.2A17 17 0 0 0 241-2.5a667 667 0 0 0-.3 37.7c.3 33 .4 34.6 2.3 37.1 3.9 5.2 7 6.8 13.2 6.8s9.3-1.6 13.1-6.8c2-2.6 2.1-3.8 2.1-39.8s-.1-37.2-2-39.8c-1.1-1.5-3.2-3.7-4.6-4.6-3.2-2.5-11-3.2-15-1.3zm-165 68.4a17 17 0 0 0-10.2 11c-2.2 8.1-1.3 9.4 26.4 37.1 20.9 21 25.9 25.4 29.1 26.2 11.2 3 22-7.8 19-19-.8-3.2-5.3-8.2-25.2-28.3-27.8-28.1-30-29.7-39.1-27zm331.8.8c-2.4 1.1-13 11-28.1 26.2-20.2 20.4-24.4 25-25.3 28.3-3 11.2 7.9 22 19 19 3.3-.8 8.3-5.3 28.4-25.2 26.1-26 28.9-29.5 27.6-36.4-1.9-10.4-12.6-16.4-21.6-12zm-174.1 55.6c-20.5 2.6-40 9.9-57 21.3a164.9 164.9 0 0 0-33 33c-9.3 14-16 29.7-19.5 46.2a158.3 158.3 0 0 0 0 49 122.7 122.7 0 0 0 34.8 63.9 122.7 122.7 0 0 0 63.9 34.8c11.6 2.6 37.3 2.6 49 0a123 123 0 0 0 63.9-34.8 123 123 0 0 0 34.8-63.9c2.6-11.7 2.6-37.4 0-49a122.7 122.7 0 0 0-34.8-64 120.6 120.6 0 0 0-62-34.3c-8-1.8-32.4-3.2-40.1-2.2zm36.4 33.6a90.6 90.6 0 0 1 44.5 26c28.3 29 35 71.2 17 107-5.5 11-8.9 15.7-17.9 24.7s-13.6 12.4-24.7 17.9a89.5 89.5 0 0 1-47 9.7 89.1 89.1 0 0 1-60.3-27.2 92.5 92.5 0 0 1-26.2-45.7c-2.4-9.3-2.4-32.7 0-42a94.2 94.2 0 0 1 25.2-44.8 91 91 0 0 1 50.3-27c9.8-1.9 29.3-1.2 39 1.4zm-264.6 77A16.1 16.1 0 0 0 5.4 240c.9 4.6 5.8 10 10.2 11.3 2.4.7 15.7 1 38.7.8 33.5-.3 35-.4 37.6-2.4 5.2-3.8 6.8-7 6.8-13.1s-1.6-9.3-6.8-13.2c-2.5-2-4-2-38.6-2.2-28.5-.2-36.6 0-39 1zm408.2 0a16.1 16.1 0 0 0-9 17.8c1 4.6 5.9 10 10.3 11.3 2.3.7 15.7 1 38.6.8 33.6-.3 35.2-.4 37.7-2.4 5.2-3.8 6.8-7 6.8-13.1s-1.6-9.3-6.8-13.2c-2.5-2-4-2-38.6-2.2-28.5-.2-36.6 0-39 1zM129.1 344c-3 1.1-9.9 7.5-28.5 26.2-20.2 20.3-25 25.5-26 28.8A15.6 15.6 0 0 0 93.9 418c3.2-1 8.4-5.7 29.2-26.3 20.9-20.9 25.3-25.9 26.2-29.1 3-11.8-8.6-22.8-20-18.7zm244.3 0a15.8 15.8 0 0 0-10.2 18.7c1 3.2 5.4 8.2 25.3 28.3 26.3 26.4 29.4 28.8 36.6 27.6a18 18 0 0 0 12.7-11.6c2.2-8 1-9.6-25.4-36.3a494.7 494.7 0 0 0-26.7-25.7 14.6 14.6 0 0 0-12.3-1zm-123.6 51a17 17 0 0 0-8.8 10.6c-.3 1.8-.5 18.7-.3 37.7.3 33 .4 34.7 2.3 37.2 3.9 5.2 7 6.8 13.2 6.8s9.3-1.6 13.1-6.8c2-2.6 2.1-3.8 2.1-39.8s-.1-37.2-2-39.9c-1.1-1.4-3.2-3.6-4.6-4.6-3.2-2.4-11-3.1-15-1.2z"></path>
</symbol>
<symbol id="vjs-icon-cancel" viewBox="0 0 404 512">
<path d="M372 359.5q0 11.5-8 19.5l-39 39q-8 8-19.5 8-11 0-19.5-8l-84-84-84.5 84q-8 8-19 8-11.5 0-19.5-8l-39-39q-8-8-8-19.5 0-11 8-19.5l84-84-84-84q-8-8.5-8-19.5 0-11.5 8-19.5l39-39q8-8 19.5-8 11 0 19 8l84.5 84 84-84q8.5-8 19.5-8 11.5 0 19.5 8l39 39q8 8 8 19.5 0 11-8 19.5l-84 84 84 84q8 8.5 8 19.5z"></path>
</symbol>
<symbol id="vjs-icon-captions" viewBox="0 0 512 512">
<path d="M438.1 125.7H74v260.6H438V125.7zm26.2-25.7v312H47.7V100h416.6zM221 285l22 14.6q-5.4 7.8-12.4 14t-15.8 10.9q-8.7 5-17.8 7.2T178 334q-16.2 0-29.9-5.8t-25.3-17q-11.6-11.6-17.2-25.3T100 256t5.6-29.9 17.2-25.3q11.6-11.2 25.3-17T178 178q10 0 19 2.3t18 7.2q8.6 4.6 15.7 10.8t12.4 14.1l-22 14.6q-7.4-11.7-18.4-17.3t-24.7-5.6q-10.8 0-20.1 3.8T141 219t-11.4 16.8-4 20.1 4 20.1T141 293t16.8 11.2T178 308q13.7 0 24.7-5.6T221 285zm156.5 0 21.5 14.6q-5.4 7.8-12.4 14t-15.8 10.9q-8.3 5-17.6 7.2T334 334q-16.2 0-29.9-5.8t-25.3-17q-11.2-11.6-17-25.3T256 256t5.8-29.9 17-25.3q11.6-11.2 25.3-17T334 178q10 0 19.3 2.3t17.6 7.2q8.7 4.6 15.8 10.8t12.4 14.1L377.6 227q-8-11.7-18.7-17.3t-24.9-5.6q-10.8 0-20 3.8T297 219q-7.4 7.4-11.1 16.8T282 256t3.8 20.1T297 293q7.9 7.5 17 11.2T334 308q14.1 0 24.9-5.6t18.7-17.3z"></path>
</symbol>
<symbol id="vjs-icon-center" viewBox="0 0 512 512">
<path d="M448.5 222.5h-38q-4-25-15.5-47-11-22-28.3-39.3T327.6 108q-22-11.5-47-15.5v-38H232v38q-25 4-47 15.5-22 11-39.3 28.3t-28.2 39.2q-11.5 22-15.5 47H64V271h38q4 25 15.5 47 11 22 28.3 39.3t39.2 28.2q22 11.5 47 15.5v38h48.5v-38q25-4 47-15.5 22-11 39.3-28.3T395 318q11.5-22 15.5-47h38v-48.5zm-87 0H324q-5-15-16.8-26.8T280.6 179v-37.5q30 6.5 52.3 28.8t28.7 52.2zm-105 48.5q-10 0-17.3-7.3t-7.2-17.2q0-9.5 7.3-16.8t16.7-7.2q10 0 17.3 7.3t7.2 16.7q0 10-7.3 17.3t-16.7 7.2zM232 141.5V179q-15 5-26.8 16.8t-16.7 26.7H151q6.5-30 28.8-52.3t52.2-28.7zM151 271h37.5q5 15 16.8 26.8t26.7 16.7V352q-30-6.5-52.3-28.8T151 271zm129.5 81v-37.5q15-5 26.8-16.8T324 271h37.5q-6.5 30-28.8 52.3T280.6 352z"></path>
</symbol>
<symbol id="vjs-icon-chapters" viewBox="0 0 512 512">
<path d="M474.9 140.2v25.6H165.8v-25.6h309zM114.5 153q0 15.8-11.3 27.1t-27.6 11.3q-15.8 0-27.1-11.3T37 153t11.4-27.2 27.1-11.3q16.2 0 27.6 11.3t11.3 27.2zm-26 0q0-5.2-3.7-9t-9.2-3.8q-5.1 0-9 3.8t-3.8 9 3.8 9 9 3.8q5.6 0 9.2-3.8t3.6-9zm77.3 115.8h309v-25.6h-309v25.6zM114.5 256q0 15.8-11.3 27.1t-27.6 11.4q-15.8 0-27.1-11.4T37 256t11.4-27.1 27.1-11.4q16.2 0 27.6 11.4t11.3 27.1zm-26 0q0-5.1-3.7-9t-9.2-3.8q-5.1 0-9 3.8t-3.8 9 3.8 9 9 3.8q5.6 0 9.2-3.8t3.6-9zm77.3 115.9h309v-25.7h-309v25.7zM114.5 359q0 15.8-11.3 27.2t-27.6 11.3q-15.8 0-27.1-11.3T37 359 48.5 332t27.1-11.4q16.2 0 27.6 11.4t11.3 27.1zm-26 0q0-5.1-3.7-9t-9.2-3.8q-5.1 0-9 3.8t-3.8 9 3.8 9 9 3.9q5.6 0 9.2-3.9t3.6-9z"></path>
</symbol>
<symbol id="vjs-icon-close" viewBox="0 0 512 512">
<path d="M256 42q-44.5 0-83.5 17-39 16.5-68 45.5t-45.5 68q-17 39-17 83.5t17 83.5q16.5 39 45.5 68t68 45.5q39 17 83.5 17t83.5-17q39-16.5 68-45.5t45.5-68q17-39 17-83.5t-17-83.5q-16.5-39-45.5-68t-68-45.5q-39-17-83.5-17zm107 290.5L332.5 363 256 286.5 179.5 363 149 332.5l76.5-76.5-76.5-76.5 30.5-30.5 76.5 76.5 76.5-76.5 30.5 30.5-76.5 76.5 76.5 76.5z"></path>
</symbol>
<symbol id="vjs-icon-contrast" viewBox="0 0 512 512">
<path d="M256 506.9A250.9 250.9 0 1 1 256 5a250.9 250.9 0 0 1 0 501.8zm7.2-466.7c-107.8.5-224 91.4-224 214.8 0 104 114 216.8 217.8 217.8 107 1 220.8-111 218.9-215.8C474 154 372.4 39.7 263.2 40.2zM256 412.8V99.2a156.8 156.8 0 1 1 0 313.6z"></path>
</symbol>
<symbol id="vjs-icon-descriptions" viewBox="0 0 512 512">
<path d="M427 85H85q-18 0-30.5 12.5t-12.5 30v257q0 17.5 12.5 30T85 427h342q18 0 30.5-12.5t12.5-30v-257q0-17.5-12.5-30T427 85zM85 256h85.5v43H85v-43zm214 128.5H85v-43h214v43zm128 0h-85.5v-43H427v43zm0-85.5H213v-43h214v43z"></path>
</symbol>
<symbol id="vjs-icon-download" viewBox="0 0 512 512">
<path d="M440 199.6a14 14 0 0 0-13.9 14v192H86v-192a14 14 0 1 0-28 0v206a14 14 0 0 0 14 14h368.2a14 14 0 0 0 14-14v-206a14 14 0 0 0-14-14zM246.2 345.7a14 14 0 0 0 19.7 0l60.2-60.2a14 14 0 1 0-19.7-19.7L270 302.2V92.4a14 14 0 1 0-27.9 0v209.8l-36.3-36.3a14 14 0 1 0-19.7 19.7l60.1 60.1z"></path>
</symbol>
<symbol id="vjs-icon-expand" viewBox="0 0 512 512">
<path d="M70.3 431.5H111v-351H70.3zm330.8-351v351h40.6v-351zm-78.5 199.8-43.7.9-.9-28.6 44.6-1.6v-60.7l79.5 76.4-79.5 76.5zm-133.3 2.5 43.7-2.5-.9-27.5-42.8.9.8-62-79.6 76 79.6 76z"></path>
</symbol>
<symbol id="vjs-icon-expand-back" viewBox="0 0 512 512">
<path d="M156.5 431.5h40.6v-351h-40.6zm158.7-351v351h40.5v-351zm118.7 189 48.7-.9v-28l-48.7 1V176l-79.5 79.7 79.5 79.8zm-355.8-1.7H29.4l.8-27.7 47-.9v-66l79.6 79.3-79.6 79.3z"></path>
</symbol>
<symbol id="vjs-icon-facebook" viewBox="0 0 441 512">
<path d="M357.8 36q34 0 58.4 24 24 24.5 24 58.5v275q0 34-24 58.5-24.4 24-58.4 24h-54V305.5h57.4l8.6-66.5h-66v-42.5q0-16 7-24 6.4-8 26-8l35-.5v-59q-18-2.5-51-2.5-39 0-62 22.5-23.6 23-23.6 65v49h-57.4v66.5h57.4V476H82.8q-34 0-58.5-24-24-24.5-24-58.5v-275q0-34 24-58.5 24.4-24 58.5-24h275z"></path>
</symbol>
<symbol id="vjs-icon-filters" viewBox="0 0 512 512">
<path d="M341.3 391.7H512v28.5H341.3zm-113.7 0H0v28.5h227.6v85.3H256V334.8h-28.4zm85.3-227.5h28.4V-6.5H313v56.9H0v28.4h312.9zM426.7 50.4v28.4H512V50.4zM85.3 334.8h28.5V164.2H85.3V221H0v28.4h85.3zm113.8-85.3H512v-28.4H199.1zM341.3 420H512v28.4H341.3zm-85.7 0H0v28.4h255.6v57.1H284V334.8h-28.4zm85.3-255.8h28.5V-6.5h-28.5v85.1H0v28.5h341zm85.8-85.6v28.5H512V78.6zm-313.3 256h28.4V164.2h-28.4v85H0v28.5h113.4zm85.7-56.9H512v-28.4H199.1z"></path>
</symbol>
<symbol id="vjs-icon-forward5" viewBox="0 0 512 512">
<path d="m295.8 400.8 25.8-2.7c.7 5.8 2.9 10.5 6.5 14a17.8 17.8 0 0 0 26.3-1.6c3.7-4.4 5.6-11 5.6-19.9 0-8.2-1.9-14.5-5.6-18.6a18.4 18.4 0 0 0-14.5-6.2c-7.4 0-14 3.3-20 9.8l-21-3 13.3-70.3h68.4v24.2h-48.8l-4 23a39.1 39.1 0 0 1 17.6-4.4c11.5 0 21.3 4.2 29.2 12.6s12 19.2 12 32.5c0 11.1-3.2 21-9.7 29.7-8.7 12-21 18-36.5 18-12.5 0-22.7-3.4-30.5-10.1s-12.6-15.7-14.1-27zm63-218.7h-130c-60.1 0-108.9 48.8-108.9 108.9s7.3 99.6 80.3 112.5l1 32.6C121 436 83.6 371 83.6 291s65-145.2 145-145.2H359l-46-46 25.6-25.6 89.8 89.8-89.8 89.8-3.5-50.6z"></path>
</symbol>
<symbol id="vjs-icon-forward10" viewBox="0 0 512 512">
<path d="M372.4 299.9q19.6 0 30.6 14 13.2 16.6 13.2 55 0 38.3-13.3 55-11 14-30.5 14-19.8 0-31.8-15.2t-12-54q0-38.2 13.2-55 11-13.8 30.6-13.8zm0 21.5q-4.7 0-8.4 3t-5.7 10.7q-2.7 10-2.7 33.8t2.4 32.7q2.4 8.8 6 11.8 3.7 3 8.4 3t8.3-3q3.7-3 5.7-10.8 2.7-10 2.7-33.7t-2.4-32.6q-2.4-9-6-11.9-3.6-3-8.3-3zm-82.6 114.1H264v-97.6q-14.2 13.3-33.4 19.7V334q10.1-3.3 22-12.5 11.9-9.4 16.3-21.7h21zm69-253.4h-130c-60.1 0-108.9 48.8-108.9 108.9s7.3 99.6 80.3 112.5l1 32.6C121 436 83.6 371 83.6 291s65-145.2 145-145.2H359l-46-46 25.6-25.6 89.8 89.8-89.8 89.8-3.5-50.6z"></path>
</symbol>
<symbol id="vjs-icon-forward20" viewBox="0 0 512 512">
<path d="M372.4 299.9q19.6 0 30.6 14 13.2 16.6 13.2 55 0 38.3-13.3 55-11 14-30.5 14-19.8 0-31.8-15.2t-12-54q0-38.2 13.2-55 11-13.8 30.6-13.8zm0 21.5q-4.7 0-8.4 3t-5.7 10.7q-2.7 10-2.7 33.8t2.4 32.7q2.4 8.8 6 11.8 3.7 3 8.4 3t8.3-3q3.7-3 5.7-10.8 2.7-10 2.7-33.7t-2.4-32.6q-2.4-9-6-11.9-3.6-3-8.3-3zm-61.4 90v24.1h-90.7q1.4-13.6 8.8-25.8 7.4-12.2 29.1-32.4 17.5-16.3 21.5-22.1 5.3-8 5.3-15.9 0-8.6-4.7-13.2-4.6-4.7-12.8-4.7-8 0-12.9 4.9t-5.5 16.2l-25.8-2.6q2.3-21.4 14.5-30.7t30.4-9.3q20 0 31.4 10.8t11.4 26.8q0 9.1-3.3 17.4-3.2 8.2-10.3 17.2-4.7 6-17 17.3T265 404.3q-3.3 3.7-5.3 7.2zm47.9-229.3H228.8c-60.1 0-108.9 48.8-108.9 108.9s7.3 99.6 80.3 112.5l1 32.6C121 436 83.6 371 83.6 291s65-145.2 145-145.2H359l-46-46 25.6-25.6 89.8 89.8-89.8 89.8-3.5-50.6z"></path>
</symbol>
<symbol id="vjs-icon-forward30" viewBox="0 0 512 512">
<path d="M372.4 299.9q19.6 0 30.6 14 13.2 16.6 13.2 55 0 38.3-13.3 55-11 13.9-30.6 13.9-19.7 0-31.7-15.1-12.1-15.2-12.1-54 0-38.2 13.3-55 11-13.8 30.6-13.8zm0 21.5q-4.7 0-8.4 3t-5.7 10.7q-2.7 10-2.7 33.8t2.4 32.7q2.4 8.8 6 11.8 3.7 3 8.4 3t8.3-3q3.7-3 5.7-10.8 2.7-10 2.7-33.7t-2.4-32.6q-2.4-9-6-11.9-3.7-3-8.3-3zm-149.7 78.3 25-3q1.2 9.5 6.5 14.6t12.7 5q8 0 13.4-6 5.5-6.1 5.5-16.4 0-9.8-5.2-15.5t-12.8-5.7q-5 0-11.9 2l2.9-21.2q10.5.3 16-4.5 5.5-4.9 5.5-12.9 0-6.8-4-10.9t-10.8-4q-6.6 0-11.3 4.6t-5.8 13.4l-23.8-4q2.5-12.3 7.5-19.5 5-7.4 14-11.6 9-4.2 20.1-4.2 19.1 0 30.6 12.2 9.5 10 9.5 22.4 0 17.8-19.4 28.4 11.6 2.5 18.5 11.2 7 8.6 7 20.9 0 17.7-13 30.3T267 437.8q-18.4 0-30.4-10.5-12.1-10.6-14-27.6zM358.9 182H228.8c-60.1 0-108.9 48.8-108.9 108.9s7.3 99.6 80.3 112.5l1 32.6C121 436 83.6 371 83.6 291s65-145.2 145-145.2H359l-46-46 25.6-25.6 89.8 89.8-89.8 89.8-3.5-50.6z"></path>
</symbol>
<symbol id="vjs-icon-fullscreen" viewBox="0 0 512 512">
<path d="M464 204h-34.5v-86.6H308V82.5h156V204zM308 429.5v-35h121.5V308H464v121.5H308zM48 308h34.5v86.6H204v34.9H48V308zM204 82.5v35H82.5V204H48V82.5h156z"></path>
</symbol>
<symbol id="vjs-icon-fullscreen-back" viewBox="0 0 512 512">
<path d="M308 82.5h34.5v87H464V204H308V82.5zM464 308v34.5H342.5v87H308V308h156zM204 429.5h-34.5v-87H48V308h156v121.5zM48 204v-34.5h121.5v-87H204V204H48z"></path>
</symbol>
<symbol id="vjs-icon-help" viewBox="0 0 440 512">
<path d="M256.5 393.5v-55q0-4-2.5-6.5-3-3-7-3h-54.5q-4 0-7 3-2.5 2.5-2.5 6.5v55q0 4 2.5 6.5 3 2.5 7 2.5H247q4 0 7-2.5 2.5-2.5 2.5-6.5zm73-192.5q0-25-16-46.5-15.5-21.5-39.5-33-23.5-12-48.5-12-69.5 0-106 61-4.5 7 2 12l38 28.5q2 2 5.5 2 4.5 0 7-3.5 15-19.5 24.5-26.5 10-7 24.5-7 14 0 24.5 7.5 11 7.5 11 17 0 11-6 17.5-5.5 6.5-19.5 13-18 8-33 24.5-15 17-15 36V302q0 4 2.5 6.5 3 2.5 7 2.5H247q4 0 7-2.5 2.5-2.5 2.5-6.5 0-5.5 6-14.5 6-8.5 15.5-14 9-5 14-8t13.5-10q8-7 12.5-14 4.5-6.5 8-17 3.5-11 3.5-23.5zm110 55q0 60-29.5 110-29.5 50.5-80 80t-110.5 29.5q-59.5 0-110-29.5t-80-80Q0 316 0 256t29.5-110.5q29.5-50 80-79.5t110-29.5q60 0 110.5 29.5t80 79.5Q439.5 196 439.5 256z"></path>
</symbol>
<symbol id="vjs-icon-info" viewBox="0 0 440 512">
<path d="M293 393.5v-46q0-4-2.5-6.5t-6.5-2.5h-27.5V192q0-4-2.5-6.5-3-2.5-7-2.5h-91.5q-4 0-6.5 2.5t-2.5 6.5v45.5q0 4 2.5 7 2.5 2.5 6.5 2.5H183v91.5h-27.5q-4 0-6.5 2.5t-2.5 6.5v46q0 4 2.5 6.5t6.5 2.5H284q4 0 6.5-2.5t2.5-6.5zM256.5 137V91.5q0-4-2.5-7-3-2.5-7-2.5h-54.5q-4 0-7 2.5-2.5 3-2.5 7V137q0 4 2.5 6.5 3 2.5 7 2.5H247q4 0 7-2.5 2.5-2.5 2.5-6.5zm183 119q0 60-29.5 110-29.5 50.5-80 80t-110.5 29.5q-59.5 0-110-29.5t-80-80Q0 316 0 256t29.5-110.5q29.5-50 80-79.5t110-29.5q60 0 110.5 29.5t80 79.5Q439.5 196 439.5 256z"></path>
</symbol>
<symbol id="vjs-icon-linkedin" viewBox="0 0 521 512">
<path d="M107 405.5h67V205h-67v200.5zm71-262q0-15-10-25-10.5-10-27-10-17 0-27.5 10t-10.5 25q0 14.5 10.5 24.5 10 10 26.5 10h.5q17 0 27.5-10 10-10 10-24.5zm169 262h67v-115q0-44.5-21-67-21.5-23-56-23-39 0-60.5 34h1V205h-67q1 19.5 0 200.5h67v-112q0-11 2-16 4-10 13-17.5 8.5-7 21-7 33.5 0 33.5 45.5v107zm135.5-288v277q0 34.5-24.5 59T399 478H122q-34.5 0-59-24.5t-24.5-59v-277q0-34.5 24.5-59T122 34h277q34.5 0 59 24.5t24.5 59z"></path>
</symbol>
<symbol id="vjs-icon-mirror1" viewBox="0 0 512 512">
<path d="m154.5 264 21 21-49.5 49.5h310v30l-310 .5 49.5 49.5-21 21-86-86 86-85.5zm203-187.5-21 21 49.5 50H76v30h310L336.5 227l21 21 86-85.5-86-86z"></path>
</symbol>
<symbol id="vjs-icon-mirror2" viewBox="0 0 512 512">
<path d="m357.5 264-21 21 49.5 49.5H76v30l310 .5-49.5 49.5 21 21 86-86-86-85.5zm-203-187.5 21 21-49.5 50h310v30H126l49.5 49.5-21 21-86-85.5 86-86z"></path>
</symbol>
<symbol id="vjs-icon-mute" viewBox="0 0 512 512">
<path d="M123.6 200.2q-15.9 0-25.2 8t-9.2 21.3v48.2q0 7 2.6 13.3t7.4 11.1q4.8 5.2 11.3 7.8t13.1 2.6h39l127 126.7V72.7L164 200.2h-40.4zm143.8-73v258.3l-95.6-95.2h-48.2q-4.8 0-8.5-3.7t-3.7-9v-48.1q0-1.5 1.7-4t10.5-2.7h49.7l94.1-95.6zm155 74.9L309.2 304l16 15.2 113.3-102zm-97.2 0L309 216.9l110.5 104.5 16.6-14.8z"></path>
</symbol>
<symbol id="vjs-icon-pause" viewBox="0 0 512 512">
<path d="M161.5 434h37V78h-37v356zM311 78v356h39.5V78H311z"></path>
</symbol>
<symbol id="vjs-icon-pinterest" viewBox="0 0 441 512">
<path d="M357.8 36q34 0 58.4 24 24 24.5 24 58.5v275q0 34-24 58.5-24.4 24-58.4 24H150.2q24-35 31-60l15-60q6 11 21 19t32.6 8q51.4 0 84.4-42 33-42.5 33-107 0-24-10-46.5-10.4-22.5-28-40t-43.4-28-56.6-10.5q-30 0-56 8.5-25.4 8-43.4 22-18 13.5-31 31-13 18-19 37t-6 38q0 29 11 51.5 11.5 22 33.5 31.5 4 1.5 7 0t4-5.5q3-12.5 4-17.5 2-6.5-3-12-14-18-14-43 0-43 29.5-73.5t77.4-30.5q42.6 0 66.6 23 24 23.5 24 60.5 0 48-19.6 82-19 33.5-49.4 33.5-17.6 0-28-12.5t-6.6-29.5q2.6-10 7.6-26.5 5.4-17 8.4-29.5 3-12 3-21 0-14-7.4-23.5t-21.6-9.5q-17.4 0-29.4 16.5-12.6 16-12.6 40 0 20.5 7 34.5l-28 118.5q-7 29-2 73H82.8q-34 0-58.5-24-24-24.5-24-58.5v-275q0-34 24-58.5 24.4-24 58.5-24h275z"></path>
</symbol>
<symbol id="vjs-icon-pip" viewBox="0 0 512 512">
<path d="M406 84.5H109q-20.5 0-35.3 12.3T59 127v257.5q0 18 14.8 30.5t35.2 12.5h297q20.5 0 33.8-12.5t13.2-30.5V127q0-18-13.3-30.3T406 84.5zm17 313H89v-283h334v283zM268.5 267h132v108.5h-132V267z"></path>
</symbol>
<symbol id="vjs-icon-pip-full" viewBox="0 0 512 512">
<path d="M406 84.5H109q-20.5 0-35.3 12.3T59 127v257.5q0 18 14.8 30.5t35.2 12.5h297q20.5 0 33.8-12.5t13.2-30.5V127q0-18-13.3-30.3T406 84.5zm17 313H89v-283h334v283zm-313.5-265h291v243h-291v-243z"></path>
</symbol>
<symbol id="vjs-icon-play" viewBox="0 0 512 512">
<path d="M110 81v350l292-176zm25.5 48.5 210 126-210 126.5V129.5z"></path>
</symbol>
<symbol id="vjs-icon-playlist" viewBox="0 0 512 512">
<path d="M47.1 172.5h334.2v55.7H47.1v-55.7zm0-111.4h334.2v55.7H47.1V61zm0 222.7H270v55.7H47.1v-55.7zm278.5 0V451L465 367.4z"></path>
</symbol>
<symbol id="vjs-icon-related" viewBox="0 0 512 512">
<path d="M146.5 374.8v55q0 11.4-8.3 19.4t-19.2 8H27.5q-11.5 0-19.5-8t-8-19.4v-55q0-11 8-19.3t19.5-8.3H119q11 0 19.3 8.3t8.2 19.3zm0-146v54.4q0 11.6-8.3 19.6t-19.2 8H27.5q-11.5 0-19.5-8t-8-19.6v-54.4q0-11.6 8-19.6t19.5-8H119q11 0 19.3 8t8.2 19.6zm182.5 146v55q0 11.4-8 19.4t-19.5 8h-91q-11.5 0-19.5-8t-8-19.4v-55q0-11 8-19.3t19.5-8.3h91q11.5 0 19.5 8.3t8 19.3zM146.5 82.1v55q0 11.6-8.3 19.6t-19.2 8H27.5q-11.5 0-19.5-8t-8-19.6v-55q0-11.5 8-19.5t19.5-8H119q11 0 19.3 8t8.2 19.5zM329 228.8v54.4q0 11.6-8 19.6t-19.5 8h-91q-11.5 0-19.5-8t-8-19.6v-54.4q0-11.6 8-19.6t19.5-8h91q11.5 0 19.5 8t8 19.6zm183 146v55q0 11.4-8 19.4t-19.5 8H393q-11 0-19.3-8t-8.2-19.4v-55q0-11 8.3-19.3t19.2-8.3h91.5q11.5 0 19.5 8.3t8 19.3zM329 82.1v55q0 11.6-8 19.6t-19.5 8h-91q-11.5 0-19.5-8t-8-19.6v-55q0-11.5 8-19.5t19.5-8h91q11.5 0 19.5 8t8 19.5zm183 146.6v54.4q0 11.6-8 19.6t-19.5 8H393q-11 0-19.3-8t-8.2-19.6v-54.4q0-11.6 8.3-19.6t19.2-8h91.5q11.5 0 19.5 8t8 19.6zm0-146.6v55q0 11.6-8 19.6t-19.5 8H393q-11 0-19.3-8t-8.2-19.6v-55q0-11.5 8.3-19.5t19.2-8h91.5q11.5 0 19.5 8t8 19.5z"></path>
</symbol>
<symbol id="vjs-icon-rewind5" viewBox="0 0 512 512">
<path d="M127 400.8 153 398q1 8.8 6.5 14 5.4 5 12.5 5 8.1 0 13.8-6.6 5.6-6.6 5.6-19.9 0-12.4-5.6-18.6-5.6-6.2-14.5-6.2-11.1 0-20 9.8l-21-3 13.3-70.3h68.4v24.2h-48.8l-4 23q8.6-4.4 17.6-4.4 17.3 0 29.2 12.6t12 32.5q0 16.7-9.7 29.7-13.1 18-36.5 18-18.7 0-30.5-10.1t-14.1-27zM153.2 182h130.1c60.1 0 108.9 48.8 108.9 108.9s-7.3 99.6-80.3 112.5l-1 32.6c80.2 0 117.5-65 117.5-145.1s-65-145.2-145-145.2H153l46-46-25.6-25.6L83.7 164l89.8 89.8 3.5-50.6z"></path>
</symbol>
<symbol id="vjs-icon-rewind10" viewBox="0 0 512 512">
<path d="M244 298.6q19.5 0 30.6 14 13.1 16.5 13.1 54.9 0 38.3-13.2 55-11 13.8-30.6 13.8-19.7 0-31.7-15-12-15.2-12-54 0-38.2 13.2-55 11-13.7 30.5-13.7zm0 21.4q-4.8 0-8.4 3-3.7 3-5.8 10.7-2.6 10-2.6 33.8t2.4 32.7q2.4 8.8 6 11.7 3.6 3 8.3 3t8.4-3q3.7-3 5.7-10.7 2.7-10 2.7-33.7t-2.4-32.6q-2.4-9-6-11.9-3.7-3-8.4-3zm-82.5 114h-25.9v-97.4q-14.2 13.2-33.4 19.6v-23.5q10.1-3.3 22-12.5 11.9-9.3 16.3-21.6h21zm-8.3-251h130c60 0 108.7 48.7 108.7 108.8s-7.2 99.5-80.1 112.4l-1 32.6c80.1 0 117.4-65 117.4-145s-65-145-145-145h-130l46-46-25.7-25.6-89.7 89.7 89.7 89.7 3.5-50.5z"></path>
</symbol>
<symbol id="vjs-icon-rewind20" viewBox="0 0 512 512">
<path d="M244 298.6q19.5 0 30.6 14 13.1 16.5 13.1 54.9 0 38.3-13.2 55-11 13.8-30.6 13.8-19.7 0-31.7-15-12-15.2-12-54 0-38.2 13.2-55 11-13.7 30.5-13.7zm0 21.4q-4.8 0-8.4 3-3.7 3-5.8 10.7-2.6 10-2.6 33.8t2.4 32.7q2.4 8.8 6 11.7 3.6 3 8.3 3t8.4-3q3.7-3 5.7-10.7 2.7-10 2.7-33.7t-2.4-32.6q-2.4-9-6-11.9-3.7-3-8.4-3zm-61.4 90v24H92q1.4-13.6 8.8-25.7 7.4-12.3 29-32.4 17.6-16.3 21.5-22.1 5.4-8 5.4-15.9 0-8.6-4.7-13.2-4.6-4.7-12.8-4.7-8.1 0-12.9 4.9t-5.5 16.2L95 338.5q2.3-21.4 14.5-30.7t30.3-9.3q20 0 31.4 10.8t11.4 26.8q0 9.1-3.3 17.4-3.2 8.2-10.3 17.2-4.7 6-17 17.2t-15.5 15q-3.2 3.6-5.2 7.1zm-29.4-227h130c60 0 108.7 48.7 108.7 108.8s-7.2 99.5-80.1 112.4l-1 32.6c80.1 0 117.4-65 117.4-145s-65-145-145-145h-130l46-46-25.7-25.6-89.7 89.7 89.7 89.7 3.5-50.5z"></path>
</symbol>
<symbol id="vjs-icon-rewind30" viewBox="0 0 512 512">
<path d="M244 298.6q19.5 0 30.6 14 13.1 16.5 13.1 54.9 0 38.3-13.2 55-11 13.8-30.6 13.8-19.7 0-31.7-15-12-15.2-12-54 0-38.2 13.2-55 11-13.7 30.5-13.7zm0 21.4q-4.8 0-8.4 3-3.7 3-5.8 10.7-2.6 10-2.6 33.8t2.4 32.7q2.4 8.8 6 11.7 3.6 3 8.3 3t8.4-3q3.7-3 5.7-10.7 2.7-10 2.7-33.7t-2.4-32.6q-2.4-9-6-11.9-3.7-3-8.4-3zM94.3 398.2l25-3q1.2 9.6 6.4 14.6t12.7 5q8 0 13.5-6t5.5-16.4q0-9.7-5.2-15.4t-12.8-5.7q-5 0-12 1.9l3-21q10.4.2 16-4.6 5.5-4.9 5.5-12.9 0-6.8-4-10.8t-10.8-4q-6.7 0-11.4 4.5t-5.7 13.5l-23.8-4.1q2.5-12.2 7.4-19.5 5.1-7.4 14-11.5 9-4.2 20.2-4.2 19 0 30.6 12.1 9.4 10 9.4 22.5 0 17.7-19.4 28.3 11.6 2.5 18.5 11.1 7 8.7 7 21 0 17.7-13 30.2t-32.3 12.5q-18.3 0-30.3-10.5-12.1-10.5-14-27.6zM153.2 183h130c60 0 108.7 48.7 108.7 108.8s-7.2 99.5-80.1 112.4l-1 32.6c80.1 0 117.4-65 117.4-145s-65-145-145-145h-130l46-46-25.7-25.6-89.7 89.7 89.7 89.7 3.5-50.5z"></path>
</symbol>
<symbol id="vjs-icon-saturation" viewBox="0 0 512 512">
<path d="M256 5.1a250.9 250.9 0 1 0 0 501.8 250.9 250.9 0 0 0 0-501.8zm0 27.5c115.5 0 221.3 107 221.3 222.4 0 0-43-19.9-116.8-19.9C298.2 235.1 256 256 256 256s-63.1 20.9-104.6 20.9c-73.1 0-116.7-25-116.7-25C34.7 136.4 140.5 32.6 256 32.6z"></path>
</symbol>
<symbol id="vjs-icon-settings" viewBox="0 0 512 512">
<path d="M256 201.7q-22.3 0-38.3 16t-16 38.3 16 38.3 38.3 16 38.3-16 16-38.3-16-38.3-38.3-16zm0 86.6q-13.3 0-22.8-9.5t-9.5-22.8 9.5-22.8 22.8-9.5 22.8 9.5 9.5 22.8-9.5 22.8-22.8 9.5zm182.6-11.1q.7-5.4 1-10.6t.4-10.6-.4-10.6-1-10.6l-56.1-16.9q-1.8-6.5-4.3-12.6t-5.8-12.2l27.7-51.4q-6.5-8.2-14-15.8t-15.8-14l-51.4 27.7q-6.1-3.3-12.2-5.8t-13-4.3l-16.5-56q-5.4-.8-10.6-1.1T256 72t-10.6.4-10.6 1l-16.5 56.1q-6.9 1.8-13 4.3t-12.2 5.8l-51.4-27.7q-8.2 6.5-15.8 14t-14 15.8l27.7 51.4q-3.3 6.1-5.8 12.2t-4.3 12.6l-56 16.9q-.8 5.4-1.1 10.6T72 256t.4 10.6 1 10.6l55.7 16.5q2.2 6.9 4.7 13t5.8 12.2l-27.7 51.4q6.5 8.2 14 15.8t15.8 14l51.4-27.7q6.1 3.3 12.2 5.8t13 4.7l16.5 55.7q5.4.7 10.6 1t10.6.4 10.6-.4 10.6-1l16.5-55.7q6.9-2.2 13-4.7t12.2-5.8l51.4 27.7q8.2-6.5 15.8-14t14-15.8l-27.7-51.4q3.3-6.1 5.8-12.2t4.3-13l56-16.5zm-73.4-.7-3.2 11.1q-1.8 5.4-4 10.6t-4.6 10.3l-5.4 10.4 5.4 10 20.5 38.5-3 3.4q-1.6 1.6-3.5 3L319 347.7l-10.4 5.8q-5 2.5-10.3 4.7t-10.6 4l-11.1 3.1-3.2 11.2-12.6 42h-9.4l-12.5-42-3.3-11.2-11.1-3.2q-5.4-1.8-10.6-4t-10.3-4.6l-10.4-5.8-48.5 26.3q-1.8-1.5-3.4-3.3t-3-3.2l25.8-48.5-5.4-10.4q-2.5-5-4.6-10.3t-4-10.6l-3.2-11.1-53.2-15.8v-9.4l53.2-15.8 3.2-11.1q1.8-5.4 4-10.8t4.6-10L164 193l-25.9-48.5 3-3.4q1.6-1.6 3.5-3l48.5 26.2 10.4-5.8q5-2.5 10.1-4.7t10.8-4l11.1-3.1 3.3-11.2 12.5-42h9.4l12.6 42 3.2 11.2 11.1 3.2q5.4 1.8 10.6 4t10.3 4.6l10.4 5.4 48.5-25.9 3.4 3q1.6 1.6 3 3.5L353.5 183l-5.4 10.1 5.4 10.4q2.5 5 4.7 10t4 10.9l3.2 11.1 11 3.2 42.1 12.6v9.4l-53.1 15.8z"></path>
</symbol>
<symbol id="vjs-icon-share" viewBox="0 0 512 512">
<path d="M432 352q-17 0-31.8 6.5t-25.7 18L159 268.5q.5-3 .8-6.3t.2-6.2-.3-6.3-.7-6.2l215.5-108q11 11.5 25.8 18T432 160q33 0 56.5-23.5T512 80t-23.5-56.5T432 0t-56.5 23.5T352 80q0 3 .3 6.3t.7 6.2l-215.5 108q-11-11.5-25.8-18T80 176q-33 0-56.5 23.5T0 256t23.5 56.5T80 336q17 0 31.8-6.5t25.7-18l215.5 108q-.5 3-.8 6.3t-.2 6.2q0 33 23.5 56.5T432 512t56.5-23.5T512 432t-23.5-56.5T432 352z"></path>
</symbol>
<symbol id="vjs-icon-snapshot" viewBox="0 0 512 512">
<path d="M464 377.3V186.7a51.8 51.8 0 0 0-52-52h-60l-29.6-44.3a17.3 17.3 0 0 0-14.4-7.7H204c-5.6 0-11 2.7-14.4 7.7L160 134.7H100a51.8 51.8 0 0 0-52 52v190.6a51.8 51.8 0 0 0 52 52h312a51.8 51.8 0 0 0 52-52zm-34.7 0c0 4.8-1.9 9.1-5 12.3s-7.5 5-12.3 5H100c-4.8 0-9.1-1.9-12.3-5s-5-7.5-5-12.3V186.7c0-4.8 1.9-9.1 5-12.3s7.5-5 12.3-5h69.3c6 0 11.3-3.1 14.5-7.8l29.5-44.3h85.4l29.5 44.3c3.4 5 8.8 7.7 14.5 7.7H412c4.8 0 9.1 2 12.3 5.1s5 7.5 5 12.3zm-86.6-104a86.5 86.5 0 0 0-148-61.3 86.4 86.4 0 0 0 0 122.6 86.4 86.4 0 0 0 122.6 0 86.4 86.4 0 0 0 25.4-61.3zm-34.7 0a51.8 51.8 0 0 1-52 52 51.8 51.8 0 0 1-52-52 51.8 51.8 0 0 1 52-52 51.8 51.8 0 0 1 52 52z"></path>
</symbol>
<symbol id="vjs-icon-twitter" viewBox="0 0 441 512">
<path d="M367.3 174q-16.6 7-35 9.5 19.4-11.5 27-33.5-19 11-38.6 15-17.4-19-44-19-25 0-42.4 17.5T216.7 206q0 8.5 1.6 14-37-2-69.6-19-32.4-16.5-55-44-8.5 14-8.5 30 0 33 26 50.5-13.5-.5-28.5-7.5v.5q0 21.5 14.5 38 14 17 35 21-8 2-14.4 2-3.5 0-11-1 6 18 21 30 15.5 11.5 35 12-33.6 25.5-75 25.5-7.5 0-14-.5 42.5 27 92 27 32 0 60.4-10.5 28-10 48-27t34.6-39.5q14.4-22 21.4-46.5 7-24 7-48 0-5-.4-8 18.4-12.5 30.4-31zm73-55.5v275q0 34-24 58.5-24.6 24-58.6 24h-275q-34 0-58.5-24-24-24.5-24-58.5v-275q0-34 24-58.5 24.6-24 58.5-24h275q34 0 58.6 24 24 24.5 24 58.5z"></path>
</symbol>
<symbol id="vjs-icon-volume1" viewBox="0 0 512 512">
<path d="M119.2 196q-16.6 0-26.3 8.4t-9.7 22.2V277q0 7.3 2.8 14t7.7 11.5q5 5.4 11.8 8.1t13.7 2.7h40.6l132.7 132.3V63L161.4 196h-42.2zm150-76.1v269.5L169.6 290h-50.3q-5 0-8.9-3.8t-3.8-9.3v-50.3q0-1.5 1.7-4.2t11-2.8H171z"></path>
</symbol>
<symbol id="vjs-icon-volume2" viewBox="0 0 512 512">
<path d="M124.7 197.8q-16.6 0-26.3 8.3t-9.7 22.2v50.3q0 7.4 2.7 14t7.8 11.6q5 5.4 11.8 8t13.7 2.8h40.6L298 447.3V64.8l-131.1 133h-42.2zm150-76.2v269.6L175 291.8h-50.3q-5 0-8.9-3.9t-3.9-9.3v-50.3q0-1.5 1.8-4.2t11-2.7h51.8zM327 315.8v-23.3q10 0 16.8-7t6.8-16.5-6.8-16.7-16.8-7v-23.1q19.3 0 33 13.7t13.8 33T360 302t-33 13.7z"></path>
</symbol>
<symbol id="vjs-icon-volume3" viewBox="0 0 512 512">
<path d="M121.7 197.8q-16.6 0-26.3 8.3t-9.6 22.2v50.3q0 7.4 2.7 14t7.7 11.6q5 5.4 11.8 8t13.7 2.8h40.6L295 447.3V64.8l-131.1 133h-42.2zm150-76.2v269.6L172 291.8h-50.3q-5 0-8.9-3.9t-3.8-9.3v-50.3q0-1.5 1.7-4.2t11-2.7h51.9l98.2-99.8zM324 315.8v-23.3q10 0 16.8-7t6.8-16.5-6.8-16.7-16.8-7v-23.1q19.3 0 33 13.7t13.8 33-13.7 33.1-33.1 13.7zm94-46.8q0 19.3-7.4 36.3t-20 29.6-29.5 20q-17 7.3-36.3 7.3V339q29 0 49.5-20.5t20.5-49.5q0-28.7-20.5-49.2t-49.5-20.5v-23.6q19.3 0 36.3 7.4 16.7 7.3 29.4 20.1t20.1 29.8 7.4 36z"></path>
</symbol>
</defs>
</svg>
















