<svg xmlns="http://www.w3.org/2000/svg">
<defs>
<symbol id="vjs-icon-audio" viewBox="0 0 512 512">
<path d="M256 98q-31 0-58 12t-47 32-33 48q-11 27-11 58v116q0 20 14 35t36 15h49V281h-66v-33q0-24 9-45t25-37 37-25 45-9 45 9 37 25 25 37 9 45v33h-66v133h49q21 0 36-15t14-35V248q0-31-11-58-12-27-33-48t-47-32q-27-12-58-12z"></path>
</symbol>
<symbol id="vjs-icon-cancel" viewBox="0 0 410 512">
<path d="M377 361q0 12-8 20l-39 39q-9 8-20 8t-20-8l-85-85-85 85q-8 8-20 8t-20-8l-39-39q-8-8-8-20t8-20l85-85-85-85q-8-8-8-20t8-19l39-40q9-8 20-8t20 8l85 85 85-85q8-8 20-8t20 8l39 40q8 8 8 19t-8 20l-85 85 85 85q8 9 8 20z"></path>
</symbol>
<symbol id="vjs-icon-captions" viewBox="0 0 512 512">
<path d="M393 99H119q-17 0-28 12t-12 27v236q0 16 12 27t28 12h274q17 0 28-12t12-27V138q0-16-12-27t-28-12zM236 236h-29v-9h-39v58h39v-9h29v19q0 8-5 14t-14 6h-59q-8 0-14-6t-6-14v-78q0-8 6-14t14-6h59q8 0 14 6t5 14v19zm138 0h-30v-9h-39v58h39v-9h30v19q0 8-6 14t-14 6h-59q-8 0-14-6t-5-14v-78q0-8 5-14t14-6h59q8 0 14 6t6 14v19z"></path>
</symbol>
<symbol id="vjs-icon-center" viewBox="0 0 512 512">
<path d="M448 232h-38q-4-25-15-47t-28-39-40-29q-22-11-47-15V64h-48v38q-25 4-47 15t-39 29-29 39q-11 22-15 47H64v48h38q4 25 15 47t29 40 39 28q22 11 47 15v38h48v-38q25-4 47-15t40-28 28-40q11-22 15-47h38v-48zm-87 0h-37q-5-15-17-27t-27-17v-37q30 6 53 29t28 52zm-105 48q-10 0-17-7t-7-17q0-10 7-17t17-7q10 0 17 7t7 17q0 10-7 17t-17 7zm-24-129v37q-15 5-27 17t-17 27h-37q6-30 29-52t52-29zm-81 129h37q5 15 17 27t27 17v37q-30-6-52-28t-29-53zm129 81v-37q15-5 27-17t17-27h37q-6 30-28 53t-53 28z"></path>
</symbol>
<symbol id="vjs-icon-close" viewBox="0 0 512 512">
<path d="M256 40q-45 0-84 17t-69 46-46 69q-17 39-17 84t17 84q17 40 46 69t69 47q39 17 84 17t84-17q40-17 69-47t47-69q17-39 17-84t-17-84q-17-39-47-69t-69-46q-39-17-84-17zm108 294-30 30-78-77-77 77-31-30 78-78-78-77 31-31 77 78 78-78 30 31-77 77z"></path>
</symbol>
<symbol id="vjs-icon-volume1" viewBox="0 0 512 512">
<path d="M79 193v118h79l98 98V95l-98 98z"></path>
</symbol>
<symbol id="vjs-icon-descriptions" viewBox="0 0 512 512">
<path d="M413 99H99q-16 0-28 12t-11 27v236q0 16 11 27t28 12h314q16 0 28-12t11-27V138q0-16-11-27t-28-12zM99 256h78v39H99v-39zm196 118H99v-39h196v39zm118 0h-78v-39h78v39zm0-79H217v-39h196v39z"></path>
</symbol>
<symbol id="vjs-icon-download" viewBox="0 0 512 512">
<path d="M390 283v87H122v-87H71v113c0 14 11 26 26 26h318c15 0 26-12 26-26V283zm-139 42-73-89s-10-4 1-10h41V96s-2-6 8-6h58c7 0 7 5 7 5v128h38c15 0 4 11 4 11s-63 83-71 92c-7 6-13-1-13-1z"></path>
</symbol>
<symbol id="vjs-icon-facebook" viewBox="0 0 446 512">
<path d="M362 34q35 0 59 24t25 59v278q0 35-25 59t-59 25h-54V306h57l9-67h-66v-43q0-16 7-24 6-8 26-8h35v-60q-18-3-51-3-39 0-63 23t-24 66v49h-58v67h58v173H84q-34 0-59-25T1 395V117q0-34 24-59t59-24h278z"></path>
</symbol>
<symbol id="vjs-icon-forward5" viewBox="0 0 512 512">
<path d="m285 381 28-3q1 9 7 15 6 5 13 5 9 0 15-7t6-21q0-13-6-19t-15-6q-13 0-22 10l-23-3 14-74h75v26h-53l-5 24q10-5 20-5 18 0 31 13t13 34q0 17-10 31-15 19-40 19-20 0-33-11t-15-28zM64 153v256c0 3 1 5 3 7s4 3 7 3h128v-39h-99V183h236v39c0 6 2 9 5 11s8 1 12-2l85-57c3-1 5-4 6-7s1-6 0-9l-3-4-3-2-85-57c-4-3-8-3-12-2s-5 6-5 11v39H74c-3 0-5 1-7 3s-3 5-3 7z"></path>
</symbol>
<symbol id="vjs-icon-forward10" viewBox="0 0 512 512">
<path d="M64 153v256q0 4 3 7t7 3h128v-39h-99V183h236v40q0 8 5 10t12-2l85-57q5-2 6-7t0-9l-3-4-3-2-85-57q-7-4-12-1t-5 10v39H74q-4 0-7 4t-3 6zm330 150q-6-10-15-16t-21-6q-11 1-21 6t-15 16q-14 22-14 47t14 47q6 10 15 16t21 6q11-1 21-6t15-16q13-21 13-47t-13-47zm-36 96q-12 0-21-14t-9-35q0-20 9-35t21-14q11 0 20 14t9 35q0 20-8 35t-21 14zm-89 20V315l-10 10-13-14 26-26q5-5 11-3t6 9v128z"></path>
</symbol>
<symbol id="vjs-icon-forward20" viewBox="0 0 512 512">
<path d="M64 128v256l3 6c2 2 4 3 7 3h128v-39h-99V157h236v39c0 6 2 9 5 11s8 1 12-2l85-57 5-4 2-7v-3l-1-2-2-3-4-3-85-57c-4-3-8-3-12-2s-5 6-5 11v40H74c-3 0-5 0-7 2s-3 5-3 8zm272 239v24h-90q1-14 9-26 7-13 28-34 18-16 22-22 5-8 5-17 0-8-5-13-4-5-12-5t-13 5-6 17l-25-3q2-22 14-31t30-10q20 0 31 11t12 28q0 9-4 17-3 9-10 18l-17 18-15 15-5 8zm60-115q19 0 30 14 13 17 13 57 0 39-13 56-11 15-30 15t-31-16q-12-15-12-55t13-57q11-14 30-14zm0 22q-5 0-8 3-4 3-6 11-2 10-2 35t2 33q2 10 6 13 3 3 8 3t8-3q4-4 6-11 3-11 3-35t-3-34q-2-9-6-12-3-3-8-3z"></path>
</symbol>
<symbol id="vjs-icon-forward30" viewBox="0 0 512 512">
<path d="M64 154v256l3 6c2 2 4 3 7 3h128v-39h-99V183h236v39c0 6 2 9 5 11s8 1 12-2l85-57 5-4 2-7v-3l-1-2-2-3-4-3-85-57c-4-3-8-3-12-2s-5 6-5 11v40H74c-3 0-5 0-7 2s-3 5-3 8zm184 226 25-3q1 10 6 15t13 6q8 0 13-7 6-6 6-16 0-11-5-16t-13-6l-12 2 3-22q10 0 16-5 5-5 5-13 0-7-4-11t-10-4q-7 0-12 5t-5 13l-24-4q3-12 8-20 5-7 13-12 9-4 20-4 19 0 31 12 9 11 9 24 0 18-19 29 11 2 18 11t7 22q0 18-13 31t-32 13q-18 0-30-11t-14-29zm148-102q19 0 30 14 13 17 13 57 0 39-13 56-11 15-30 15t-31-16q-12-15-12-55t13-57q11-14 30-14zm0 22q-5 0-8 3-4 3-6 11-2 10-2 35t2 33q2 10 6 13 3 3 8 3t8-3q4-4 6-11 3-11 3-35t-3-34q-2-9-6-12-3-3-8-3z"></path>
</symbol>
<symbol id="vjs-icon-fullscreen" viewBox="0 0 512 512">
<path d="M137 304H88v120h120v-49h-71v-71zm-48-96h48v-71h71V88H89v120zm286 167h-71v49h120V304h-49v71zM304 89v48h71v71h49V89H304z"></path>
</symbol>
<symbol id="vjs-icon-fullscreen-back" viewBox="0 0 512 512">
<path d="M89 352h71v71h48V305H89v48zm71-192H89v48h119V89h-48v71zm144 264h48v-72h71v-48H305v120zm48-264V89h-48v119h120v-48h-72z"></path>
</symbol>
<symbol id="vjs-icon-help" viewBox="0 0 445 512">
<path d="M257 385v-52q0-4-2-6t-7-2h-51q-4 0-7 2t-2 6v52q0 4 2 6t7 2h51q4 0 7-2t2-6zm69-180q0-24-15-44-15-21-37-31-23-11-46-11-65 0-100 57-4 6 3 11l35 27q2 2 5 2 4 0 6-4 15-18 24-24 9-7 23-7 13 0 23 7t10 16q0 10-6 16-5 6-18 12-17 8-31 24-14 15-14 33v10q0 4 2 6t7 2h51q4 0 7-2t2-6q0-5 5-13 6-9 15-14l13-7 13-9q8-7 12-13 4-7 7-17t3-21zm103 51q0 56-28 103-28 48-75 75-47 28-103 28t-104-28q-47-27-75-75-27-47-27-103t27-103q28-48 75-75 47-28 104-28t103 28q47 27 75 75 27 47 27 103z"></path>
</symbol>
<symbol id="vjs-icon-info" viewBox="0 0 445 512">
<path d="M291 385v-43q0-4-2-6t-6-3h-26V196q0-4-2-6t-7-3h-86q-4 0-6 3t-2 6v43q0 4 2 6t6 2h26v86h-26q-4 0-6 3t-2 6v43q0 4 2 6t6 2h121q4 0 6-2t2-6zm-34-241v-42q0-4-2-7-3-2-7-2h-51q-4 0-7 2-2 3-2 7v42q0 4 2 7t7 2h51q4 0 7-2t2-7zm172 112q0 56-28 103-28 48-75 75-47 28-103 28t-104-28q-47-27-75-75-27-47-27-103t27-103q28-48 75-75 47-28 104-28t103 28q47 27 75 75 27 47 27 103z"></path>
</symbol>
<symbol id="vjs-icon-linkedin" viewBox="0 0 446 512">
<path d="M69 406h67V205H69v201zm72-263q-1-15-11-25-10-9-27-9-16 0-27 9-11 10-11 25t11 25q10 10 26 10h1q17 0 27-10t11-25zm169 263h67V291q0-45-21-67-21-23-56-23-39 0-61 34h1v-30h-67v201h67V294q0-11 2-16 4-10 13-18 9-7 22-7 33 0 33 46v107zm136-289v278q0 35-25 59t-59 25H84q-34 0-59-25T1 395V117q0-34 24-59t59-24h278q35 0 59 24t25 59z"></path>
</symbol>
<symbol id="vjs-icon-mirror1" viewBox="0 0 512 512">
<path d="M399 93h20v163h-20V93zM93 256h20v163H93V256zm102 61h224v41H195v51l-71-71 71-72v51zm122-122H93v-41h224v-51l71 71-71 72v-51z"></path>
</symbol>
<symbol id="vjs-icon-mirror2" viewBox="0 0 512 512">
<path d="M113 93H93v163h20V93zm306 163h-20v163h20V256zm-102 61H93v41h224v51l71-71-71-72v51zM195 195h224v-41H195v-51l-71 71 71 72v-51z"></path>
</symbol>
<symbol id="vjs-icon-mute" viewBox="0 0 512 512">
<path d="M341 254q0-25-13-46t-34-31v42l47 47v-12zm48 0q0 13-3 25t-8 25l29 28q9-17 14-37t6-41q0-31-11-58-10-27-27-49t-42-38q-25-15-53-22v39q20 7 38 19 17 12 30 29t20 37q7 20 7 43zM110 83l-25 24 90 90H85v114h76l95 94V278l81 80q-10 8-21 13t-22 10v39q19-5 37-13t33-21l38 38 25-24L110 83zm146 19-39 39 39 40v-79z"></path>
</symbol>
<symbol id="vjs-icon-pause" viewBox="0 0 512 512">
<path d="M133 400h82V112h-82v288zm164-288v288h82V112h-82z"></path>
</symbol>
<symbol id="vjs-icon-pinterest" viewBox="0 0 446 512">
<path d="M362 34q35 0 59 24t25 59v278q0 35-25 59t-59 25H152q25-36 32-61l15-61q6 12 21 20t33 8q52 0 85-43 34-43 34-108 0-24-11-47-10-23-28-40-17-18-44-28-26-11-57-11-30 0-56 8t-44 22q-19 14-32 32t-19 37q-6 19-6 39 0 29 11 52t34 32h7q3-2 4-6l4-18q2-6-3-12-14-18-14-43 0-44 30-75 30-30 78-30 43 0 67 23 25 24 25 61 0 49-20 83t-50 34q-18 0-28-13t-7-30q2-10 8-26l8-30q4-13 4-22 0-14-8-23-8-10-22-10-18 0-30 17-12 16-12 40 0 21 7 35l-29 120q-7 29-2 74H84q-34 0-59-25T1 395V117q0-34 24-59t59-24h278z"></path>
</symbol>
<symbol id="vjs-icon-pip" viewBox="0 0 512 512">
<path d="M393 99H122q-19 0-33 11t-13 28v236q0 16 13 27t33 12h271q19 0 31-12t12-27V138q0-16-12-28t-31-11zm13 280H111l-1-246h296v246zM263 260h121v99H263v-99z"></path>
</symbol>
<symbol id="vjs-icon-pip-full" viewBox="0 0 512 512">
<path d="M393 99H122q-19 0-33 11t-13 28v236q0 16 13 27t33 12h271q19 0 31-12t12-27V138q0-16-12-28t-31-11zm13 280H111l-1-246h296v246zM130 151h253v208H130V151z"></path>
</symbol>
<symbol id="vjs-icon-play" viewBox="0 0 512 512">
<path d="M137 105v303l238-152z"></path>
</symbol>
<symbol id="vjs-icon-related" viewBox="0 0 512 512">
<path d="M146 376v55q0 12-9 20t-19 8H26q-12 0-20-8t-8-20v-55q0-11 8-20t20-8h92q11 0 19 8t9 20zm0-147v55q0 11-9 19t-19 9H26q-12 0-20-9t-8-19v-55q0-12 8-20t20-8h92q11 0 19 8t9 20zm184 147v55q0 12-8 20t-20 8h-92q-11 0-19-8t-8-20v-55q0-11 8-20t19-8h92q12 0 20 8t8 20zM146 81v55q0 12-9 20t-19 8H26q-12 0-20-8t-8-20V81q0-11 8-19t20-8h92q11 0 19 8t9 19zm184 148v55q0 11-8 19t-20 9h-92q-11 0-19-9t-8-19v-55q0-12 8-20t19-8h92q12 0 20 8t8 20zm184 147v55q0 12-8 20t-19 8h-93q-11 0-19-8t-8-20v-55q0-11 8-20t19-8h93q11 0 19 8t8 20zM330 81v55q0 12-8 20t-20 8h-92q-11 0-19-8t-8-20V81q0-11 8-19t19-8h92q12 0 20 8t8 19zm184 148v55q0 11-8 19t-19 9h-93q-11 0-19-9t-8-19v-55q0-12 8-20t19-8h93q11 0 19 8t8 20zm0-148v55q0 12-8 20t-19 8h-93q-11 0-19-8t-8-20V81q0-11 8-19t19-8h93q11 0 19 8t8 19z"></path>
</symbol>
<symbol id="vjs-icon-replay" viewBox="0 0 512 512">
<path d="M256 155V87l-84 85 84 84v-67q21 0 39 7 19 9 32 22t22 32q8 19 8 40 0 20-8 39-8 18-22 32t-32 22q-18 8-39 8t-39-8q-19-8-32-22t-22-32q-8-19-8-39h-34q0 27 11 52t29 43 42 29q25 11 53 11t53-11q24-11 42-29t29-43 11-52q0-28-11-53t-29-42-42-29q-25-11-53-11z"></path>
</symbol>
<symbol id="vjs-icon-rewind5" viewBox="0 0 512 512">
<path d="m111 380 28-2q2 9 7 14 6 5 14 5 9 0 15-6 6-7 6-21 0-13-6-19-6-7-16-7-12 0-22 10l-22-3 14-73h75v25h-54l-4 24q9-4 19-4 19 0 32 13t13 33q0 18-10 31-15 19-40 19-21 0-33-10t-16-29zm337-226v256l-3 6c-2 2-4 3-7 3H310v-39h99V183H173v40c0 5-2 9-5 10s-8 1-12-2l-85-57c-3-1-5-3-6-7s-1-6 0-9l3-3 3-2 85-57c4-3 8-4 12-2s5 5 5 11v39h265c3 0 5 1 7 3s3 4 3 7z"></path>
</symbol>
<symbol id="vjs-icon-rewind10" viewBox="0 0 512 512">
<path d="M242 303q-6-9-15-15t-21-7q-11 1-21 7t-15 15q-6 10-10 22t-4 25 4 26 10 22q5 9 15 15t21 7q11-1 21-7t15-15q6-10 10-22t3-26-3-25-10-22zm-36 97q-12 0-21-15t-9-35 9-34 21-15 21 15 9 34-9 35-21 15zm-89 20V315l-10 10-14-14 27-26 3-2 4-1q4 0 7 3t3 6v129h-20zm331-266v256q0 3-3 6t-7 3H310v-39h99V183H173v39q0 8-5 11t-12-2l-85-57q-3-1-5-4t-2-7v-3l1-2 2-3 4-3 85-57q7-4 12-2t5 11v40h265q4 0 7 2t3 8z"></path>
</symbol>
<symbol id="vjs-icon-rewind20" viewBox="0 0 512 512">
<path d="M448 153v256c0 3-1 5-3 7s-4 3-7 3H310v-40h99V183H173v39c0 5-2 9-5 10s-8 2-12-1l-85-57-5-5-2-6v-3l1-3 2-3 4-2 85-57c4-3 8-4 12-2s5 5 5 10v40h265c3 0 5 1 7 3s3 4 3 7zM161 393v25H71q2-14 9-27 7-12 29-33 17-17 21-23 5-8 5-16 0-9-4-14-5-4-13-4t-13 5-5 16l-26-2q3-22 15-32t30-10q19 0 31 12t11 27q0 9-3 18-3 8-10 18l-17 17-16 16-5 7zm61-115q19 0 30 15 13 17 13 56 0 40-13 57-11 14-30 14-20 0-32-15-12-16-12-56 0-39 13-56 11-15 31-15zm0 23q-5 0-9 3-3 3-5 11-3 10-3 34t2 34q3 9 6 12 4 3 9 3t8-3q3-3 5-11 3-10 3-35t-2-33q-3-9-6-12-4-3-8-3z"></path>
</symbol>
<symbol id="vjs-icon-rewind30" viewBox="0 0 512 512">
<path d="M448 153v256c0 3-1 5-3 7s-4 3-7 3H310v-40h99V183H173v39c0 5-2 9-5 10s-8 2-12-1l-85-57-5-5-2-6v-3l1-3 2-3 4-2 85-57c4-3 8-4 12-2s5 5 5 10v40h265c3 0 5 1 7 3s3 4 3 7zM74 381l25-3q1 10 6 15t12 5q8 0 14-6 5-6 5-17 0-10-5-16t-13-6l-11 2 2-21q11 0 16-5 6-5 6-13 0-7-4-12t-11-4q-6 0-11 5t-6 14l-23-4q2-13 7-20 5-8 14-12 9-5 20-5 19 0 30 13 9 10 9 23 0 18-19 29 12 3 18 12 7 9 7 21 0 18-12 31t-32 13q-18 0-30-11t-14-28zm148-103q19 0 30 15 13 17 13 56 0 40-13 57-11 14-30 14-20 0-32-15-12-16-12-56 0-39 13-56 11-15 31-15zm0 23q-5 0-9 3-3 3-5 11-3 10-3 34t2 34q3 9 6 12 4 3 9 3t8-3q3-3 5-11 3-10 3-35t-2-33q-3-9-6-12-4-3-8-3z"></path>
</symbol>
<symbol id="vjs-icon-settings" viewBox="0 0 512 512">
<path d="M300 352v44q0 9-6 16t-16 7h-44q-9 0-16-7t-6-16v-44q0-9 6-16t16-6h44q9 0 16 6t6 16zm0-118v44q0 9-6 16t-16 6h-44q-9 0-16-6t-6-16v-44q0-9 6-16t16-6h44q9 0 16 6t6 16zm0-118v44q0 9-6 16t-16 6h-44q-9 0-16-6t-6-16v-44q0-9 6-16t16-7h44q9 0 16 7t6 16z"></path>
</symbol>
<symbol id="vjs-icon-share" viewBox="0 0 512 512">
<path d="M386 346q-12 0-23 4t-19 12l-155-90 2-7v-16q1-4-2-7l153-89q9 8 20 13t24 5q27 0 46-19t19-46-19-46-46-19q-27 0-46 19t-19 46l1 7 1 8-152 89q-9-8-21-13t-24-5q-26 0-45 19t-19 46 19 46 45 19q13 0 24-5t21-12l154 89-2 7v8q0 26 18 44t45 19q26 0 45-19t18-44q0-27-18-45t-45-18z"></path>
</symbol>
<symbol id="vjs-icon-snapshot" viewBox="0 0 512 512">
<path d="M265 203a80 80 0 1 0 0 160 80 80 0 0 0 0-160zm-31 26a61 61 0 0 1 92 47c-30-24-67-39-92-47zm209-97h-86l-12-36H167l-12 36H87c-20 0-44 15-44 35v213c0 20 24 36 44 36h356c19 0 26-16 26-36V167c0-20-7-35-26-35zM265 398a116 116 0 1 1 0-231 116 116 0 0 1 0 231zm169-195h-36v-36h36v36z"></path>
</symbol>
<symbol id="vjs-icon-expand" viewBox="0 0 446 512">
<path d="M59 408h38V105H59zm290-304v303h38V104zm-77 174-40 1-1-27 41-1v-57l77 71-77 72zm-95 2 41-1v-27l-41 1 1-57-81 70 81 70z"></path>
</symbol>
<symbol id="vjs-icon-expand-back" viewBox="0 0 446 512">
<path d="M146 408h43V105h-43zm112-303v302h42V105zm121 155 48-1v-28l-48 1v-64l-80 78 80 79zm-311-2H19v-27l48-1v-65l80 78-80 78z"></path>
</symbol>
<symbol id="vjs-icon-twitter" viewBox="0 0 446 512">
<path d="M372 173q-17 8-35 10 19-11 26-34-18 11-38 15-18-19-45-19-25 0-43 18t-18 43q0 8 2 14-37-2-70-19t-56-45q-8 15-8 31 0 33 26 50-13 0-29-7 0 22 15 39t35 21l-14 2-12-1q6 19 22 30 15 12 35 13-34 26-76 26l-14-1q43 27 93 27 33 0 61-10 28-11 49-28 20-17 35-39 14-23 21-47t7-49v-8q18-13 31-32zm74-56v278q0 35-25 59t-59 25H84q-34 0-59-25T1 395V117q0-34 24-59t59-24h278q35 0 59 24t25 59z"></path>
</symbol>
<symbol id="vjs-icon-volume3" viewBox="0 0 512 512">
<path d="M78 193v119h79l99 99V94l-99 99H78zm267 59q0-26-13-47t-36-33v160q22-11 36-32t13-48zM296 79v40q21 7 39 20 19 12 32 30t20 38q8 22 8 45t-8 45q-7 21-20 39t-32 30q-18 12-39 19v41q29-7 55-23 25-16 43-39t30-51 10-61-10-60-30-52-43-39q-26-16-55-22z"></path>
</symbol>
<symbol id="vjs-icon-volume2" viewBox="0 0 512 512">
<path d="M79 193v118h79l98 98V95l-98 98zm265 59c0-17-4-33-13-47s-21-24-36-32v158a89 89 0 0 0 49-79z"></path>
</symbol>
<symbol id="vjs-icon-brightness" viewBox="0 0 512 512">
<path d="M250 6c-4 2-8 7-9 11v38c0 33 0 34 2 37 4 5 7 7 13 7s10-2 13-7c2-3 2-4 2-40s0-37-2-40l-4-4c-3-3-11-4-15-2zM85 75c-5 1-9 6-10 11-3 8-2 9 26 37 21 21 26 25 29 26 11 3 22-8 19-19-1-3-5-8-25-28-28-28-30-30-39-27zm332 0-29 27c-20 20-24 25-25 28-3 11 8 22 19 19 4-1 9-5 29-25 26-26 28-30 27-37-2-10-12-16-21-12zm-175 56c-20 3-39 10-56 21-10 7-27 24-34 33-9 14-16 30-19 47a123 123 0 0 0 35 113 123 123 0 0 0 177-1 123 123 0 0 0 0-176c-19-18-38-29-62-35-8-2-33-3-41-2zm37 34c18 4 31 12 44 26a92 92 0 0 1 0 131c-10 9-14 13-25 18-15 8-30 11-47 10-24-1-43-10-61-27a92 92 0 0 1-26-46c-2-9-2-33 0-42 5-17 13-32 25-45a91 91 0 0 1 90-25zM14 242c-6 3-10 10-9 18 1 4 6 10 11 11l38 1c34-1 35-1 38-3 5-4 7-7 7-13s-2-9-7-13c-3-2-4-2-39-2-28-1-36 0-39 1zm408 0c-6 3-10 10-8 18 0 4 5 10 10 11l38 1c34-1 36-1 38-3 5-4 7-7 7-13s-2-9-7-13c-2-2-4-2-39-2-28-1-36 0-39 1zM129 364c-3 1-10 7-28 26-21 20-25 25-26 28-4 12 7 23 19 20 3-1 8-6 29-27s25-26 26-29c3-12-8-23-20-18zm244 0c-7 2-12 11-10 18 1 3 6 8 25 29 27 26 30 28 37 27 5-1 11-6 13-11 2-9 1-10-26-37l-26-25c-4-3-8-3-13-1zm-123 50c-4 2-8 7-9 11v38c0 33 0 34 2 37 4 5 7 7 13 7s10-2 13-7c2-3 2-4 2-40s0-37-2-40l-4-4c-3-3-11-3-15-2z"></path>
</symbol>
<symbol id="vjs-icon-chapters" viewBox="0 0 512 512">
<path d="M40 280h48v-48H40v48zm0 96h48v-48H40v48zm0-192h48v-48H40v48zm96 96h336v-48H136v48zm0 96h336v-48H136v48zm0-240v48h336v-48H136z"></path>
</symbol>
<symbol id="vjs-icon-contrast" viewBox="0 0 512 512">
<path d="M256 507a251 251 0 1 1 0-502 251 251 0 0 1 0 502zm7-467C155 41 39 132 39 255c0 104 114 217 218 218 107 1 221-111 219-216-2-103-104-217-213-217zm-7 373V99a157 157 0 1 1 0 314z"></path>
</symbol>
<symbol id="vjs-icon-filters" viewBox="0 0 512 512">
<path d="M339 394h165v27H339zm-111 0H8v27h220v83h28V339h-28zm83-221h28V8h-28v55H8v28h303zM421 63v28h83V63zM91 339h27V173H91v55H8v28h83zm110-83h303v-28H201zm138 165h165v28H339zm-83 0H8v28h248v55h27V339h-27zm82-248h28V8h-28v82H8v28h330zm83-83v28h83V90zM118 338h27V173h-27v83H8v27h110zm83-55h303v-27H201z"></path>
</symbol>
<symbol id="vjs-icon-playlist" viewBox="0 0 512 512">
<path d="M47 172h334v56H47v-56zm0-111h334v56H47V61zm0 223h223v56H47v-56zm279 0v167l139-84z"></path>
</symbol>
<symbol id="vjs-icon-big-replay" viewBox="0 0 512 512">
<path d="m327 142 32-72 49 131-120 22 30-64c-15-7-32-11-48-11-15-1-39 2-53 7s-39 21-50 32c-12 10-24 29-31 43-7 15-11 37-11 53-1 16 2 30 7 44s17 36 27 48c11 11 28 27 42 34s44 11 59 12c16 0 40-7 54-12a134 134 0 0 0 72-67l18 8a153 153 0 0 1-88 82 158 158 0 0 1-212-152c1-21 6-41 15-60a154 154 0 0 1 87-82 158 158 0 0 1 121 4z"></path>
</symbol>
<symbol id="vjs-icon-saturation" viewBox="0 0 512 512">
<path d="M256 5a251 251 0 1 0 0 502 251 251 0 0 0 0-502zm0 28c115 0 221 107 221 222 0 0-43-20-117-20-62 0-104 21-104 21s-63 21-105 21c-73 0-116-25-116-25C35 136 141 33 256 33z"></path>
</symbol>
<symbol id="vjs-icon-big-play" viewBox="0 0 512 512">
<path d="M169 106v303l238-152z"></path>
</symbol>
</defs>
</svg>
