<?xml version="1.0" standalone="no"?>
<!DOCTYPE svg PUBLIC "-//W3C//DTD SVG 1.1//EN" "http://www.w3.org/Graphics/SVG/1.1/DTD/svg11.dtd" >
<svg xmlns="http://www.w3.org/2000/svg">
<metadata>Generated by IcoMoon</metadata>
<defs>
<font id="nuevo" horiz-adv-x="1024">
<font-face units-per-em="1024" ascent="819" descent="-205" />
<missing-glyph horiz-adv-x="1024" />
<glyph unicode="&#x20;" d="" />
<glyph unicode="&#xe900;" glyph-name="uniE900" d="M813.992 730.507h-598q-41 0-70.5-25t-29.5-61v-518q0-36 29.5-61.5t70.5-25.5h598q41 0 67.5 25.5t26.5 61.5v518q0 36-26.5 61t-67.5 25zM842.992 115.507h-650l-2 540h652v-540zM233.992 617.507h558v-460h-558v460z" />
<glyph unicode="&#xe901;" glyph-name="uniE901" d="M482.995 285.773q-12 20-32 32.5t-44 13.5v0q-24-1-44-13.5t-32-31.5v-1q-13-21-20-46t-7-53q0-27 7-52.5t21-47.5l-1 1q12-20 32-32t44-13v0q24 1 44 13t32 32v0q13 21 20.5 46.5t7.5 52.5q0 28-7.5 53t-21.5 47l1-1zM406.995 83.773q-25 0-43.5 30.5t-18.5 72.5q0 43 18.5 73.5t43.5 30.5 43.5-30.5 18.5-73.5q0-42-18.5-72.5t-43.5-30.5zM220.995 42.773v218l-20-20-30 29 56 55q3 3 6.5 4.5t8.5 1.5q8 0 14-6t6-14v0 0 0-269l-41 1zM914.995 599.773v-536q0-9-6-15t-14-6h-269v83h206v413h-495v-83q0-17-10-22.5t-24 4.5l-179 119q-7 3-11 9.5t-4 13.5q0 3 1 6l2 6v-1q2 4 5 7t6 5h1l179 119q14 10 24 4.5t10-22.5v-83h557q9 0 15-6t6-15v0 0z" />
<glyph unicode="&#xe902;" glyph-name="uniE902" d="M109.025 599.272v-536q0-9 6-15t15-6h268v83h-206v413h496v-83q0-17 10-22.5t24 4.5l179 119q9 5 12.5 15t-1.5 19q-1 4-4 7t-7 5l-179 119q-14 10-24 4.5t-10-22.5v-83h-558q-8 0-14.5-6t-6.5-15v0zM801.025 286.272q-11 20-31.5 32t-43.5 13q-24-1-44-13t-32-32q-28-46-28-99t28-99q12-20 32-32.5t44-13.5q23 1 43.5 13.5t31.5 32.5q28 46 28 99t-28 99zM726.025 84.272q-25 0-43.5 30.5t-18.5 72.5 18.5 72.5 43.5 30.5 43-30.5 18-72.5-18-72.5-43-30.5zM540.025 42.272v219l-21-21-29 29 56 56q10 10 22.5 4.5t12.5-18.5v-269h-41z" />
<glyph unicode="&#xe903;" glyph-name="uniE903" d="M161.496 34.508l497 350-497 351v-701zM745.496 735.508v-701h117v701h-117z" />
<glyph unicode="&#xe904;" glyph-name="uniE904" d="M916 789.002h-808.001q-36.552 0-63.004-26.452t-26.452-63.966v-133.704h89.458v133.704h808.001v-627.162h-314.544v-90.42h314.544q36.552 0 63.004 26.452t26.452 63.966v627.162q0 37.514-26.452 63.966t-63.004 26.452v0zM18.542 115.668v-134.666h134.666q0 57.714-38.958 96.19t-95.71 38.476zM18.542 295.546v-90.42q47.134 0 88.496-17.314 40.4-17.314 70.7-47.614t47.614-70.7q17.314-41.362 17.314-88.496h89.458q0 65.41-24.048 123.124t-66.852 100.038-99.558 66.372q-57.714 25.010-123.124 25.010v0zM18.542 474.46v-89.458q83.686 0 157.752-31.742 73.104-31.742 127.934-86.090t86.572-128.414q31.742-73.104 31.742-157.752h89.458q0 102.924-38.476 192.382-38.476 90.42-105.328 157.272t-157.272 105.328q-89.458 38.476-192.382 38.476v0z" />
<glyph unicode="&#xe905;" glyph-name="uniE905" d="M19.047 116.162v-134.66h134.66q0 55.788-39.436 95.224t-95.224 39.436v0zM19.047 295.068v-89.454q46.17 0 87.53-17.314 40.398-17.314 70.696-48.094t48.574-71.178q17.314-41.36 17.314-87.53h89.454q0 65.406-24.046 122.156-25.008 57.712-67.812 100.034t-99.552 67.33q-56.75 24.046-122.156 24.046v0zM826.047 608.636h-628.095v-73.102q67.33-21.16 126.004-57.712t106.766-84.644 84.644-106.766 57.712-125.042h252.97v447.266zM19.047 474.936v-90.414q83.682 0 156.784-30.78 74.064-31.742 128.408-86.568t86.086-128.89q31.742-73.102 31.742-156.784h89.454q0 101.958-38.474 192.372-38.474 89.454-105.324 156.302t-157.264 105.324q-89.454 39.436-191.41 39.436v0zM915.501 788.504h-807.001q-36.55 0-63.002-26.452t-26.452-63.002v-134.66h89.454v134.66h807.001v-628.095h-313.566v-89.454h313.566q36.55 0 63.002 26.452t26.452 63.002v628.095q0 36.55-26.452 63.002t-63.002 26.452v0z" />
<glyph unicode="&#xe906;" glyph-name="theater" d="M131.219 40.001h90v701.997h-90zM802.79 742.001v-701.997h90v701.997zM625.17 340.108l-92.541-1.799-3.116 62.975 95.657 2.36v131.175l179.741-165.26-179.741-165.26zM405.436 335.41l95.872 1.608-0.73 62.266-95.142-1.772 1.967 132.163-188.058-161.955 188.058-161.955z" />
<glyph unicode="&#xe907;" glyph-name="theater-min" d="M350.724 72.001h90v637.997h-90zM585.178 710.001v-637.997h90v637.997zM839.886 383.065l102.504 1.721v57.826l-102.504-1.721v135.606l-167.496-165 167.496-165zM184.796 386.345h-103.172l1.763 57.639 99.65 1.73v137.429l168.587-165-168.587-165z" />
<glyph unicode="&#xe908;" glyph-name="download-button2" d="M831.041 337.494v-208.612h-638.11v208.612h-122.645v-269.935c0-33.846 27.419-61.293 61.411-61.293h760.573c33.965 0 61.411 27.419 61.411 61.293v269.935zM500.758 236.324l-175.589 212.174c0 0-22.415 10.032 2.252 25.223h98.946v308.867c0 0-3.932 15.050 18.733 15.050h139.276c16.329 0 15.961-12.674 15.961-12.674v-304.873h91.331c35.153 0 8.681-26.411 8.681-26.411s-149.393-198.317-170.228-219.121c-14.988-15.078-29.365 1.765-29.365 1.765z" />
<glyph unicode="&#xe918;" glyph-name="rewind2" d="M915 573.774v-537c0-5.333-2-10-6-14s-9-6-15-6h-495.041v79.932l433.041 3.068v412h-495v-82c0-11.333-3.5-18.833-10.5-22.5s-15.167-2.5-24.5 3.5l-179 120c-4 2-7.333 5-10 9s-4 8.667-4 14c0 2 0.333 4 1 6s1.333 3.667 2 5v0c1.333 2.667 2.833 5 4.5 7s3.833 3.667 6.5 5v0l179 119c9.333 6.667 17.5 8.167 24.5 4.5s10.5-11.167 10.5-22.5v-83h557c6 0 11-2 15-6s6-9 6-15z" />
<glyph unicode="&#xe919;" glyph-name="forward2" d="M109.031 574.214v-537c0-5.333 2-10 6-14s9-6 15-6h517.816l-3.71 82h-452.106v413h495v-83c0-11.333 3.5-18.667 10.5-22s15.167-2 24.5 4l179 120c6 2.667 10.167 7.333 12.5 14s1.833 13.333-1.5 20c-1.333 2.667-3 5-5 7s-4 3.333-6 4l-179 120c-9.333 6-17.5 7.167-24.5 3.5s-10.5-11.167-10.5-22.5v-82h-557c-6 0-11-2.167-15-6.5s-6-9.167-6-14.5z" />
<glyph unicode="&#xe924;" glyph-name="camera4" d="M531.515 482.334c-97.191 0-175.961-78.809-175.961-176s78.771-176 175.961-176c97.152 0 175.961 78.809 175.961 176s-78.809 176-175.961 176zM463.385 424.333c20.103 11.693 43.219 18.892 68.172 18.892 70.048 0 127.347-53.113 135.286-121.127-67.661 52.096-147.647 84.244-203.456 102.239zM922.668 638.779h-189.063l-26.048 78.221h-391.114l-26.048-78.221h-149.952c-43.18 0-97.779-35.045-97.779-78.221v-469.336c0-43.18 54.599-78.221 97.779-78.221h782.225c43.18 0 58.668 35.045 58.668 78.221v469.336c0 43.18-15.488 78.221-58.668 78.221zM531.557 52.111c-140.409 0-254.223 113.813-254.223 254.223s113.813 254.223 254.223 254.223 254.223-113.813 254.223-254.223-113.813-254.223-254.223-254.223zM903.114 482.334h-78.221v78.221h78.221v-78.221z" />
<glyph unicode="&#xe92c;" glyph-name="airplay" d="M865.66 693q31.312 0 55.26-23.944t23.944-55.26v-471.544q0-31.312-23.944-54.343t-55.26-23.024h-156.568v77.364h156.568v471.544h-707.32v-471.544h156.568v-77.364h-156.568q-31.312 0-55.26 23.024t-23.944 54.343v471.544q0 31.312 23.944 55.26t55.26 23.944h707.32zM276.228-53l235.772 235.772 235.772-235.772h-471.544z" />
<glyph unicode="&#xe9b3;" glyph-name="uniE9B3" d="M896.499 433.501h-76q-8 50-31 94-22 44-56.5 78.5t-78.5 56.5q-44 23-94 31v76h-97v-76q-50-8-94-31-44-22-78.5-56.5t-56.5-78.5q-23-44-31-94h-76v-97h76q8-50 31-94 22-44 56.5-78.5t78.5-56.5q44-23 94-31v-76h97v76q50 8 94 31 44 22 78.5 56.5t56.5 78.5q23 44 31 94h76v97zM722.499 433.501h-75q-10 30-33.5 53.5t-53.5 33.5v75q60-13 104.5-57.5t57.5-104.5v0zM512.499 336.501q-20 0-34.5 14.5t-14.5 34.5q0 19 14.5 33.5t33.5 14.5q20 0 34.5-14.5t14.5-33.5q0-20-14.5-34.5t-33.5-14.5zM463.499 595.501v-75q-30-10-53.5-33.5t-33.5-53.5h-75q13 60 57.5 104.5t104.5 57.5zM301.499 336.501h75q10-30 33.5-53.5t53.5-33.5v-75q-60 13-104.5 57.5t-57.5 104.5zM560.499 174.501v75q30 10 53.5 33.5t33.5 53.5h75q-13-60-57.5-104.5t-104.5-57.5z" />
<glyph unicode="&#xea45;" glyph-name="uniEA45" d="M936.020 869.995h60.976v-485h-60.976v485zM26.992 384.991h60.976v-485h-60.976v485zM330 202.999h666.994v-121.952h-666.994v-151.036l-212.012 212.012 212.012 212.012v-151.036zM693.988 566.047h-666.994v121.952h666.994v151.036l212.012-212.012-212.012-212.012v151.036z" />
<glyph unicode="&#xea46;" glyph-name="uniEA46" d="M87.936 870.498h-60.98v-485.032h60.98v485.032zM997.019 385.466h-60.98v-485.969h60.98v485.969zM693.991 203.462h-667.036v-121.96h667.036v-151.044l212.024 212.024-212.024 212.024v-151.044zM329.983 566.53h667.036v121.96h-667.036v151.044l-212.024-212.024 212.024-212.024v151.044z" />
<glyph unicode="&#xf00a;" glyph-name="uniF00A" d="M291.49 144.997v-110q0-23-16.5-39t-39.5-16h-184q-23 0-39 16t-16 39v110q0 23 16 39.5t39 16.5h184q23 0 39.5-16.5t16.5-39.5zM291.49 439.997v-110q0-23-16.5-39.5t-39.5-16.5h-184q-23 0-39 16.5t-16 39.5v110q0 23 16 39t39 16h184q23 0 39.5-16t16.5-39zM659.49 144.997v-110q0-23-16.5-39t-38.5-16h-185q-22 0-38.5 16t-16.5 39v110q0 23 16.5 39.5t38.5 16.5h185q22 0 38.5-16.5t16.5-39.5zM291.49 734.997v-111q0-23-16.5-39t-39.5-16h-184q-23 0-39 16t-16 39v111q0 22 16 38.5t39 16.5h184q23 0 39.5-16.5t16.5-38.5v0zM659.49 439.997v-110q0-23-16.5-39.5t-38.5-16.5h-185q-22 0-38.5 16.5t-16.5 39.5v110q0 23 16.5 39t38.5 16h185q22 0 38.5-16t16.5-39zM1027.49 144.997v-110q0-23-16-39t-39-16h-184q-23 0-39.5 16t-16.5 39v110q0 23 16.5 39.5t39.5 16.5h184q23 0 39-16.5t16-39.5zM659.49 734.997v-111q0-23-16.5-39t-38.5-16h-185q-22 0-38.5 16t-16.5 39v111q0 22 16.5 38.5t38.5 16.5h185q22 0 38.5-16.5t16.5-38.5v0zM1027.49 439.997v-110q0-23-16-39.5t-39-16.5h-184q-23 0-39.5 16.5t-16.5 39.5v110q0 23 16.5 39t39.5 16h184q23 0 39-16t16-39zM1027.49 734.997v-111q0-23-16-39t-39-16h-184q-23 0-39.5 16t-16.5 39v111q0 22 16.5 38.5t39.5 16.5h184q23 0 39-16.5t16-38.5v0z" />
<glyph unicode="&#xf00c;" glyph-name="uniF00C" d="M957.501 593.505q0-11-4-21.5t-12-17.5l-495-495q-7-8-17.5-12t-21.5-4q-10 0-20.5 4t-18.5 12l-286 286q-8 8-12 18.5t-4 21.5q0 10 4 20.5t12 18.5l78 78q8 8 18 12t21 4 21-4 18-12l169-170 378 378q8 8 18 12t21 4 21-4 18-12l78-78q8-8 12-18t4-21v0z" />
<glyph unicode="&#xf00d;" glyph-name="uniF00D" horiz-adv-x="818" d="M753 175.997q0-24-16-40l-79-79q-16-16-40-16-23 0-39 16l-170 171-170-171q-16-16-39-16-24 0-40 16l-79 79q-16 16-16 40 0 23 16 39l171 170-171 170q-16 16-16 39 0 24 16 40l79 79q16 16 40 16 23 0 39-16l170-171 170 171q16 16 39 16 24 0 40-16l79-79q16-16 16-40 0-23-16-39l-171-170 171-170q16-16 16-39z" />
<glyph unicode="&#xf027;" glyph-name="uniF027" horiz-adv-x="669" d="M445.999 699.504v-629q0-15-11-26t-26-11-26 11l-193 193h-151q-15 0-26 11t-11 26v221q0 15 11 26t26 11h151l193 193q11 11 26 11t26-11 11-26v0zM666.999 384.504q0-43-24-81-25-38-65-54-6-3-15-3-15 0-26 11-11 10-11 26 0 12 7 20 7 9 17 15t20 13 17 21q6 13 6 32 0 20-6 33-7 14-17 21t-20 13-17 15q-7 8-7 20 0 16 11 26 11 11 26 11 9 0 15-3 40-15 65-53 24-39 24-83v0z" />
<glyph unicode="&#xf053;" glyph-name="uniF053" horiz-adv-x="781" d="M678.999 692.5l-307-307 307-308q11-11 11-26t-11-26l-96-96q-11-11-26-11t-26 11l-429 429q-11 11-11 27 0 15 11 26l429 429q11 11 26 11t26-11l96-96q11-11 11-26t-11-26v0z" />
<glyph unicode="&#xf054;" glyph-name="uniF054" horiz-adv-x="708" d="M642.997 358.499l-430-429q-11-11-26-11t-26 11l-96 96q-11 11-11 26t11 26l307 308-307 307q-11 11-11 26t11 26l96 96q11 11 26 11t26-11l430-429q11-11 11-26 0-16-11-27v0z" />
<glyph unicode="&#xf059;" glyph-name="uniF059" horiz-adv-x="889" d="M518.497 107.504v111q0 8-5 13-6 6-14 6h-111q-8 0-13-6-5-5-5-13v-111q0-8 5-13t13-5h111q8 0 14 5 5 5 5 13zM666.497 495.504q0 51-32 95-32 43-80 67-48 23-99 23-140 0-214-123-8-14 5-24l76-58q4-3 11-3 9 0 14 7 31 39 50 53 20 14 50 14 28 0 49-15 22-15 22-34 0-22-12-36-11-13-39-26-36-16-67-50-30-33-30-72v-21q0-8 5-13t13-5h111q8 0 14 5 5 5 5 13 0 11 12 29 13 17 32 28 18 11 28 17t27 20q16 14 25 28 9 13 17 35 7 21 7 46v0zM888.497 385.504q0-121-60-223-59-102-161-162-102-59-223-59t-223 59q-102 60-161 162-60 102-60 223 0 120 60 222 59 102 161 162 102 59 223 59t223-59q102-60 161-162 60-102 60-222v0z" />
<glyph unicode="&#xf05a;" glyph-name="uniF05A" horiz-adv-x="889" d="M592.497 107.504v93q0 8-5 13-6 5-14 5h-55v296q0 8-5 13-6 5-14 5h-184q-9 0-14-5t-5-13v-93q0-8 5-13t14-5h55v-185h-55q-9 0-14-5t-5-13v-93q0-8 5-13t14-5h258q8 0 14 5 5 5 5 13v0zM518.497 625.504v92q0 8-5 14-6 5-14 5h-111q-8 0-13-5-5-6-5-14v-92q0-8 5-13 5-6 13-6h111q8 0 14 6 5 5 5 13v0zM888.497 385.504q0-121-60-223-59-102-161-162-102-59-223-59t-223 59q-102 60-161 162-60 102-60 223 0 120 60 222 59 102 161 162 102 59 223 59t223-59q102-60 161-162 60-102 60-222v0z" />
<glyph unicode="&#xf065;" glyph-name="uniF065" horiz-adv-x="889" d="M436.497 292.504q0-7-5-13l-192-192 83-83q11-11 11-26t-11-26-26-11h-259q-15 0-26 11t-11 26v259q0 15 11 26t26 11 26-11l83-84 192 192q6 6 14 6 7 0 13-6l66-66q5-5 5-13v0zM888.497 791.504v-259q0-15-11-26t-26-11-26 11l-84 84-191-192q-6-6-14-6-7 0-13 6l-66 66q-6 5-6 13 0 7 6 13l192 192-83 83q-11 11-11 26t11 26 26 11h259q15 0 26-11t11-26v0z" />
<glyph unicode="&#xf066;" glyph-name="uniF066" horiz-adv-x="889" d="M444.497 348.504v-259q0-15-11-26t-26-11-26 11l-83 83-192-192q-6-6-13-6-8 0-14 6l-65 66q-6 6-6 13 0 8 6 14l191 191-83 84q-11 11-11 26t11 26 26 11h259q15 0 26-11t11-26v0zM880.497 736.504q0-8-6-14l-191-191 83-84q11-10 11-26 0-15-11-25-11-11-26-11h-259q-15 0-26 11-11 10-11 25v259q0 15 11 26t26 11 26-11l83-83 192 192q6 6 13 6 8 0 13-6l66-66q6-6 6-13v0z" />
<glyph unicode="&#xf081;" glyph-name="uniF081" horiz-adv-x="891" d="M741.997 550.501q-33-15-70-20 39 23 54 68-38-22-78-30-35 38-89 38-50 0-85-35-36-36-36-86 0-17 3-28-75 4-140 38-66 33-111 89-17-29-17-61 0-66 53-101-28 0-58 15v-1q0-44 29-78 29-33 71-42-17-4-30-4-7 0-22 2 12-36 43-60t70-24q-67-52-151-52-15 0-29 1 86-54 187-54 64 0 121 20 57 21 97 55 41 35 70 80t43 93q15 49 15 98 0 10-1 16 36 26 61 63v0zM889.997 662.501v-556q0-68-49-117t-118-49h-555q-69 0-118 49t-49 117v556q0 69 49 118t118 49h555q69 0 118-49t49-118v0z" />
<glyph unicode="&#xf082;" glyph-name="uniF082" horiz-adv-x="891" d="M722.997 829.501q69 0 118-49t49-118v-556q0-68-49-117t-118-49h-109v344h116l17 134h-133v86q0 32 14 49 14 16 53 16h71v120q-37 5-103 5-79 0-126-46t-47-131v-99h-116v-134h116v-344h-308q-69 0-118 49t-49 117v556q0 69 49 118t118 49h555z" />
<glyph unicode="&#xf08c;" glyph-name="uniF08C" horiz-adv-x="891" d="M137.997 84.501h134v402h-134v-402zM280.997 610.501q-1 30-21 50-21 19-54 19-34 0-55-19-21-20-21-50t21-50q20-20 53-20h1q34 0 55 20t21 50v0zM618.997 84.501h134v231q0 89-42 135-43 45-112 45-79 0-121-67h1v58h-134q2-38 0-402h134v225q0 22 4 32 9 21 26 35t43 14q67 0 67-91v-215zM889.997 662.501v-556q0-68-49-117t-118-49h-555q-69 0-118 49t-49 117v556q0 69 49 118t118 49h555q69 0 118-49t49-118v0z" />
<glyph unicode="&#xf0d3;" glyph-name="uniF0D3" horiz-adv-x="891" d="M722.997 829.501q69 0 118-49t49-118v-556q0-68-49-117t-118-49h-419q49 70 62 121 5 20 31 121 12-22 42-39 31-16 65-16 105 0 172 86 66 85 66 216 0 48-20 94-21 45-56 80-36 35-89 56-52 21-114 21-60 0-112-16-53-16-89-44t-62-64q-26-35-38-74-13-38-13-76 0-59 23-105 23-45 67-63 8-3 14 0t8 11q6 25 9 35 4 13-6 24-29 36-29 87 0 87 60 149 60 61 156 61 86 0 135-47 48-47 48-121 0-97-39-166-39-68-100-68-35 0-56 25-22 25-14 60 5 20 16 54 10 33 17 59 6 25 6 43 0 28-15 47-16 19-44 19-35 0-60-33t-25-81q0-41 14-70l-56-239q-14-58-4-147h-106q-69 0-118 49t-49 117v556q0 69 49 118t118 49h555z" />
<glyph unicode="&#xf101;" glyph-name="uniF101" d="M273.999 687.499v-605l476 303z" />
<glyph unicode="&#xf103;" glyph-name="uniF103" d="M252.999 82.499h173v605h-173v-605zM597.999 687.499v-605h173v605h-173z" />
<glyph unicode="&#xf104;" glyph-name="uniF104" d="M705.997 385.002q0 57-30 103.5t-78 70.5v-95l107-106q1 6 1 13v14zM814.997 385.002q0-30-6.5-58.5t-17.5-55.5l66-65q21 40 32.5 85.5t11.5 93.5q0 70-23 132t-63.5 112-95.5 85q-56 35-121 50v-89q47-14 87-42 40-27 68.5-65t44.5-85q17-46 17-98v0zM177.997 774.002l-55-55 204-204h-204v-259h173l216-216v290l184-184q-22-16-46.5-29.5t-51.5-21.5v-89q45 10 85.5 30t74.5 48l88-88 55 55-723 723zM511.997 731.002l-90-90 90-91v181z" />
<glyph unicode="&#xf107;" glyph-name="uniF107" d="M122.997 515.002v-259h173l216-216v691l-216-216h-173zM705.997 385.002q0 57-30 103.5t-78 70.5v-348q48 24 78 70.5t30 103.5zM597.997 764.002v-89q47-14 87-42 40-27 68.5-65t44.5-85q17-46 17-98 0-51-17-98-16-46-44.5-84t-68.5-66-87-41v-90q65 15 121 50 55 35 95.5 85t63.5 112q23 63 23 132 0 70-23 132t-63.5 112-95.5 85q-56 36-121 50z" />
<glyph unicode="&#xf10a;" glyph-name="uniF10A" d="M813.992 730.493h-598q-41 0-70.5-25t-29.5-61v-519q0-36 29.5-61t70.5-25h598q41 0 67.5 25t26.5 61v519q0 36-26.5 61t-67.5 25v0zM842.992 114.493h-650l-2 540h652v-540zM527.992 375.493h266v-218h-266v218z" />
<glyph unicode="&#xf10c;" glyph-name="uniF10C" d="M857.999 730.499h-692q-35 0-60.5-25t-25.5-61v-519q0-36 25.5-61t60.5-25h692q36 0 61 25t25 61v519q0 36-25 61t-61 25zM165.999 385.499h173v-87h-173v87zM597.999 125.499h-432v87h432v-87zM857.999 125.499h-173v87h173v-87zM857.999 298.499h-432v87h432v-87z" />
<glyph unicode="&#xf10d;" glyph-name="uniF10D" d="M814.999 730.499h-605q-36 0-61.5-25t-25.5-61v-519q0-36 25.5-61t61.5-25h605q35 0 60.5 25t25.5 61v519q0 36-25.5 61t-60.5 25zM468.999 428.499h-65v21h-86v-129h86v21h65v-43q0-18-12.5-30.5t-30.5-12.5h-130q-18 0-30.5 12.5t-12.5 30.5v173q0 18 12.5 30.5t30.5 12.5h130q18 0 30.5-12.5t12.5-30.5v-43zM770.999 428.499h-65v21h-86v-129h86v21h65v-43q0-18-12.5-30.5t-30.5-12.5h-130q-18 0-30.5 12.5t-12.5 30.5v173q0 18 12.5 30.5t30.5 12.5h130q18 0 30.5-12.5t12.5-30.5v-43z" />
<glyph unicode="&#xf10e;" glyph-name="uniF10E" d="M122.999 341.499h87v87h-87v-87zM122.999 168.499h87v87h-87v-87zM122.999 514.499h87v87h-87v-87zM295.999 341.499h605v87h-605v-87zM295.999 168.499h605v87h-605v-87zM295.999 601.499v-87h605v87h-605z" />
<glyph unicode="&#xf10f;" glyph-name="uniF10F" d="M770.999 206.499q-24 0-46-9t-39-24l-308 179q2 8 3 15.5t1 15.5q0 7-1 15t-3 15l305 178q17-17 40-26t48-9q54 0 92 38t38 91q0 54-38 92t-92 38q-53 0-91-38t-38-92q0-8 1-15.5t3-14.5l-305-178q-17 16-40 25.5t-48 9.5q-54 0-92-38t-38-91q0-54 38-92t92-38q25 0 48 9.5t40 25.5l308-180q-2-6-3-13.5t-1-14.5q0-52 37-89t89-37 89 37 37 89-37 89-89 37v0z" />
<glyph unicode="&#xf110;" glyph-name="uniF110" d="M820.999 344.499l2 20t1 21q0 10-1 20l-2 20 88 69q6 5 7.5 12.5t-2.5 14.5l-83 144q-4 6-11.5 8.5t-14.5 0.5l-103-42q-16 12-33.5 22.5t-37.5 18.5l-15 110q-2 7-7.5 12t-13.5 5h-166q-8 0-14-5t-7-12l-15-110q-20-8-37.5-18.5t-33.5-22.5l-103 42q-7 2-14.5-0.5t-11.5-8.5l-83-144q-4-7-2.5-14.5t7.5-12.5l88-69-2-20t-1-20q0-11 1-21l2-20-88-69q-6-5-7.5-12.5t2.5-14.5l83-144q4-6 11.5-8.5t14.5-0.5l103 42q16-12 33.5-22.5t37.5-18.5l15-110q1-7 7-12t14-5h166q8 0 13.5 5t7.5 12l15 110q19 8 37 18.5t34 22.5l103-42q7-2 14.5 0.5t11.5 8.5l83 144q4 7 2.5 14.5t-7.5 12.5l-88 69zM511.999 239.499q-60 0-103 42.5t-43 103.5q0 60 43 102.5t103 42.5 102.5-42.5 42.5-102.5q0-61-42.5-103.5t-102.5-42.5z" />
<glyph unicode="&#xf115;" glyph-name="uniF115" d="M511.999 817.509q-90 0-168-34-79-34-137.5-93t-92.5-137q-34-79-34-168 0-90 34-169 34-78 92.5-137t137.5-93q78-34 168-34t168 34q79 34 137.5 93t92.5 137q34 79 34 169 0 89-34 168-34 78-92.5 137t-137.5 93q-78 34-168 34v0zM727.999 230.509l-61-62-155 155-155-155-61 62 155 155-155 154 61 62 155-155 155 155 61-62-155-154 155-155z" />
<glyph unicode="&#xf116;" glyph-name="uniF116" d="M511.999 644.509v173l-216-216 216-216v172q54 0 101-20t82.5-55.5 55.5-82.5 20-101-20-101-55.5-82-82.5-56q-47-20-101-20t-101 20q-47 21-82.5 56t-55.5 82-20 101h-87q0-72 27-135 28-62 74.5-109t109.5-74q63-28 135-28t135 28q63 27 109.5 74t74.5 109q27 63 27 135t-27 135q-28 63-74.5 109.5t-109.5 74.5q-63 27-135 27v0z" />
<glyph unicode="&#xf11d;" glyph-name="uniF11D" d="M448.999 164.499v443q77 1 136-2t103-33q41-30 68.5-85t22.5-129q-7-77-58-134.5t-124-64.5q-37-3-91.5-1.5l-54.5 1.5-1 1.5t-1 3.5v0zM547.999 275.499q48-2 79 23t36 69q6 59-28 93t-90 30v-210q0-2 1-3l2-2zM765.999 164.499q21-5 30 11.5t17 32.5q20 34 33 77.5t13 93.5q0 73-23 126t-49 89h-17q-1-5 2-10.5t5-9.5q20-36 36-85t16-106q0-66-18.5-120.5t-44.5-98.5v0zM849.999 164.499q20-5 29 11.5t18 32.5q20 34 32.5 77.5t13.5 93.5q0 73-23 126t-49 89h-18q-1-5 2.5-10.5t5.5-9.5q20-36 36-85t16-106q0-66-18.5-120.5t-44.5-98.5v0zM932.999 164.499q21-5 30 11.5t17 32.5q20 34 33 77.5t13 93.5q0 73-23 126t-49 89h-17q-1-5 2-10.5t5-9.5q20-36 36-85t16-106q0-66-18.5-120.5t-44.5-98.5v0zM-2.001 161.499h138l38 58h130v-58h99v451h-120q-4-7-49-79-45-71-97.5-154t-95.5-150l-43-68zM306.999 455.499v-144l-82 1 82 143z" />
<glyph unicode="&#xf11e;" glyph-name="uniF11E" d="M511.999 779.499q-77 0-145-29-68-30-119-80.5t-80-118.5q-30-68-30-146v-290q0-52 36.5-88.5t88.5-36.5h124v332h-166v83q0 60 23 113t62.5 92.5 92.5 62.5 113 23 113-23 92.5-62.5 62.5-92.5 23-113v-83h-166v-332h124q52 0 88.5 36.5t36.5 88.5v290q0 78-30 146-29 68-80 118.5t-119 80.5q-68 29-145 29v0z" />
<glyph unicode="&#xf128;" glyph-name="help" horiz-adv-x="636" d="M401.426 179.001v-137q0-9-6.5-16t-16.5-7h-137q-9 0-16 7t-7 16v137q0 10 7 16.5t16 6.5h137q10 0 16.5-6.5t6.5-16.5zM582.426 522.001q0-81-43.5-119.5t-84.5-60.5q-25-15-40-39t-15-37v0q0-9-6.5-18t-16.5-9h-137q-10 0-15.5 11t-5.5 21v26q0 51 40.5 92.5t78.5 58.5q33 15 48 31.5t15 44.5q0 24-27 42t-61 18q-20 0-36.5-5t-25.5-11q-11-8-23.5-21t-37.5-45q-4-4-8.5-6.5t-9.5-2.5q-4 0-7.5 1t-7.5 3l-93 72q-8 5-9.5 13.5t3.5 16.5q46 77 112 114.5t153 37.5q46 0 93-17 46-17 83-48t61-73q23-41 23-91v0z" />
</font>
</defs>
</svg>
