<svg xmlns="http://www.w3.org/2000/svg">
<defs>
<symbol id="vjs-icon-pip-full" viewBox="0 0 512 512">
<path d=M407 83.3H108q-20.5 0-35.3 12.5T58 126.3v259q0 18 14.8 30.7t35.2 12.8h299q20.5 0 33.8-12.8t13.2-30.8v-259q0-18-13.3-30.5T407 83.3zm14.5 307.4h-325l-1-270h326v270zM117 139.8h279v230H117v-230z"></path>
</symbol>
<symbol id="vjs-icon-forward5" viewBox="0 0 512 512">
<path d="M302.8 426.3 333 423c.9 6.9 3.5 12.3 7.7 16.4a21 21 0 0 0 30.9-1.8c4.4-5.2 6.6-13 6.6-23.4 0-9.7-2.2-17-6.6-21.8-4.3-5-10-7.4-17-7.4a31 31 0 0 0-23.5 11.6l-24.7-3.6 15.6-82.7h80.5V339h-57.4l-4.8 27a46 46 0 0 1 20.8-5c13.5 0 25 4.8 34.3 14.7s14.1 22.5 14.1 38.2c0 13-3.8 24.7-11.4 35a50.4 50.4 0 0 1-43 21c-14.6 0-26.6-4-35.8-11.8s-14.8-18.5-16.6-31.7zM377 169H224c-70.7 0-128 57.3-128 128s8.5 117.2 94.4 132.4l1 38.3c-94.2 0-138-76.4-138-170.7S129.6 126.5 224 126.5h153l-54.1-54.1 30.2-30.2 105.6 105.6L353 253.4l-4.2-59.5z"></path>
</symbol>
<symbol id="vjs-icon-forward10" viewBox="0 0 512 512">
<path d="M392.8 307.6q23.1 0 36.1 16.5 15.5 19.5 15.5 64.7 0 45-15.6 64.8-12.9 16.2-36 16.2T355.5 452q-14.2-17.8-14.2-63.6 0-44.8 15.6-64.5 12.9-16.3 36-16.3zm0 25.3q-5.5 0-9.8 3.5-4.4 3.5-6.7 12.6-3.2 11.8-3.2 39.8t2.8 38.4q2.9 10.4 7 13.9 4.4 3.5 10 3.5t9.8-3.5q4.3-3.6 6.7-12.7 3.2-11.7 3.2-39.6t-2.9-38.4q-2.8-10.5-7.1-14-4.2-3.5-9.8-3.5zm-97 134.2h-30.5V352.4q-16.7 15.6-39.3 23v-27.6q12-3.9 25.9-14.7 14-11 19.2-25.5h24.7zm81.2-298H224c-70.7 0-128 57.3-128 128s8.5 117.2 94.4 132.4l1 38.3c-94.2 0-138-76.4-138-170.7S129.6 126.5 224 126.5h153l-54.1-54.1 30.2-30.2 105.6 105.6L353 253.4l-4.2-59.5z"></path>
</symbol>
<symbol id="vjs-icon-expand" viewBox="0 0 512 512">
<path d="M70 427.5h44v-343H70zm328-343v343h44v-343zm-86.7 196.4-45.2.8-1.5-30.7 46.7-1.2v-64l87.8 80.7-87.8 80.7zm-107.4 2.3 46.9-.8-.4-30.4-46.5.8 1-64.6-91.9 79.2 91.9 79.1z"></path>
</symbol>
<symbol id="vjs-icon-expand-back" viewBox="0 0 512 512">
<path d="M169.3 427.5h48.4v-343h-48.4zm126-343v343h48.4v-343zm137 175.8 55-1v-31l-55 .9v-73l-90 88.8 90 88.7zM80 258.5H24.6l1-31 53.5-1v-73.8l90.7 88.7L79 330.1z"></path>
</symbol>
<symbol id="vjs-icon-download" viewBox="0 0 512 512">
<path d="M396.2 284.3V376H115.8v-91.7H62V403a27 27 0 0 0 27 27h334.2c14.9 0 27-12.1 27-27V284.3zM251 328.8l-77.2-93.3s-9.8-4.4 1-11h43.5V88.8s-1.7-6.6 8.2-6.6h61.2c7.2 0 7 5.5 7 5.5v134H335c15.5 0 3.9 11.6 3.9 11.6S273 320.4 264 329.5c-6.6 6.7-13-.7-13-.7z"></path>
</symbol>
<symbol id="vjs-icon-forward20" viewBox="0 0 512 512">
<path d="M392.8 307.6q23.1 0 36.1 16.5 15.5 19.5 15.5 64.7 0 45-15.6 64.8-12.9 16.2-36 16.2T355.5 452q-14.2-17.8-14.2-63.6 0-44.8 15.6-64.5 12.9-16.3 36-16.3zm0 25.3q-5.5 0-9.8 3.5-4.4 3.5-6.7 12.6-3.2 11.8-3.2 39.8t2.8 38.4q2.9 10.4 7 13.9 4.4 3.5 10 3.5t9.8-3.5q4.3-3.6 6.7-12.7 3.2-11.7 3.2-39.6t-2.9-38.4q-2.8-10.5-7.1-14-4.2-3.5-9.8-3.5zm-72.1 106V467H214q1.7-16 10.4-30.3 8.6-14.4 34.2-38.2 20.6-19.1 25.3-26 6.2-9.4 6.2-18.6 0-10.2-5.5-15.6-5.4-5.5-15-5.5t-15.2 5.7-6.5 19l-30.3-3q2.7-25 17-36t35.7-11q23.5 0 37 12.7t13.4 31.5q0 10.8-4 20.5-3.7 9.6-12 20.3-5.6 7-20 20.2t-18.3 17.6q-3.8 4.3-6.2 8.4zM377 169H224c-70.7 0-128 57.3-128 128s8.5 117.2 94.4 132.4l1 38.3c-94.2 0-138-76.4-138-170.7S129.6 126.5 224 126.5h153l-54.1-54.1 30.2-30.2 105.6 105.6L353 253.4l-4.2-59.5z"></path>
</symbol>
<symbol id="vjs-icon-forward30" viewBox="0 0 512 512">
<path d="M392.8 307.6q23.1 0 36.1 16.5 15.5 19.5 15.5 64.7 0 45-15.6 64.8-12.9 16.2-36 16.2T355.5 452q-14.2-17.8-14.2-63.6 0-44.8 15.6-64.5 12.9-16.3 36-16.3zm0 25.3q-5.5 0-9.8 3.5-4.4 3.5-6.7 12.6-3.2 11.8-3.2 39.8t2.8 38.4q2.9 10.4 7 13.9 4.4 3.5 10 3.5t9.8-3.5q4.3-3.6 6.7-12.7 3.2-11.7 3.2-39.6t-2.9-38.4q-2.8-10.5-7.1-14-4.2-3.5-9.8-3.5zm-176 92 29.5-3.5q1.4 11.2 7.5 17.2t15 6q9.4 0 15.8-7.2 6.5-7.1 6.5-19.3 0-11.5-6.2-18.2t-15-6.7q-5.9 0-14 2.3l3.4-24.8q12.3.3 18.8-5.3 6.5-5.8 6.5-15.2 0-8-4.8-12.8t-12.6-4.7q-7.8 0-13.4 5.4t-6.7 15.8l-28-4.8q2.9-14.4 8.7-23 6-8.6 16.5-13.5 10.6-5 23.7-5 22.5 0 36 14.3 11.2 11.7 11.2 26.5 0 20.9-22.9 33.3 13.7 3 21.8 13.1 8.2 10.2 8.2 24.6 0 21-15.3 35.7t-38 14.7q-21.5 0-35.7-12.3Q219 445 216.8 425zM377 169.2H224c-70.7 0-128 57.3-128 128s8.5 117.2 94.4 132.4l1 38.3c-94.2 0-138-76.4-138-170.7S129.6 126.5 224 126.5h153l-54.1-54.1 30.2-30.2 105.6 105.6L353 253.4l-4.2-59.5z"></path>
</symbol>
<symbol id="vjs-icon-rewind5" viewBox="0 0 512 512">
<path d="m104.4 426.3 30.3-3.2q1.3 10.3 7.7 16.4 6.4 6 14.7 6 9.6 0 16.2-7.8t6.6-23.4q0-14.6-6.6-21.8-6.5-7.4-17-7.4-13.1 0-23.5 11.6L108 393l15.6-82.7h80.5V339h-57.4l-4.8 27q10.2-5 20.8-5 20.2 0 34.3 14.7t14.1 38.2q0 19.6-11.4 35-15.5 21-43 21-22 0-35.8-11.8t-16.6-31.7zM135 169h153c70.7 0 128 57.3 128 128s-8.5 117.2-94.4 132.4l-1 38.3c94.2 0 138-76.4 138-170.7S382.4 126.5 288 126.5H135l54.1-54.1-30.2-30.2L53.3 147.8 159 253.4l4.2-59.5z"></path>
</symbol>
<symbol id="vjs-icon-rewind10" viewBox="0 0 512 512">
<path d="M241.8 306q23 0 36 16.5 15.6 19.5 15.6 64.7 0 45-15.6 64.8-13 16.3-36 16.3-23.2 0-37.4-17.8-14.2-17.9-14.2-63.6 0-44.9 15.6-64.6 13-16.2 36-16.2zm0 25.3q-5.5 0-9.9 3.6-4.3 3.5-6.7 12.6-3.1 11.8-3.1 39.7t2.8 38.5q2.8 10.4 7 13.8 4.4 3.5 9.9 3.5t9.9-3.5q4.3-3.5 6.7-12.6 3.1-11.7 3.1-39.7t-2.8-38.3q-2.8-10.5-7.2-14-4.2-3.6-9.7-3.6zm-97 134.2h-30.5V350.8Q97.6 366.4 75 374v-27.6q11.9-4 25.9-14.8 14-10.9 19.1-25.4h24.7zM135 170.1h153c70.7 0 128 57.3 128 128s-8.5 117.2-94.4 132.4l-1 38.3c94.2 0 138-76.4 138-170.7S382.4 127.5 288 127.5H135l54.1-54.1-30.2-30.2L53.3 148.8 159 254.4l4.2-59.5z"></path>
</symbol>
<symbol id="vjs-icon-rewind20" viewBox="0 0 512 512">
<path d="M241.8 306q23 0 36 16.5 15.6 19.5 15.6 64.7 0 45-15.6 64.8-13 16.3-36 16.3-23.2 0-37.4-17.8-14.2-17.9-14.2-63.6 0-44.9 15.6-64.6 13-16.2 36-16.2zm0 25.3q-5.5 0-9.9 3.6-4.3 3.5-6.7 12.6-3.1 11.8-3.1 39.7t2.8 38.5q2.8 10.4 7 13.8 4.4 3.5 9.9 3.5t9.9-3.5q4.3-3.5 6.7-12.6 3.1-11.7 3.1-39.7t-2.8-38.3q-2.8-10.5-7.2-14-4.2-3.6-9.7-3.6zm-72.2 106v28.2H63q1.8-16 10.4-30.3 8.7-14.4 34.3-38.1 20.6-19.2 25.2-26 6.3-9.4 6.3-18.7 0-10.1-5.5-15.6-5.4-5.5-15-5.5t-15.3 5.8-6.5 19l-30.3-3q2.7-25.1 17-36t35.8-11q23.5 0 37 12.7t13.3 31.5q0 10.7-3.9 20.5-3.7 9.6-12 20.2-5.6 7-20 20.3t-18.3 17.5q-3.8 4.4-6.2 8.5zM135 170h153c70.7 0 128 57.3 128 128s-8.5 117.2-94.4 132.4l-1 38.3c94.2 0 138-76.4 138-170.7S382.4 127.5 288 127.5H135l54.1-54.1-30.2-30.2L53.3 148.8 159 254.4l4.2-59.5z"></path>
</symbol>
<symbol id="vjs-icon-rewind30" viewBox="0 0 512 512">
<path d="M241.8 306q23 0 36 16.5 15.6 19.5 15.6 64.7 0 45-15.6 64.8-13 16.3-36 16.3-23.2 0-37.4-17.8-14.2-17.9-14.2-63.6 0-44.9 15.6-64.6 13-16.2 36-16.2zm0 25.3q-5.5 0-9.9 3.6-4.3 3.5-6.7 12.6-3.1 11.8-3.1 39.7t2.8 38.5q2.8 10.4 7 13.8 4.4 3.5 9.9 3.5t9.9-3.5q4.3-3.5 6.7-12.6 3.1-11.7 3.1-39.7t-2.8-38.3q-2.8-10.5-7.2-14-4.2-3.6-9.7-3.6zm-176 92.1 29.4-3.6q1.4 11.3 7.6 17.3t15 6q9.4 0 15.8-7.2 6.5-7.2 6.5-19.3 0-11.5-6.2-18.2t-15-6.7q-6 0-14 2.2l3.3-24.8q12.4.4 18.9-5.3 6.5-5.7 6.5-15.1 0-8-4.8-12.8t-12.7-4.8q-7.8 0-13.3 5.4t-6.7 15.8l-28-4.7q2.9-14.4 8.7-23 6-8.7 16.5-13.5 10.6-5 23.7-5 22.4 0 36 14.3Q164 332 164 346.8q0 21-22.8 33.4 13.6 3 21.7 13 8.3 10.3 8.3 24.7 0 20.9-15.3 35.6t-38 14.8q-21.6 0-35.8-12.4-14.2-12.5-16.4-32.5zM135 170.1h153c70.7 0 128 57.3 128 128s-8.5 117.2-94.4 132.4l-1 38.3c94.2 0 138-76.4 138-170.7S382.4 127.5 288 127.5H135l54.1-54.1-30.2-30.2L53.3 148.8 159 254.4l4.2-59.5z"></path>
</symbol>
<symbol id="vjs-icon-volume1" viewBox="0 0 512 512">
<path d="M61.5 187.6v130H148l108 108v-346l-108 108z"></path>
</symbol>
<symbol id="vjs-icon-volume2" viewBox="0 0 512 512">
<path d="M61.5 186.8v130H148l108 108v-346l-108 108zm292 65a97.9 97.9 0 0 0-54-87v174a97.9 97.9 0 0 0 54-87z"></path>
</symbol>
<symbol id="vjs-icon-snapshot" viewBox="0 0 512 512">
<path d="M264.9 202.7a80 80 0 1 0 0 160 80 80 0 0 0 0-160zm-31 26.3a61.4 61.4 0 0 1 92.5 46.5 312.3 312.3 0 0 0-92.5-46.5zm208.8-97.4h-86L345 96H167l-11.8 35.6H87c-19.6 0-44.4 15.9-44.4 35.5v213.3c0 19.7 24.8 35.6 44.4 35.6h355.6c19.6 0 26.6-16 26.6-35.6V167.1c0-19.6-7-35.5-26.6-35.5zM264.9 398.2a115.6 115.6 0 1 1 0-231 115.6 115.6 0 0 1 0 231zm168.9-195.5h-35.6V167h35.6v35.6z"></path>
</symbol>
<symbol id="vjs-icon-center" viewBox="0 0 512 512">
<path d="M448.3 231.8h-38q-4-25-15.6-47-11-22-28.2-39.3t-39.3-28.3q-22-11.5-47-15.5v-38h-48.4v38q-25 4-47 15.5-22 11-39.3 28.3t-28.3 39.3q-11.5 22-15.5 47h-38v48.4h38q4 25 15.5 47 11 22 28.3 39.3t39.3 28.3q22 11.4 47 15.4v38h48.4v-38q25-4 47-15.4 22-11 39.3-28.3t28.3-39.3q11.4-22 15.4-47h38v-48.4zm-87 0h-37.6q-5-15-16.7-26.8t-26.8-16.8v-37.4q30 6.4 52.3 28.7t28.8 52.3zm-105 48.4q-10 0-17.3-7.2t-7.3-17.3q0-9.4 7.3-16.7t16.8-7.3q10 0 17.2 7.3t7.3 16.8q0 10-7.3 17.2t-16.8 7.3zm-24.6-129.4v37.4q-15 5-26.7 16.8t-16.8 26.8h-37.4q6.4-30 28.7-52.3t52.3-28.8zm-81 129.4h37.6q5 15 16.7 26.8t26.8 16.8v37.4q-30-6.4-52.3-28.7t-28.8-52.3zm129.6 81v-37.4q15-5 26.7-16.8t16.8-26.8h37.4q-6.4 30-28.7 52.3t-52.3 28.8z"></path>
</symbol>
<symbol id="vjs-icon-mirror1" viewBox="0 0 512 512">
<path d="M426 61.5h24.5V256H426V61.5zM61.5 256H86v194.5H61.5V256zM183 329h267.5v48.9H183v60.6l-85-85 85-85V329zm146-145.6H61.5v-49H329V74l85 85-85 85v-60.5z"></path>
</symbol>
<symbol id="vjs-icon-mirror2" viewBox="0 0 512 512">
<path d="M85.9 61.2H61.4v194.6H86V61.2zm364.7 194.6H426v195h24.5v-195zm-121.6 73H61.4v49H329v60.5l85-85-85-85v60.5zM183 183.2h267.6v-49H183V73.8l-85 85 85 85v-60.5z"></path>
</symbol>
<symbol id="vjs-icon-big-replay" viewBox="0 0 512 512">
<path d="m326.8 141.7 32.6-71.4 48.2 130.3-119.2 22 29.3-64c-14.8-6.8-32-10.7-47.4-11-15.6-.2-39.3 2.4-53.4 7.5s-38.9 21.2-50.3 31.6a145.4 145.4 0 0 0-30.5 43.8 149.3 149.3 0 0 0-11.5 52.6c-.4 15.4 2.3 29.6 7.7 43.7s16.6 36 26.9 47.7c10.4 11.4 27.4 27.3 42.3 34s43 11.6 58.5 12c15.6.2 40.3-6 54.4-11.2s29.7-15.8 41-26.2a135 135 0 0 0 30.2-41.4l18.6 8.5c-9 19.5-21 36.3-36.4 50.2s-32.5 24.4-51.3 31.5c-18.9 7-38.6 10.2-59.4 9.8-20.8-.3-41.2-4.9-61-14s-36.6-21.3-50.4-37a157.7 157.7 0 0 1-41.3-110.6c.5-20.7 5.2-40.9 14.1-60.4a158 158 0 0 1 208.3-78z"></path>
</symbol>
<symbol id="vjs-icon-brightness" viewBox="0 0 512 512">
<path d="M249.8 6.3A17 17 0 0 0 241 17c-.3 1.7-.5 18.6-.3 37.7.3 33 .4 34.6 2.3 37.1 3.9 5.2 7 6.8 13.2 6.8s9.3-1.6 13.1-6.8c2-2.6 2.1-3.8 2.1-39.8s-.1-37.2-2-39.8c-1.1-1.5-3.2-3.7-4.6-4.6-3.2-2.5-11-3.2-15-1.3zm-165 68.4a17 17 0 0 0-10.2 11c-2.2 8.1-1.3 9.4 26.4 37.1 20.9 21 25.9 25.4 29.1 26.2 11.2 3 22-7.8 19-19-.8-3.2-5.3-8.2-25.2-28.3-27.8-28.1-30-29.7-39.1-27zm331.8.8c-2.4 1.1-13 11-28.1 26.2-20.2 20.4-24.4 25-25.3 28.3-3 11.2 7.9 22 19 19 3.3-.8 8.3-5.3 28.4-25.2 26.1-26 28.9-29.5 27.6-36.4-1.9-10.4-12.6-16.4-21.6-12zM242.5 131c-20.5 2.6-40 9.9-57 21.3a164.9 164.9 0 0 0-33 33c-9.3 14-16 29.7-19.5 46.2a158.3 158.3 0 0 0 0 49 122.7 122.7 0 0 0 34.8 63.9 122.7 122.7 0 0 0 63.9 34.8c11.6 2.6 37.3 2.6 49 0a123 123 0 0 0 63.9-34.8 123 123 0 0 0 34.8-63.9c2.6-11.7 2.6-37.4 0-49a122.7 122.7 0 0 0-34.8-64 120.6 120.6 0 0 0-62-34.3c-8-1.8-32.4-3.2-40.1-2.2zm36.4 33.6a90.6 90.6 0 0 1 44.5 26c28.3 29 35 71.2 17 107-5.5 11-8.9 15.7-17.9 24.7s-13.6 12.4-24.7 17.9a89.5 89.5 0 0 1-47 9.7 89.1 89.1 0 0 1-60.3-27.2 92.5 92.5 0 0 1-26.2-45.7c-2.4-9.3-2.4-32.7 0-42a94.2 94.2 0 0 1 25.2-44.8 91 91 0 0 1 50.3-27c9.8-1.9 29.3-1.2 39 1.4zm-264.6 77a16.1 16.1 0 0 0-8.9 17.8c.9 4.6 5.8 10 10.2 11.3 2.4.7 15.7 1 38.7.8 33.5-.3 35-.4 37.6-2.4 5.2-3.8 6.8-7 6.8-13.1s-1.6-9.3-6.8-13.2c-2.5-2-4-2-38.6-2.2-28.5-.2-36.6 0-39 1zm408.2 0a16.1 16.1 0 0 0-9 17.8c1 4.6 5.9 10 10.3 11.3 2.3.7 15.7 1 38.6.8 33.6-.3 35.2-.4 37.7-2.4 5.2-3.8 6.8-7 6.8-13.1s-1.6-9.3-6.8-13.2c-2.5-2-4-2-38.6-2.2-28.5-.2-36.6 0-39 1zM129.1 363.6c-3 1.1-9.9 7.5-28.5 26.2-20.2 20.3-25 25.5-26 28.8a15.6 15.6 0 0 0 19.2 19.1c3.2-1 8.4-5.7 29.2-26.3 20.9-20.9 25.3-25.9 26.2-29.1 3-11.8-8.6-22.8-20-18.7zm244.3 0a15.8 15.8 0 0 0-10.2 18.7c1 3.2 5.4 8.2 25.3 28.3 26.3 26.4 29.4 28.8 36.6 27.6a18 18 0 0 0 12.7-11.6c2.2-8 1-9.6-25.4-36.3a494.7 494.7 0 0 0-26.7-25.7 14.6 14.6 0 0 0-12.3-1zm-123.6 51A17 17 0 0 0 241 425c-.3 1.8-.5 18.7-.3 37.7.3 33 .4 34.7 2.3 37.2 3.9 5.2 7 6.8 13.2 6.8s9.3-1.6 13.1-6.8c2-2.6 2.1-3.8 2.1-39.8s-.1-37.2-2-39.9c-1.1-1.4-3.2-3.6-4.6-4.6-3.2-2.4-11-3.1-15-1.2z"></path>
</symbol>
<symbol id="vjs-icon-saturation" viewBox="0 0 512 512">
<path d="M256 5.1a250.9 250.9 0 1 0 0 501.8 250.9 250.9 0 0 0 0-501.8zm0 27.5c115.5 0 221.3 107 221.3 222.4 0 0-43-19.9-116.8-19.9C298.2 235.1 256 256 256 256s-63.1 20.9-104.6 20.9c-73.1 0-116.7-25-116.7-25C34.7 136.4 140.5 32.6 256 32.6z"></path>
</symbol>
<symbol id="vjs-icon-contrast" viewBox="0 0 512 512">
<path d="M256 506.9A250.9 250.9 0 1 1 256 5a250.9 250.9 0 0 1 0 501.8zm7.2-466.7c-107.8.5-224 91.4-224 214.8 0 104 114 216.8 217.8 217.8 107 1 220.8-111 218.9-215.8C474 154 372.4 39.7 263.2 40.2zM256 412.8V99.2a156.8 156.8 0 1 1 0 313.6z"></path>
</symbol>
<symbol id="vjs-icon-filters" viewBox="0 0 512 512">
<path d="M341.3 365.7H512v28.5H341.3zm-113.7 0H0v28.5h227.6v85.3H256V308.8h-28.4zm85.3-227.5h28.4V-32.5H313v56.9H0v28.4h312.9zM426.7 24.4v28.4H512V24.4zM85.3 308.8h28.5V138.2H85.3V195H0v28.4h85.3zm113.8-85.3H512v-28.4H199.1zM341.3 394H512v28.4H341.3zm-85.7 0H0v28.4h255.6v57.1H284V308.8h-28.4zm85.3-255.8h28.5V-32.5h-28.5v85.1H0v28.5h341zm85.8-85.6v28.5H512V52.6zm-313.3 256h28.4V138.2h-28.4v85H0v28.5h113.4zm85.7-56.9H512v-28.4H199.1z"></path>
</symbol>
<symbol id="vjs-icon-related" viewBox="0 0 512 512">
<path d="M145.8 337v55q0 11.5-8.3 19.5t-19.8 8h-92q-11.4 0-19.4-8t-8-19.5v-55q0-11.5 8-19.8t19.4-8.2h92q11.5 0 19.8 8.3t8.3 19.7zm0-147.5v55q0 11.5-8.3 19.8t-19.8 8.2h-92q-11.4 0-19.4-8.3t-8-19.7v-55q0-11.5 8-19.5t19.4-8h92q11.5 0 19.8 8t8.3 19.5zm184 147.5v55q0 11.5-8.3 19.5t-19.3 8h-92.4q-11 0-19.3-8t-8.3-19.5v-55q0-11.5 8.3-19.8t19.3-8.2h92.4q11 0 19.3 8.3t8.3 19.7zm-184-295v55.5q0 11.5-8.3 19.5t-19.8 8h-92q-11.4 0-19.4-8t-8-19.5V42q0-11 8-19.3t19.4-8.2h92q11.5 0 19.8 8.3t8.3 19.2zm184 147.5v55q0 11.5-8.3 19.8t-19.3 8.2h-92.4q-11 0-19.3-8.3t-8.3-19.7v-55q0-11.5 8.3-19.5t19.3-8h92.4q11 0 19.3 8t8.3 19.5zm184 147.5v55q0 11.5-8 19.5t-19.6 8h-92q-11.4 0-19.7-8t-8.3-19.5v-55q0-11.5 8.3-19.8t19.8-8.2h92q11.4 0 19.4 8.3t8 19.7zm-184-295v55.5q0 11.5-8.3 19.5t-19.3 8h-92.4q-11 0-19.3-8t-8.3-19.5V42q0-11 8.3-19.3t19.3-8.2h92.4q11 0 19.3 8.3t8.3 19.2zm184 147.5v55q0 11.5-8 19.8t-19.6 8.2h-92q-11.4 0-19.7-8.3t-8.3-19.7v-55q0-11.5 8.3-19.5t19.8-8h92q11.4 0 19.4 8t8 19.5zm0-147.5v55.5q0 11.5-8 19.5t-19.6 8h-92q-11.4 0-19.7-8t-8.3-19.5V42q0-11 8.3-19.3t19.8-8.2h92q11.4 0 19.4 8.3t8 19.2z"></path>
</symbol>
<symbol id="vjs-icon-cancel" viewBox="0 0 409 512">
<path d="M376.5 341q0 12-8 20L329 400.5q-8 8-20 8-11.5 0-19.5-8l-85-85.5-85 85.5q-8 8-19.5 8-12 0-20-8L40.5 361q-8-8-8-20 0-11.5 8-19.5l85.5-85-85.5-85q-8-8-8-19.5 0-12 8-20L80 72.5q8-8 20-8 11.5 0 19.5 8l85 85.5 85-85.5q8-8 19.5-8 12 0 20 8l39.5 39.5q8 8 8 20 0 11.5-8 19.5l-85.5 85 85.5 85q8 8 8 19.5z"></path>
</symbol>
<symbol id="vjs-icon-help" viewBox="0 0 445 512">
<path d="M259.3 394.8v-55.6q0-4-2.6-6.4-3-3-7-3h-55.4q-4 0-6.6 3-2.4 2.4-2.4 6.4v55.6q0 4 2.4 6.4t6.6 2.6h55.4q4 0 7-2.6 2.6-2.4 2.6-6.4zm74-194q0-25.6-16-47.6-16-21.4-40-33.4-24-11.5-49.6-11.5-70 0-107 61.5-4 7 2.5 12l38 29q2 1.4 5.6 1.4 4.4 0 7-3.4 15.4-19.6 25-26.6 10-7 25-7 14 0 24.4 7.6 11 7.4 11 17 0 11-6 18-5.4 6.4-19.4 13-18 8-33.6 25-15 16.4-15 36v10.4q0 4 2.6 6.6t6.4 2.4h55.6q4 0 7-2.4 2.4-2.6 2.4-6.6 0-5.4 6-14.4 6.6-8.6 16-14l14-8.6q5-3 13.6-10 8-7 12.4-14 4.6-6.4 8.6-17.4 3.4-10.6 3.4-23zm111 55q0 60.4-30 111.4-29.6 51-80.6 81-51 29.6-111.4 29.6t-111.6-29.6q-51-30-80.5-81-30-51-30-111.4 0-60 30-111 29.6-51 80.5-81 51-29.5 111.5-29.5t111.6 29.5q51 30 80.4 81 30 51 30 111z"></path>
</symbol>
<symbol id="vjs-icon-info" viewBox="0 0 445 512">
<path d="M296.3 394.8v-46.6q0-4-2.6-6.4-3-2.6-7-2.6h-27.4v-148q0-4-2.6-6.4-3-2.6-7-2.6h-92q-4.4 0-7 2.6t-2.4 6.4v46.6q0 4 2.4 6.4t7 2.6h27.6v92.4h-27.6q-4.4 0-7 2.6t-2.4 6.4v46.6q0 4 2.4 6.4t7 2.6h129q4 0 7-2.6 2.6-2.4 2.6-6.4zm-37-259v-46q0-4-2.6-7-3-2.5-7-2.5h-55.4q-4 0-6.6 2.5-2.4 3-2.4 7v46q0 4 2.4 6.4 2.6 3 6.6 3h55.4q4 0 7-3 2.6-2.4 2.6-6.4zm185 120q0 60.4-30 111.4-29.6 51-80.6 81-51 29.6-111.4 29.6t-111.6-29.6q-51-30-80.5-81-30-51-30-111.4 0-60 30-111 29.6-51 80.5-81 51-29.5 111.5-29.5t111.6 29.5q51 30 80.4 81 30 51 30 111z"></path>
</symbol>
<symbol id="vjs-icon-fullscreen" viewBox="0 0 445 512">
<path d="M219.1 292.2q0 2.8-2 5.1L142 372.6l32.6 32.5q4.3 4.3 4.3 10.2t-4.3 10.1-10.2 4.4H62.8q-5.9 0-10.2-4.4t-4.3-10.1V313.8q0-5.9 4.3-10.2t10.2-4.3 10.2 4.3l32.5 33 75.2-75.3q2.4-2.4 5.5-2.4 2.8 0 5.1 2.4l25.9 25.8q2 2 2 5.1zm177-195.5v101.5q0 5.9-4.2 10.2t-10.2 4.3-10.2-4.3l-32.9-33-74.8 75.3q-2.4 2.4-5.5 2.4-2.7 0-5.1-2.4L227.3 225q-2.3-2-2.3-5.1 0-2.8 2.3-5.1l75.3-75.3L270 107q-4.3-4.3-4.3-10.2t4.3-10.1 10.2-4.4h101.5q5.9 0 10.2 4.4t4.3 10.1z"></path>
</symbol>
<symbol id="vjs-icon-fullscreen-back" viewBox="0 0 445 512">
<path d="M222.2 271v105.7q0 6.1-4.4 10.6t-10.7 4.5-10.6-4.5l-33.9-34-78.4 78.5q-2.4 2.4-5.3 2.4-3.3 0-5.7-2.4l-26.5-27q-2.5-2.4-2.5-5.3 0-3.2 2.5-5.7l78-78-34-34.3q-4.4-4.5-4.4-10.6t4.5-10.6 10.6-4.5H207q6.2 0 10.7 4.5t4.4 10.6zm178-158.5q0 3.2-2.4 5.7l-78 78 34 34.3q4.4 4 4.4 10.6 0 6.1-4.5 10.2-4.5 4.5-10.6 4.5H237.4q-6.2 0-10.7-4.5-4.4-4-4.4-10.2V135.3q0-6.1 4.4-10.6t10.7-4.5 10.6 4.5l33.9 34 78.4-78.5q2.4-2.4 5.3-2.4 3.3 0 5.3 2.4l27 27q2.4 2.4 2.4 5.3z"></path>
</symbol>
<symbol id="vjs-icon-twitter" viewBox="0 0 446 512">
<path d="M371 173.3q-16.5 7.4-35 10 19.5-11.6 27-34-19 11-39 15-17.5-19-44.5-19-25 0-42.5 17.4-18 18-18 43 0 8.6 1.5 14-37.5-2-70-19-33-16.4-55.5-44.4-8.5 14.4-8.5 30.4 0 33 26.5 50.6-14 0-29-7.6v.6q0 22 14.5 39 14.5 16.4 35.5 21-8.5 2-15 2-3.5 0-11-1 6 18 21.5 30t35 12q-33.5 26-75.5 26-7.5 0-14.5-.6 43 27 93.5 27 32 0 60.5-10 28.5-10.4 48.5-27.4 20.5-17.6 35-40t21.5-46.6q7.5-24.4 7.5-49 0-5-.5-8 18-13 30.5-31.4zm74-56v278q0 34-24.5 58.4t-59 24.6H84q-34.5 0-59-24.6T.5 395.4v-278q0-34.5 24.5-59t59-24.5h277.5q34.5 0 59 24.5t24.5 59z"></path>
</symbol>
<symbol id="vjs-icon-facebook" viewBox="0 0 446 512">
<path d="M361.5 33.8q34.5 0 59 24.5t24.5 59v278q0 34-24.5 58.4t-59 24.6H307v-172h58l8.5-67H307v-43q0-16 7-24.6 7-8 26.5-8H376v-60q-18.5-2.5-51.5-2.5-39.5 0-63 23T238 189.8v49.6h-58v67h58v172H84q-34.5 0-59-24.6T.5 395.4v-278q0-34.5 24.5-59t59-24.5h277.5z"></path>
</symbol>
<symbol id="vjs-icon-linkedin" viewBox="0 0 446 512">
<path d="M69 406.3h67v-201H69v201zm71.5-263q-.5-15-10.5-25-10.5-9.5-27-9.5-17 0-27.5 9.5-10.5 10-10.5 25t10.5 25q10 10 26.5 10h.5q17 0 27.5-10t10.5-25zm169 263h67V290.6q0-44.4-21-67.4-21.5-22.6-56-22.6-39.5 0-60.5 33.6h.5v-29h-67q1 19 0 201h67V293.6q0-11 2-16 4.5-10.4 13-17.4t21.5-7q33.5 0 33.5 45.4v107.6zm135.5-289v278q0 34-24.5 58.4t-59 24.6H84q-34.5 0-59-24.6T.5 395.4v-278q0-34.5 24.5-59t59-24.5h277.5q34.5 0 59 24.5t24.5 59z"></path>
</symbol>
<symbol id="vjs-icon-pinterest" viewBox="0 0 446 512">
<path d="M361.5 33.8q34.5 0 59 24.5t24.5 59v278q0 34-24.5 58.4t-59 24.6H152q24.5-35 31-60.6l15.5-60.4q6 11 21 19.4 15.5 8 32.5 8 52.5 0 86-43 33-42.4 33-108 0-24-10-47-10.5-22.4-28-40-18-17.4-44.5-28-26-10.5-57-10.5-30 0-56 8-26.5 8-44.5 22t-31 32q-13 17.6-19 37-6.5 19-6.5 38 0 29.6 11.5 52.6 11.5 22.4 33.5 31.4 4 1.6 7 0t4-5.4q3-12.6 4.5-17.6 2-6.4-3-12-14.5-18-14.5-43.4 0-43.6 30-74.6 30-30.4 78-30.4 43 0 67.5 23.4 24 23.6 24 60.6 0 48.4-19.5 83-19.5 34-50 34-17.5 0-28-12.6-11-12.4-7-30 2.5-10 8-27 5-16.4 8.5-29.4 3-12.6 3-21.6 0-14-7.5-23.4-8-9.6-22-9.6-17.5 0-30 16.6T160 250.2q0 20.6 7 35l-28 119.6q-7 29-2 73.4H84q-34.5 0-59-24.4T.5 395.1v-278q0-34.5 24.5-59t59-24.5h277.5z"></path>
</symbol>
<symbol id="vjs-icon-play" viewBox="0 0 512 512">
<path d="M130.7 96.8v318.4l250.6-159.5z"></path>
</symbol>
<symbol id="vjs-icon-pause" viewBox="0 0 512 512">
<path d="M119.7 415.3h91V96.6h-91v318.6zM301.3 96.6v318.6h91V96.6h-91z"></path>
</symbol>
<symbol id="vjs-icon-mute" viewBox="0 0 512 512">
<path d="M353.4 255.4q0-28.5-15-51.8t-39-35.2v47.5l53.5 53q.5-3 .5-6.5v-7zm54.5 0q0 15-3.3 29.2t-8.7 27.8l33 32.5q10.5-20 16.2-42.8t5.8-46.7q0-35-11.5-66t-31.8-56T360 90.9q-28-17.5-60.5-25v44.5q23.5 7 43.5 21 20 13.5 34.2 32.5t22.3 42.5q8.5 23 8.5 49zM89.4 60.9 61.9 88.4l102 102h-102v129.5h86.5l108 108v-145l92 92q-11 8-23.3 14.7t-25.7 10.8v44.5q22.5-5 42.7-15t37.3-24l44 44 27.5-27.5L89.4 60.9zm167 21.5-45 45 45 45.5V82.4z"></path>
</symbol>
<symbol id="vjs-icon-volume3" viewBox="0 0 512 512">
<path d="M44 189.6v129.5h86.5l108 108V81.6l-108 108H44zm291.5 65q0-28.5-15-51.7t-39-35.3v174q24-12 39-35.2t15-51.8zm-54-189.5v44.5q23.5 7 43.5 21 20 13.5 34.3 32.5t22.2 42.5q8.5 23 8.5 49 0 25.5-8.5 49-8 23-22.2 42t-34.3 33-43.5 20.5v45q32.5-7.5 60.5-25 27.5-17.5 47.8-42.5t31.7-56q11.5-31.5 11.5-66 0-35-11.5-66t-31.7-56T342 90.1q-28-18-60.5-25z"></path>
</symbol>
<symbol id="vjs-icon-pip" viewBox="0 0 512 512">
<path d="M407 83.3H108q-20.5 0-35.3 12.5T58 126.3v259.4q0 18 14.8 30.6t35.2 12.4h299q20.5 0 33.8-12.4t13.2-30.6V126.4q0-18-13.3-30.5T407 83.3zm14.5 308h-325l-1-270h326v270zM264 260.6h133v109H264v-109z"></path>
</symbol>
<symbol id="vjs-icon-description" viewBox="0 0 512 512">
<path d="M429 83.3H83q-17.5 0-30.3 12.5T40 126.3v259.4q0 18 12.7 30.6T83 428.6h346q18 0 30.5-12.4t12.5-30.6V126.4q0-18-12.5-30.5T429 83.3zM83 255.7h86.5v43.6H83v-43.6zm216 130H83v-43.4h216v43.5zm130 0h-86.5v-43.4H429v43.5zm0-86.4H213v-43.6h216v43.6z"></path>
</symbol>
<symbol id="vjs-icon-captions" viewBox="0 0 512 512">
<path d="M407.5 83.3H105q-18 0-30.8 12.5t-12.7 30.5v259.5q0 18 12.8 30.4t30.7 12.5h302.5q17.5 0 30.3-12.5t12.7-30.4V126.3q0-18-12.8-30.5t-30.2-12.5zm-173 151H202v-10.5h-43v64.5h43v-10.5h32.5v21.5q0 9-6.3 15.2t-15.2 6.3h-65q-9 0-15.3-6.3t-6.2-15.2v-86.5q0-9 6.3-15.3t15.2-6.2h65q9 0 15.3 6.2t6.2 15.3v21.5zm151 0H353v-10.5h-43v64.5h43v-10.5h32.5v21.5q0 9-6.2 15.2t-15.3 6.3h-65q-9 0-15.2-6.3t-6.3-15.2v-86.5q0-9 6.3-15.3t15.2-6.2h65q9 0 15.3 6.2t6.2 15.3v21.5z"></path>
</symbol>
<symbol id="vjs-icon-chapters" viewBox="0 0 512 512">
<path d="M32.8 281h49.9v-50h-50v50zm0 99.3h49.9v-50h-50v50zm0-198.6h49.9v-50h-50v50zM132 281h347.2v-50H132v50zm0 99.3h347.2v-50H132v50zm0-248.5v49.9h347.2v-50H132z"></path>
</symbol>
<symbol id="vjs-icon-share" viewBox="0 0 512 512">
<path d="M385.5 306.3q-12 0-23 4.4t-19.5 12l-154-89.4q1-4 1.5-7.8t.5-7.8q0-3.4-.5-7.4t-1.5-7.6l152.5-89q8.5 8.5 20 13t24 4.5q27 0 46-19t19-45.5q0-27-19-46t-46-19q-26.5 0-45.5 19t-19 46q0 4 .5 7.8t1.5 7.3l-152.5 89q-8.5-8-20-12.8t-24-4.8q-27 0-46 19t-19 45.6q0 27 19 46t46 19q12.5 0 24-4.8t20-12.8l154 90q-1 3-1.5 6.8t-.5 7.3q0 26 18.5 44.4t44.5 18.6 44.5-18.6 18.5-44.4-18.5-44.6-44.5-18.4z"></path>
</symbol>
<symbol id="vjs-icon-settings" viewBox="0 0 512 512">
<path d="m392.7 274 .8-9 .5-9.2q0-4.4-.5-8.9l-.8-8.8 38.9-30.5q2.6-2.2 3.3-5.6t-1.1-6.4L397 132q-1.8-2.7-5.1-3.8t-6.4-.2L340 146.5q-7-5.3-14.8-10t-16.6-8L302 79.7q-.9-3.1-3.3-5.3t-6-2.3h-73.4q-3.5 0-6.2 2.3t-3 5.3l-6.7 48.6q-8.9 3.5-16.6 8.2t-14.8 10L126.4 128q-3-1-6.4.2t-5 3.7l-36.8 63.7q-1.7 3.1-1 6.4t3.2 5.6l39 30.5-1 8.8-.4 8.9q0 4.8.5 9.3l.8 8.8-38.9 30.5q-2.6 2.2-3.3 5.6t1.1 6.4L115 380q1.8 2.7 5.1 3.8t6.4.2l45.6-18.5q7 5.3 14.8 10t16.6 8l6.6 48.7q.4 3.1 3.1 5.3t6.2 2.3h73.4q3.5 0 6-2.3t3.3-5.3l6.6-48.6q8.4-3.6 16.4-8.2t15-10l45.6 18.6q3 1 6.4-.2t5-3.8l36.8-63.6q1.7-3.1 1-6.4t-3.2-5.6l-39-30.5zM256 320.2q-26.5 0-45.5-18.7t-19-45.8q0-26.6 19-45.3t45.5-18.8 45.3 18.8 18.8 45.3q0 27-18.8 45.8T256 320.3z"></path>
</symbol>
<symbol id="vjs-icon-close" viewBox="0 0 512 512">
<path d="M256 39.8q-45 0-84 17-39.5 17-68.8 46.5T57 171.8q-17 39.4-17 84 0 45 17 84.4 17 39 46.3 68.6t68.7 46.4q39 17 84 17t84-17q39.5-17 68.8-46.4t46.2-68.6q17-39.4 17-84.4 0-44.6-17-84-17-39-46.3-68.6T340 56.8q-39-17-84-17zm108 293.4-30.5 31-77.5-77.4-77.5 77.4-30.5-31 77.5-77.4-77.5-77 30.5-31 77.5 77.4 77.5-77.4 30.5 31-77.5 77 77.5 77.4z"></path>
</symbol>
<symbol id="vjs-icon-replay" viewBox="0 0 512 512">
<path d="M256 150.3V79.7l-88 88 88 88v-70q22 0 41.2 8.2t33.6 22.6 22.6 33.6 8.2 41.1-8.2 41.2-22.6 33.4-33.6 22.8q-19.2 8.2-41.2 8.2t-41.2-8.2q-19.1-8.5-33.6-22.8t-22.6-33.4-8.1-41.2H115q0 29.4 11 55 11.4 25.3 30.4 44.5t44.6 30.1q25.7 11.5 55 11.5t55-11.5q25.7-11 44.6-30.1t30.4-44.4q11-25.7 11-55t-11-55q-11.4-25.7-30.4-44.7T311 161.3q-25.7-11-55-11z"></path>
</symbol>
<symbol id="vjs-icon-audio" viewBox="0 0 512 512">
<path d="M256 90.7q-32.3 0-60.7 12.2-28.5 12.6-49.9 33.7T112 186.3q-12.6 28.4-12.6 61.1V369q0 21.8 15.3 37t37.1 15.4h52V282.2H134v-34.8q0-25.1 9.6-47.3t26.2-38.8 38.8-26.1 47.3-9.7 47.3 9.7 38.8 26.1 26.2 38.8 9.6 47.3v34.8h-69.5v139h51.9q21.8 0 37-15.2t15.4-37.1V247.4q0-32.7-12.6-61.1-12.2-28.5-33.5-49.7T316.7 103Q288.3 90.7 256 90.7z"></path>
</symbol>
<symbol id="vjs-icon-playlist" viewBox="0 0 512 512">
<path d="M47.1 172.5h334.2v55.7H47.1v-55.7zm0-111.4h334.2v55.7H47.1V61zm0 222.7H270v55.7H47.1v-55.7zm278.5 0V451L465 367.4z"></path>
</symbol>
<symbol id="vjs-icon-big-play" viewBox="0 0 512 512">
<path d="M162.7 91.8v318.5l250.6-159.6z"></path>
</symbol>
</defs>
</svg>
