<svg xmlns="http://www.w3.org/2000/svg">
<defs>
<symbol id="vjs-icon-pip-full" viewBox="0 0 512 512">
<path d="M407 83H108q-21 0-36 13t-14 30v260q0 18 14 30t36 13h299q21 0 34-13t14-30V126q0-18-14-30t-34-13zm15 308H97l-1-270h326v270zM117 140h279v230H117V140z"></path>
</symbol>
<symbol id="vjs-icon-expand" viewBox="0 0 512 512">
<path d="M68 432h49V81H68zM396 81v350h48V81zm-79 208h-34v-44h34v-55l79 77-79 76zm-120 0h34v-43h-34v-54l-80 76 80 76z"></path>
</symbol>
<symbol id="vjs-icon-expand-back" viewBox="0 0 512 512">
<path d="M148 432h54V81h-54zM308 81v350h58V81zm136 198h33v-46h-33v-57l-80 80 80 79zm-376-4H35v-45h33v-57l80 79-80 80z"></path>
</symbol>
<symbol id="vjs-icon-download" viewBox="0 0 512 512">
<path d="M416 288v105H96V288H35v135c0 17 14 31 31 31h380c17 0 31-14 31-31V288zm-166 51-87-106s-12-5 1-13h49V66s-2-8 10-8h69c8 0 8 6 8 6v153h46c17 0 4 13 4 13s-75 99-85 110c-7 7-15-1-15-1z"></path>
</symbol>
<symbol id="vjs-icon-snapshot" viewBox="0 0 512 512">
<path d="M266 197a88 88 0 1 0 0 176 88 88 0 0 0 0-176zm-34 29a68 68 0 0 1 101 51c-33-26-73-42-101-51zm229-107h-94l-13-39H158l-13 39H70c-21 0-49 18-49 39v235c0 21 28 39 49 39h391c22 0 30-18 30-39V158c0-21-8-39-30-39zM266 412a127 127 0 1 1 0-254 127 127 0 0 1 0 254zm186-215h-40v-39h40v39z"></path>
</symbol>
<symbol id="vjs-icon-center" viewBox="0 0 512 512">
<path d="M448.25 231.75h-38q-4-25-15.5-47-11-22-28.25-39.25t-39.25-28.25q-22-11.5-47-15.5v-38h-48.5v38q-25 4-47 15.5-22 11-39.25 28.25t-28.25 39.25q-11.5 22-15.5 47h-38v48.5h38q4 25 15.5 47 11 22 28.25 39.25t39.25 28.25q22 11.5 47 15.5v38h48.5v-38q25-4 47-15.5 22-11 39.25-28.25t28.25-39.25q11.5-22 15.5-47h38v-48.5zM361.25 231.75h-37.5q-5-15-16.75-26.75t-26.75-16.75v-37.5q30 6.5 52.25 28.75t28.75 52.25v0zM256.25 280.25q-10 0-17.25-7.25t-7.25-17.25q0-9.5 7.25-16.75t16.75-7.25q10 0 17.25 7.25t7.25 16.75q0 10-7.25 17.25t-16.75 7.25zM231.75 150.75v37.5q-15 5-26.75 16.75t-16.75 26.75h-37.5q6.5-30 28.75-52.25t52.25-28.75zM150.75 280.25h37.5q5 15 16.75 26.75t26.75 16.75v37.5q-30-6.5-52.25-28.75t-28.75-52.25zM280.25 361.25v-37.5q15-5 26.75-16.75t16.75-26.75h37.5q-6.5 30-28.75 52.25t-52.25 28.75z"></path>
</symbol>
<symbol id="vjs-icon-mirror1" viewBox="0 0 512 512">
<path d="M441 45h26v211h-26V45zM45 256h26v211H45V256zm132 79h290v53H177v66l-92-93 92-92v66zm158-158H45v-53h290V58l92 93-92 92v-66z"></path>
</symbol>
<symbol id="vjs-icon-mirror2" viewBox="0 0 512 512">
<path d="M71 45H45v211h26V45zm396 211h-26v211h26V256zm-132 79H45v53h290v66l92-93-92-92v66zM177 177h290v-53H177V58l-92 93 92 92v-66z"></path>
</symbol>
<symbol id="vjs-icon-big-replay" viewBox="0 0 512 512">
<path d="m327 142 32-72 49 131-120 22 30-64c-15-7-32-11-48-11-15-1-39 2-53 7s-39 21-50 32c-12 10-24 29-31 43-7 15-11 37-11 53-1 16 2 30 7 44s17 36 27 48c11 11 28 27 42 34s44 11 59 12c16 0 40-7 54-12a134 134 0 0 0 72-67l18 8a153 153 0 0 1-88 82 158 158 0 0 1-212-152c1-21 6-41 15-60a154 154 0 0 1 87-82 158 158 0 0 1 121 4z"></path>
</symbol>
<symbol id="vjs-icon-brightness" viewBox="0 0 512 512">
<path d="M250 6c-4 2-8 7-9 11v38c0 33 0 34 2 37 4 5 7 7 13 7s10-2 13-7c2-3 2-4 2-40s0-37-2-40l-4-4c-3-3-11-4-15-2zM85 75c-5 1-9 6-10 11-3 8-2 9 26 37 21 21 26 25 29 26 11 3 22-8 19-19-1-3-5-8-25-28-28-28-30-30-39-27zm332 0-29 27c-20 20-24 25-25 28-3 11 8 22 19 19 4-1 9-5 29-25 26-26 28-30 27-37-2-10-12-16-21-12zm-175 56c-20 3-39 10-56 21-10 7-27 24-34 33-9 14-16 30-19 47a123 123 0 0 0 35 113 123 123 0 0 0 177-1 123 123 0 0 0 0-176c-19-18-38-29-62-35-8-2-33-3-41-2zm37 34c18 4 31 12 44 26a92 92 0 0 1 0 131c-10 9-14 13-25 18-15 8-30 11-47 10-24-1-43-10-61-27a92 92 0 0 1-26-46c-2-9-2-33 0-42 5-17 13-32 25-45a91 91 0 0 1 90-25zM14 242c-6 3-10 10-9 18 1 4 6 10 11 11l38 1c34-1 35-1 38-3 5-4 7-7 7-13s-2-9-7-13c-3-2-4-2-39-2-28-1-36 0-39 1zm408 0c-6 3-10 10-8 18 0 4 5 10 10 11l38 1c34-1 36-1 38-3 5-4 7-7 7-13s-2-9-7-13c-2-2-4-2-39-2-28-1-36 0-39 1zM129 364c-3 1-10 7-28 26-21 20-25 25-26 28-4 12 7 23 19 20 3-1 8-6 29-27s25-26 26-29c3-12-8-23-20-18zm244 0c-7 2-12 11-10 18 1 3 6 8 25 29 27 26 30 28 37 27 5-1 11-6 13-11 2-9 1-10-26-37l-26-25c-4-3-8-3-13-1zm-123 50c-4 2-8 7-9 11v38c0 33 0 34 2 37 4 5 7 7 13 7s10-2 13-7c2-3 2-4 2-40s0-37-2-40l-4-4c-3-3-11-3-15-2z"></path>
</symbol>
<symbol id="vjs-icon-saturation" viewBox="0 0 512 512">
<path d="M256 5a251 251 0 1 0 0 502 251 251 0 0 0 0-502zm0 28c115 0 221 107 221 222 0 0-43-20-117-20-62 0-104 21-104 21s-63 21-105 21c-73 0-116-25-116-25C35 136 141 33 256 33z"></path>
</symbol>
<symbol id="vjs-icon-contrast" viewBox="0 0 512 512">
<path d="M256 506.9A250.9 250.9 0 1 1 256 5a250.9 250.9 0 0 1 0 501.8zm7.2-466.7c-107.8.5-224 91.4-224 214.8 0 104 114 216.8 217.8 217.8 107 1 220.8-111 218.9-215.8C474 154 372.4 39.7 263.2 40.2zM256 412.8V99.2a156.8 156.8 0 1 1 0 313.6z"></path>
</symbol>
<symbol id="vjs-icon-filters" viewBox="0 0 512 512">
<path d="M341 398h171v29H341zm-113 0H0v29h228v85h28V341h-28zm85-227h28V0h-28v57H0v28h313zM427 57v28h85V57zM85 341h29V171H85v57H0v28h85zm114-85h313v-28H199zm142 170h171v29H341zm-85 0H0v29h256v57h28V341h-28zm85-255h28V0h-28v85H0v29h341zm86-86v29h85V85zM113 341h29V171h-29v85H0v28h113zm86-57h313v-28H199z"></path>
</symbol>
<symbol id="vjs-icon-related" viewBox="0 0 512 512">
<path d="M146 376v55q0 12-9 20t-19 8H26q-12 0-20-8t-8-20v-55q0-11 8-20t20-8h92q11 0 19 8t9 20zm0-147v55q0 11-9 19t-19 9H26q-12 0-20-9t-8-19v-55q0-12 8-20t20-8h92q11 0 19 8t9 20zm184 147v55q0 12-8 20t-20 8h-92q-11 0-19-8t-8-20v-55q0-11 8-20t19-8h92q12 0 20 8t8 20zM146 81v55q0 12-9 20t-19 8H26q-12 0-20-8t-8-20V81q0-11 8-19t20-8h92q11 0 19 8t9 19zm184 148v55q0 11-8 19t-20 9h-92q-11 0-19-9t-8-19v-55q0-12 8-20t19-8h92q12 0 20 8t8 20zm184 147v55q0 12-8 20t-19 8h-93q-11 0-19-8t-8-20v-55q0-11 8-20t19-8h93q11 0 19 8t8 20zM330 81v55q0 12-8 20t-20 8h-92q-11 0-19-8t-8-20V81q0-11 8-19t19-8h92q12 0 20 8t8 19zm184 148v55q0 11-8 19t-19 9h-93q-11 0-19-9t-8-19v-55q0-12 8-20t19-8h93q11 0 19 8t8 20zm0-148v55q0 12-8 20t-19 8h-93q-11 0-19-8t-8-20V81q0-11 8-19t19-8h93q11 0 19 8t8 19z"></path>
</symbol>
<symbol id="vjs-icon-cancel" viewBox="0 0 410 512">
<path d="M377 361q0 12-8 20l-39 39q-9 8-20 8t-20-8l-85-85-85 85q-8 8-20 8t-20-8l-39-39q-8-8-8-20t8-20l85-85-85-85q-8-8-8-20t8-19l39-40q9-8 20-8t20 8l85 85 85-85q8-8 20-8t20 8l39 40q8 8 8 19t-8 20l-85 85 85 85q8 9 8 20z"></path>
</symbol>
<symbol id="vjs-icon-help" viewBox="0 0 445 512">
<path d="M260 395v-55q0-5-3-7t-6-3h-56q-4 0-7 3t-2 7v55q0 4 2 7t7 2h56q4 0 6-2t3-7zm74-194q0-26-16-47-16-22-40-34t-49-12q-71 0-108 62-4 7 3 12l38 29q2 2 5 2 5 0 7-4 16-20 25-26 10-7 25-7 14 0 25 7 11 8 11 17 0 11-6 18-6 6-20 13-18 8-33 25t-15 36v10q0 5 2 7t7 3h56q4 0 6-3t3-6q0-6 6-15t16-14l14-8 13-10q9-8 13-14 5-7 8-18 4-11 4-23zm111 55q0 61-30 112t-81 80q-51 30-111 30t-112-30q-51-29-80-80Q1 317 1 256t30-111q29-51 80-81t112-30 111 30q51 30 81 81t30 111z"></path>
</symbol>
<symbol id="vjs-icon-info" viewBox="0 0 445 512">
<path d="M297 395v-46q0-4-3-7t-6-2h-28V191q0-4-3-6t-6-3h-93q-4 0-7 3t-2 6v47q0 4 2 6t7 3h28v93h-28q-4 0-7 2t-2 7v46q0 4 2 7t7 2h130q4 0 6-2t3-7zm-37-259V90q0-4-3-7-2-3-6-3h-56q-4 0-7 3-2 3-2 7v46q0 4 2 7t7 2h56q4 0 6-2t3-7zm185 120q0 61-30 112t-81 80q-51 30-111 30t-112-30q-51-29-80-80Q1 317 1 256t30-111q29-51 80-81t112-30 111 30q51 30 81 81t30 111z"></path>
</symbol>
<symbol id="vjs-icon-fullscreen" viewBox="0 0 445 512">
<path d="M219 295q0 3-2 5l-80 81 34 35q5 4 5 11t-5 10-10 5H52q-6 0-11-5t-5-10V318q0-6 5-11t11-4 11 4l35 35 80-81 6-2q3 0 5 2l28 28 2 6zM409 85v109q0 6-5 11t-11 5-11-5l-35-35-80 81-6 2q-3 0-5-2l-28-28-2-6q0-3 2-5l80-81-34-35q-5-4-5-11t5-10 10-5h109q6 0 11 5t5 10z"></path>
</symbol>
<symbol id="vjs-icon-fullscreen-back" viewBox="0 0 445 512">
<path d="M223 272v113q0 7-5 11t-12 5-11-5l-36-36-84 84q-2 2-6 2l-6-2-28-29q-3-3-3-6t3-6l83-83-36-37q-5-4-5-11t5-11 11-5h113q7 0 12 5t4 11zm190-169q0 3-3 6l-83 83 36 37q5 4 5 11t-5 11-11 5H239q-7 0-12-5t-5-11V127q0-7 5-11t12-5 11 5l36 36 84-84q2-2 6-2l6 2 28 29q3 3 3 6z"></path>
</symbol>
<symbol id="vjs-icon-twitter" viewBox="0 0 446 512">
<path d="M372 173q-17 8-35 10 19-11 26-34-18 11-38 15-18-19-45-19-25 0-43 18t-18 43q0 8 2 14-37-2-70-19t-56-45q-8 15-8 31 0 33 26 50-13 0-29-7 0 22 15 39t35 21l-14 2-12-1q6 19 22 30 15 12 35 13-34 26-76 26l-14-1q43 27 93 27 33 0 61-10 28-11 49-28 20-17 35-39 14-23 21-47t7-49v-8q18-13 31-32zm74-56v278q0 35-25 59t-59 25H84q-34 0-59-25T1 395V117q0-34 24-59t59-24h278q35 0 59 24t25 59z"></path>
</symbol>
<symbol id="vjs-icon-facebook" viewBox="0 0 446 512">
<path d="M362 34q35 0 59 24t25 59v278q0 35-25 59t-59 25h-54V306h57l9-67h-66v-43q0-16 7-24 6-8 26-8h35v-60q-18-3-51-3-39 0-63 23t-24 66v49h-58v67h58v173H84q-34 0-59-25T1 395V117q0-34 24-59t59-24h278z"></path>
</symbol>
<symbol id="vjs-icon-linkedin" viewBox="0 0 446 512">
<path d="M69 406h67V205H69v201zm72-263q-1-15-11-25-10-9-27-9-16 0-27 9-11 10-11 25t11 25q10 10 26 10h1q17 0 27-10t11-25zm169 263h67V291q0-45-21-67-21-23-56-23-39 0-61 34h1v-30h-67v201h67V294q0-11 2-16 4-10 13-18 9-7 22-7 33 0 33 46v107zm136-289v278q0 35-25 59t-59 25H84q-34 0-59-25T1 395V117q0-34 24-59t59-24h278q35 0 59 24t25 59z"></path>
</symbol>
<symbol id="vjs-icon-pinterest" viewBox="0 0 446 512">
<path d="M362 34q35 0 59 24t25 59v278q0 35-25 59t-59 25H152q25-36 32-61l15-61q6 12 21 20t33 8q52 0 85-43 34-43 34-108 0-24-11-47-10-23-28-40-17-18-44-28-26-11-57-11-30 0-56 8t-44 22q-19 14-32 32t-19 37q-6 19-6 39 0 29 11 52t34 32h7q3-2 4-6l4-18q2-6-3-12-14-18-14-43 0-44 30-75 30-30 78-30 43 0 67 23 25 24 25 61 0 49-20 83t-50 34q-18 0-28-13t-7-30q2-10 8-26l8-30q4-13 4-22 0-14-8-23-8-10-22-10-18 0-30 17-12 16-12 40 0 21 7 35l-29 120q-7 29-2 74H84q-34 0-59-25T1 395V117q0-34 24-59t59-24h278z"></path>
</symbol>
<symbol id="vjs-icon-play" viewBox="0 0 512 512">
<path d="M128 93v327l256-164z"></path>
</symbol>
<symbol id="vjs-icon-pause" viewBox="0 0 512 512">
<path d="M116 420h93V93h-93v327zM303 93v326h93V93h-93z"></path>
</symbol>
<symbol id="vjs-icon-mute" viewBox="0 0 512 512">
<path d="M354 250q0-28-15-52t-39-35v48l53 53v-7l1-7zm54 0q0 15-4 30t-8 27l33 33q10-20 16-43t6-47q0-34-12-66-11-31-32-56t-47-42q-28-18-60-25v44q23 7 43 21t34 33 23 42q8 24 8 49zM89 56 62 83l102 102H62v130h86l108 108V278l92 92-23 15q-12 7-25 10v45q22-5 42-15t37-24l44 44 28-28L89 56zm167 21-45 45 45 46V77z"></path>
</symbol>
<symbol id="vjs-icon-volume3" viewBox="0 0 512 512">
<path d="M62 185v130h86l108 108V77L148 185H62zm292 65q0-28-15-52t-39-35v174q24-12 39-35t15-52zM300 61v44q23 7 43 21t34 33 23 42q8 24 8 49t-8 49q-9 23-23 42t-34 33q-20 14-43 21v45q32-7 60-25 27-18 47-43t32-56 12-66-12-66-32-56-47-43q-28-17-60-24z"></path>
</symbol>
<symbol id="vjs-icon-volume2" viewBox="0 0 512 512">
<path d="M61 185v130h87l108 108V77L148 185zm292 65c0-19-5-36-15-52s-23-27-39-35v174a98 98 0 0 0 54-87z"></path>
</symbol>
<symbol id="vjs-icon-volume1" viewBox="0 0 512 512">
<path d="M62 184v130h86l108 108V76L148 184z"></path>
</symbol>
<symbol id="vjs-icon-pip" viewBox="0 0 512 512">
<path d="M407 83H108q-21 0-36 13t-14 30v260q0 18 14 30t36 13h299q21 0 34-13t14-30V126q0-18-14-30t-34-13zm15 308H97l-1-270h326v270zM264 261h133v109H264V261z"></path>
</symbol>
<symbol id="vjs-icon-descriptions" viewBox="0 0 512 512">
<path d="M429 83H83q-18 0-31 13t-12 30v260q0 18 12 30t31 13h346q18 0 31-13t13-30V126q0-17-13-30t-31-13zM83 256h87v44H83v-44zm217 130H83v-43h217v43zm129 0h-86v-43h86v43zm0-86H213v-44h216v44z"></path>
</symbol>
<symbol id="vjs-icon-captions" viewBox="0 0 512 512">
<path d="M408 83H105q-18 0-31 13t-12 30v260q0 18 12 30t31 13h303q18 0 30-13t13-30V126q0-17-13-30t-30-13zM235 235h-33v-11h-43v65h43v-11h33v22q0 8-7 15t-15 6h-65q-9 0-15-6t-7-15v-87q0-9 7-15t15-7h65q9 0 15 7t7 15v22zm151 0h-32v-11h-44v65h44v-11h32v22q0 8-6 15t-16 6h-64q-9 0-16-6t-6-15v-87q0-9 6-15t16-7h64q9 0 16 7t6 15v22z"></path>
</symbol>
<symbol id="vjs-icon-chapters" viewBox="0 0 512 512">
<path d="M33 281h49v-50H33v50zm0 99h49v-49H33v49zm0-199h49v-49H33v49zm99 100h347v-50H132v50zm0 99h347v-49H132v49zm0-248v49h347v-49H132z"></path>
</symbol>
<symbol id="vjs-icon-share" viewBox="0 0 512 512">
<path d="M386 346q-12 0-23 4t-19 12l-155-90 2-7v-16q1-4-2-7l153-89q9 8 20 13t24 5q27 0 46-19t19-46-19-46-46-19q-27 0-46 19t-19 46l1 7 1 8-152 89q-9-8-21-13t-24-5q-26 0-45 19t-19 46 19 46 45 19q13 0 24-5t21-12l154 89-2 7v8q0 26 18 44t45 19q26 0 45-19t18-44q0-27-18-45t-45-18z"></path>
</symbol>
<symbol id="vjs-icon-settings" viewBox="0 0 512 512">
<path d="m405 276 1-10v-20l-1-10 42-33q3-2 3-5t-1-7l-40-70q-2-3-5-4t-7 0l-50 20-16-11-17-9-8-53q0-3-3-6t-7-2h-80q-4 0-7 2t-3 6l-8 53-17 9-16 11-50-20h-7q-3 1-5 4l-40 70q-2 3-1 7t3 5l42 33-1 10v20l1 10-42 33q-3 2-3 5t1 7l40 70q2 3 5 4t7 0l50-20 16 11 17 9 8 53q0 3 3 6t7 2h80q4 0 7-2t3-6l7-53 18-9 16-11 50 20h7q4-1 5-4l40-70q2-3 1-7t-3-5l-42-33zm-149 50q-29 0-50-20t-20-50 20-50 50-20q29 0 50 20t20 50-20 50-50 20z"></path>
</symbol>
<symbol id="vjs-icon-close" viewBox="0 0 512 512">
<path d="M256 40q-45 0-84 17t-69 46-46 69q-17 39-17 84t17 84q17 40 46 69t69 47q39 17 84 17t84-17q40-17 69-47t47-69q17-39 17-84t-17-84q-17-39-47-69t-69-46q-39-17-84-17zm108 294-30 30-78-77-77 77-31-30 78-78-78-77 31-31 77 78 78-78 30 31-77 77z"></path>
</symbol>
<symbol id="vjs-icon-replay" viewBox="0 0 512 512">
<path d="M256 126V40L148 148l108 108v-86q27 0 51 10 23 10 41 28t28 41q10 24 10 51 0 26-10 50t-28 41-41 28q-24 10-51 10t-50-10q-24-10-42-28t-27-41q-11-24-11-50H83q0 35 14 67t37 55 55 37q31 14 67 14t68-14q31-14 55-37t37-55 13-67q0-36-13-68t-37-55-55-37q-32-14-68-14z"></path>
</symbol>
<symbol id="vjs-icon-audio" viewBox="0 0 512 512">
<path d="M256 62.5q-37.7 0-71.5 14.7-33.3 14.2-58 39.2T87 174.7q-14.2 33.3-14.2 71v142.6q0 25.4 17.9 43.3t43.3 17.9h60.8V286.4h-81.4v-40.7q0-29.4 11.3-55.3t30.6-45.4 45.3-30.6 55.4-11.2 55.4 11.2 45.3 30.6 30.6 45.4 11.3 55.3v40.7h-81.4v163.1H378q25.5 0 43.3-17.9t18-43.3V245.7q0-37.7-14.3-71-14.7-33.3-39.4-58.3t-58-39.2Q293.6 62.5 256 62.5z"></path>
</symbol>
<symbol id="vjs-icon-forward5" viewBox="0 0 512 512">
<path d="m285 374 28-2q1 9 7 14t13 5q9 0 15-6 6-7 6-21 0-13-6-19-6-7-15-7-13 0-22 10l-23-3 14-73h75v25h-53l-5 24q10-4 20-4 18 0 31 13t13 33q0 18-10 31-15 19-40 19-20 0-33-10t-15-29zM64 147v256c0 2 1 5 3 6s4 3 7 3h128v-39h-99V176h236v40c0 5 2 9 5 10s8 1 12-1l85-58c3-1 5-3 6-6s1-7 0-10l-3-3-3-2-85-57c-4-3-8-4-12-2s-5 5-5 11v39H74c-3 0-5 1-7 3s-3 4-3 7z"></path>
</symbol>
<symbol id="vjs-icon-forward10" viewBox="0 0 512 512">
<path d="M64 147v256q0 4 3 7t7 2h128v-39h-99V176h236v40q0 8 5 11t12-2l85-58q5-1 6-6t0-10l-3-3-3-2-85-57q-7-5-12-2t-5 11v39H74q-4 0-7 3t-3 7zm330 149q-6-9-15-15t-21-6q-11 0-21 6t-15 15q-14 22-14 48t14 47q6 10 15 15t21 6q11 0 21-6t15-15q13-22 13-47t-13-48zm-36 97q-12 0-21-15t-9-35q0-20 9-34t21-15q11 0 20 15t9 34q0 21-8 35t-21 15zm-89 19V309l-10 9-13-14 26-26q5-5 11-2t6 9v128z"></path>
</symbol>
<symbol id="vjs-icon-forward20" viewBox="0 0 512 512">
<path d="M64 147v256c0 3 1 5 3 7s4 3 7 3h128v-40h-99V177h236v39c0 5 2 9 5 10s8 2 12-1l85-57 5-5 2-6v-3l-1-3-2-3-4-2-85-57c-4-3-8-4-12-2s-5 5-5 10v40H74c-3 0-5 1-7 3s-3 4-3 7zm272 239v25h-90q1-14 9-27 7-12 28-33 18-17 22-23 5-8 5-16 0-9-5-14-4-4-12-4t-13 5-6 16l-25-2q2-22 14-32t30-10q20 0 31 12t12 27q0 9-4 18-3 8-10 18l-17 17q-12 11-15 16l-5 7zm60-115q19 0 30 15 13 17 13 56 0 40-13 57-11 14-30 14t-31-15q-12-16-12-56 0-39 13-56 11-15 30-15zm0 23q-5 0-8 3-4 3-6 11-2 10-2 34t2 34q2 9 6 12 3 3 8 3t8-3q4-3 6-11 3-10 3-35t-3-33q-2-9-6-12-3-3-8-3z"></path>
</symbol>
<symbol id="vjs-icon-forward30" viewBox="0 0 512 512">
<path d="M64 147v256c0 3 1 5 3 7s4 3 7 3h128v-40h-99V177h236v39c0 5 2 9 5 10s8 2 12-1l85-57 5-5 2-6v-3l-1-3-2-3-4-2-85-57c-4-3-8-4-12-2s-5 5-5 10v40H74c-3 0-5 1-7 3s-3 4-3 7zm184 227 25-3q1 10 6 15t13 5q8 0 13-6 6-6 6-17 0-10-5-16t-13-6l-12 2 3-21q10 0 16-5 5-5 5-13 0-7-4-11t-10-5q-7 0-12 5t-5 14l-24-4q3-13 8-20 5-8 13-12 9-5 20-5 19 0 31 13 9 10 9 23 0 18-19 29 11 3 18 12t7 21q0 18-13 31t-32 13q-18 0-30-11-12-10-14-28zm148-103q19 0 30 15 13 17 13 56 0 40-13 57-11 14-30 14t-31-15q-12-16-12-56 0-39 13-56 11-15 30-15zm0 23q-5 0-8 3-4 3-6 11-2 10-2 34t2 34q2 9 6 12 3 3 8 3t8-3q4-3 6-11 3-10 3-35t-3-33q-2-9-6-12-3-3-8-3z"></path>
</symbol>
<symbol id="vjs-icon-rewind5" viewBox="0 0 512 512">
<path d="m111 341 28-2q2 9 7 14 6 5 14 5 9 0 15-6 6-7 6-21 0-13-6-19-6-7-16-7-12 0-22 10l-22-3 14-73h75v25h-54l-4 24q9-4 19-4 19 0 32 13t13 33q0 18-10 31-15 19-40 19-21 0-33-10t-16-29zm337-226v256l-3 6c-2 2-4 3-7 3H310v-39h99V144H173v40c0 5-2 9-5 10s-8 1-12-2l-85-57c-3-1-5-3-6-7s-1-6 0-9l3-3 3-2 85-57c4-3 8-4 12-2s5 5 5 11v39h265c3 0 5 1 7 3s3 4 3 7z"></path>
</symbol>
<symbol id="vjs-icon-rewind10" viewBox="0 0 512 512">
<path d="M242 297q-6-10-15-16t-21-6q-11 0-21 6t-15 15v1q-6 10-10 22t-4 25 4 25 10 23v-1q5 10 15 16t21 6q11 0 21-6t15-15v-1q6-10 10-22t3-25-3-25-10-23v1zm-36 96q-12 0-21-14t-9-35 9-35 21-14 21 14 9 35-9 35-21 14zm-89 20V309l-10 10-14-14 27-27 3-2 4-1q4 0 7 3t3 7v128h-20zm331-266v256q0 4-3 7t-7 3H310v-40h99V177H173v39q0 8-5 10t-12-1l-85-57-5-5-2-6v-3l1-3 2-3q1-2 4-2l85-57q7-5 12-2t5 11v39h265q4 0 7 3t3 7z"></path>
</symbol>
<symbol id="vjs-icon-rewind20" viewBox="0 0 512 512">
<path d="M448 147v256l-3 6c-2 2-4 3-7 3H310v-39h99V176H173v39c0 6-2 9-5 11s-8 1-12-2l-85-57-5-4-2-7v-3l1-2 2-3 4-3 85-57c4-3 8-3 12-2s5 6 5 11v40h265l7 2c2 1 3 5 3 8zM161 387v24H71q2-14 9-26 7-13 29-34 17-16 21-22 5-8 5-17 0-8-4-13-5-5-13-5t-13 5-5 17l-26-3q3-22 15-31t30-10q19 0 31 11t11 28q0 9-3 17-3 9-10 18l-17 18-16 15-5 8zm61-115q19 0 30 14 13 17 13 57 0 39-13 56-11 15-30 15-20 0-32-16-12-15-12-55t13-57q11-14 31-14zm0 22q-5 0-9 3-3 3-5 11-3 10-3 35t2 33q3 10 6 13 4 3 9 3t8-3q3-4 5-11 3-11 3-35t-2-34q-3-9-6-12-4-3-8-3z"></path>
</symbol>
<symbol id="vjs-icon-rewind30" viewBox="0 0 512 512">
<path d="M448 147v256l-3 6c-2 2-4 3-7 3H310v-39h99V176H173v39c0 6-2 9-5 11s-8 1-12-2l-85-57-5-4-2-7v-3l1-2 2-3 4-3 85-57c4-3 8-3 12-2s5 6 5 11v40h265l7 2c2 1 3 5 3 8zM74 374l25-3q1 10 6 15t12 6q8 0 14-7 5-6 5-16 0-11-5-16t-13-6l-11 2 2-22q11 0 16-5 6-5 6-13 0-7-4-11t-11-4q-6 0-11 5t-6 13l-23-4q2-12 7-20 5-7 14-12 9-4 20-4 19 0 30 12 9 11 9 24 0 18-19 29 12 2 18 11 7 9 7 22 0 18-12 31t-32 13q-18 0-30-11t-14-29zm148-102q19 0 30 14 13 17 13 57 0 39-13 56-11 15-30 15-20 0-32-16-12-15-12-55t13-57q11-14 31-14zm0 22q-5 0-9 3-3 3-5 11-3 10-3 35t2 33q3 10 6 13 4 3 9 3t8-3q3-4 5-11 3-11 3-35t-2-34q-3-9-6-12-4-3-8-3z"></path>
</symbol>
<symbol id="vjs-icon-playlist" viewBox="0 0 512 512">
<path d="M47 172h334v56H47v-56zm0-111h334v56H47V61zm0 223h223v56H47v-56zm279 0v167l139-84z"></path>
</symbol>
<symbol id="vjs-icon-big-play" viewBox="0 0 512 512">
<path d="M168 93v327l256-164z"></path>
</symbol>
</defs>
</svg>
