<svg xmlns="http://www.w3.org/2000/svg">
<defs>
<symbol id="vjs-icon-pip-full" viewBox="0 0 512 512">
<path d="M407 83H108q-20 0-35 13t-15 30v260q0 18 15 30t35 13h299q21 0 34-13t13-30V126q0-17-13-30t-34-13zm15 308H97l-1-270h326v270zM117 140h279v230H117V140z"></path>
</symbol>
<symbol id="vjs-icon-expand" viewBox="0 0 512 512">
<path d="M66 432h45V81H66zM401 81v350h45V81zm-88 200-47 1-1-31 48-1v-66l89 83-89 82zm-110 3 48-1-1-31-47 1 1-66-94 81 94 81z"></path>
</symbol>
<symbol id="vjs-icon-expand-back" viewBox="0 0 512 512">
<path d="M179 416h45V97h-45zM288 97v318h45V97zm127 163 52-1v-29l-52 1v-68l-83 83 83 82zm-318-2H45l1-28 50-1v-69l84 82-84 83z"></path>
</symbol>
<symbol id="vjs-icon-download" viewBox="0 0 512 512">
<path d="M409 287v100H103V287H44v129c0 17 13 30 30 30h364c17 0 30-13 30-30V287zm-158 48-85-101s-10-5 1-12h48V73s-2-7 9-7h67c8 0 7 6 7 6v147h44c17 0 4 12 4 12s-71 95-81 105c-7 8-14-1-14-1z"></path>
</symbol>
<symbol id="vjs-icon-snapshot" viewBox="0 0 512 512">
<path d="M266 197a88 88 0 1 0 0 176 88 88 0 0 0 0-176zm-34 29a68 68 0 0 1 101 51c-33-26-73-42-101-51zm229-107h-94l-13-39H158l-13 39H70c-21 0-49 18-49 39v235c0 21 28 39 49 39h391c22 0 30-18 30-39V158c0-21-8-39-30-39zM266 412a127 127 0 1 1 0-254 127 127 0 0 1 0 254zm186-215h-40v-39h40v39z"></path>
</symbol>
<symbol id="vjs-icon-center" viewBox="0 0 512 512">
<path d="M448 232h-38q-4-25-15-47t-28-39-40-29q-22-11-47-15V64h-48v38q-25 4-47 15t-39 29-29 39q-11 22-15 47H64v48h38q4 25 15 47t29 40 39 28q22 11 47 15v38h48v-38q25-4 47-15t40-28 28-40q11-22 15-47h38v-48zm-87 0h-37q-5-15-17-27t-27-17v-37q30 6 53 29t28 52zm-105 48q-10 0-17-7t-7-17q0-10 7-17t17-7q10 0 17 7t7 17q0 10-7 17t-17 7zm-24-129v37q-15 5-27 17t-17 27h-37q6-30 29-52t52-29zm-81 129h37q5 15 17 27t27 17v37q-30-6-52-28t-29-53zm129 81v-37q15-5 27-17t17-27h37q-6 30-28 53t-53 28z"></path>
</symbol>
<symbol id="vjs-icon-mirror1" viewBox="0 0 512 512">
<path d="M433 54h25v202h-25V54zM54 256h25v203H53V256zm126 76h279v51H180v63l-89-89 89-88v63zm152-152H54v-51h278V66l89 89-89 88v-63z"></path>
</symbol>
<symbol id="vjs-icon-mirror2" viewBox="0 0 512 512">
<path d="M79 53H53v203h26V53zm380 203h-26v203h26V256zm-127 76H54v51h278v63l89-89-89-88v63zM180 180h279v-51H180V66l-89 89 89 88v-63z"></path>
</symbol>
<symbol id="vjs-icon-big-replay" viewBox="0 0 512 512">
<path d="m327 142 32-72 49 131-120 22 30-64c-15-7-32-11-48-11-15-1-39 2-53 7s-39 21-50 32c-12 10-24 29-31 43-7 15-11 37-11 53-1 16 2 30 7 44s17 36 27 48c11 11 28 27 42 34s44 11 59 12c16 0 40-7 54-12a134 134 0 0 0 72-67l18 8a153 153 0 0 1-88 82 158 158 0 0 1-212-152c1-21 6-41 15-60a154 154 0 0 1 87-82 158 158 0 0 1 121 4z"></path>
</symbol>
<symbol id="vjs-icon-brightness" viewBox="0 0 512 512">
<path d="M250 6c-4 2-8 7-9 11v38c0 33 0 34 2 37 4 5 7 7 13 7s10-2 13-7c2-3 2-4 2-40s0-37-2-40l-4-4c-3-3-11-4-15-2zM85 75c-5 1-9 6-10 11-3 8-2 9 26 37 21 21 26 25 29 26 11 3 22-8 19-19-1-3-5-8-25-28-28-28-30-30-39-27zm332 0-29 27c-20 20-24 25-25 28-3 11 8 22 19 19 4-1 9-5 29-25 26-26 28-30 27-37-2-10-12-16-21-12zm-175 56c-20 3-39 10-56 21-10 7-27 24-34 33-9 14-16 30-19 47a123 123 0 0 0 35 113 123 123 0 0 0 177-1 123 123 0 0 0 0-176c-19-18-38-29-62-35-8-2-33-3-41-2zm37 34c18 4 31 12 44 26a92 92 0 0 1 0 131c-10 9-14 13-25 18-15 8-30 11-47 10-24-1-43-10-61-27a92 92 0 0 1-26-46c-2-9-2-33 0-42 5-17 13-32 25-45a91 91 0 0 1 90-25zM14 242c-6 3-10 10-9 18 1 4 6 10 11 11l38 1c34-1 35-1 38-3 5-4 7-7 7-13s-2-9-7-13c-3-2-4-2-39-2-28-1-36 0-39 1zm408 0c-6 3-10 10-8 18 0 4 5 10 10 11l38 1c34-1 36-1 38-3 5-4 7-7 7-13s-2-9-7-13c-2-2-4-2-39-2-28-1-36 0-39 1zM129 364c-3 1-10 7-28 26-21 20-25 25-26 28-4 12 7 23 19 20 3-1 8-6 29-27s25-26 26-29c3-12-8-23-20-18zm244 0c-7 2-12 11-10 18 1 3 6 8 25 29 27 26 30 28 37 27 5-1 11-6 13-11 2-9 1-10-26-37l-26-25c-4-3-8-3-13-1zm-123 50c-4 2-8 7-9 11v38c0 33 0 34 2 37 4 5 7 7 13 7s10-2 13-7c2-3 2-4 2-40s0-37-2-40l-4-4c-3-3-11-3-15-2z"></path>
</symbol>
<symbol id="vjs-icon-saturation" viewBox="0 0 512 512">
<path d="M256 5a251 251 0 1 0 0 502 251 251 0 0 0 0-502zm0 28c115 0 221 107 221 222 0 0-43-20-117-20-62 0-104 21-104 21s-63 21-105 21c-73 0-116-25-116-25C35 136 141 33 256 33z"></path>
</symbol>
<symbol id="vjs-icon-contrast" viewBox="0 0 512 512">
<path d="M256 507a251 251 0 1 1 0-502 251 251 0 0 1 0 502zm7-467C155 41 39 132 39 255c0 104 114 217 218 218 107 1 221-111 219-216-2-103-104-217-213-217zm-7 373V99a157 157 0 1 1 0 314z"></path>
</symbol>
<symbol id="vjs-icon-filters" viewBox="0 0 512 512">
<path d="M341 398h171v29H341zm-113 0H0v29h228v85h28V341h-28zm85-227h28V0h-28v57H0v28h313zM427 57v28h85V57zM85 341h29V171H85v57H0v28h85zm114-85h313v-28H199zm142 170h171v29H341zm-85 0H0v29h256v57h28V341h-28zm85-255h28V0h-28v85H0v29h341zm86-86v29h85V85zM113 341h29V171h-29v85H0v28h113zm86-57h313v-28H199z"></path>
</symbol>
<symbol id="vjs-icon-related" viewBox="0 0 512 512">
<path d="M146 376v55q0 12-8 20t-20 8H26q-11 0-20-8t-8-20v-55q0-12 8-20t20-8h92q12 0 20 8t8 20zm0-147v55q0 11-8 19t-20 8H26q-11 0-20-8t-8-19v-55q0-12 8-20t20-8h92q12 0 20 8t8 20zm184 147v55q0 12-8 20t-20 8h-92q-11 0-19-8t-8-20v-55q0-12 8-20t19-8h92q12 0 20 8t8 20zM146 81v56q0 11-8 19t-20 8H26q-11 0-20-8t-8-19V81q0-11 8-19t20-8h92q12 0 20 8t8 19zm184 148v55q0 11-8 19t-20 8h-92q-11 0-19-8t-8-19v-55q0-12 8-20t19-8h92q12 0 20 8t8 20zm184 147v55q0 12-8 20t-20 8h-92q-11 0-19-8t-8-20v-55q0-12 8-20t19-8h92q12 0 20 8t8 20zM330 81v56q0 11-8 19t-20 8h-92q-11 0-19-8t-8-19V81q0-11 8-19t19-8h92q12 0 20 8t8 19zm184 148v55q0 11-8 19t-20 8h-92q-11 0-19-8t-8-19v-55q0-12 8-20t19-8h92q12 0 20 8t8 20zm0-148v56q0 11-8 19t-20 8h-92q-11 0-19-8t-8-19V81q0-11 8-19t19-8h92q12 0 20 8t8 19z"></path>
</symbol>
<symbol id="vjs-icon-cancel" viewBox="0 0 409 512">
<path d="M377 361q0 12-8 20l-40 39q-8 8-20 8-11 0-19-8l-85-85-85 85q-8 8-20 8t-20-8l-39-39q-8-8-8-20t8-20l85-85-85-85q-8-8-8-19 0-12 8-20l39-40q8-8 20-8t20 8l85 86 85-86q8-8 19-8 12 0 20 8l40 40q8 8 8 20 0 11-8 19l-86 85 86 85q8 8 8 20z"></path>
</symbol>
<symbol id="vjs-icon-help" viewBox="0 0 445 512">
<path d="M259 395v-56q0-4-2-6t-7-3h-55q-4 0-7 3t-2 6v56q0 4 2 7 3 2 7 2h55q4 0 7-2 2-3 2-7zm74-194q0-26-16-47t-40-34-49-12q-70 0-107 62-4 7 2 12l39 29q2 2 5 2 5 0 7-4 16-19 25-26t25-7q14 0 25 7 10 8 10 17 0 11-5 18-6 6-20 13-18 8-33 25t-15 36v10q0 4 2 7 3 3 7 3h55q4 0 7-3 2-3 2-7 0-5 7-14 6-9 15-14l15-8 13-10 13-14 8-18q3-11 3-23zm111 55q0 61-29 112-30 51-81 80-51 30-112 30-60 0-111-30-51-29-81-80Q1 317 1 256t29-111q30-51 81-81t111-30q61 0 112 30t81 81q29 51 29 111z"></path>
</symbol>
<symbol id="vjs-icon-info" viewBox="0 0 445 512">
<path d="M296 395v-46q0-4-2-7-3-3-7-3h-28V192q0-4-2-7-3-3-7-3h-92q-4 0-7 3-2 3-2 7v46q0 4 2 6 3 3 7 3h28v92h-28q-4 0-7 3-2 3-2 7v46q0 4 2 7 3 2 7 2h129q4 0 7-2 2-3 2-7zm-37-259V90q0-4-2-7t-7-2h-55q-4 0-7 2t-2 7v46q0 4 2 7t7 2h55q4 0 7-2t2-7zm185 120q0 61-29 112-30 51-81 80-51 30-112 30-60 0-111-30-51-29-81-80Q1 317 1 256t29-111q30-51 81-81t111-30q61 0 112 30t81 81q29 51 29 111z"></path>
</symbol>
<symbol id="vjs-icon-fullscreen" viewBox="0 0 445 512">
<path d="M219 299q0 3-3 6l-89 89 39 39q5 5 5 12t-5 12-12 5H34q-7 0-12-5t-6-12V325q0-7 6-12t12-6 12 6l38 38 89-89 6-2q4 0 6 2l31 31q3 2 3 6zM428 67v120q0 7-5 12t-12 6-12-6l-39-38-89 89-6 2q-4 0-6-2l-30-31q-3-2-3-6 0-3 3-6l89-89-39-39q-5-5-5-12t5-12 12-5h120q7 0 12 5t5 12z"></path>
</symbol>
<symbol id="vjs-icon-fullscreen-back" viewBox="0 0 445 512">
<path d="M222 275v129q0 8-5 13-5 6-13 6t-13-6l-42-41-95 95q-3 3-7 3t-7-3L7 438q-3-2-3-6t3-7l96-96-41-41q-6-6-6-13t6-13 13-6h129q8 0 13 6 5 5 5 13zM441 81q0 3-3 6l-96 96 41 42q6 5 6 13t-6 13-13 5H241q-8 0-13-5-5-6-5-13V108q0-7 5-13 5-5 13-5t13 5l42 42 95-96q3-3 7-3t7 3l33 33q3 3 3 7z"></path>
</symbol>
<symbol id="vjs-icon-twitter" viewBox="0 0 446 512">
<path d="M371 173q-16 8-35 10 20-11 27-34-19 11-39 15-17-19-44-19-25 0-43 18t-18 43q0 8 2 14-38-2-70-19-33-17-56-45-8 15-8 31 0 33 26 50-14 0-29-7 0 22 15 39t35 21l-15 2-11-1q6 18 22 30t35 13q-34 26-76 26l-14-1q43 27 93 27 32 0 61-10 28-11 48-28 21-17 35-40 15-22 22-46 7-25 7-49v-8q18-13 30-32zm74-56v278q0 35-24 59-25 24-59 24H84q-34 0-59-24-24-24-24-59V117q0-34 24-59 25-24 59-24h278q34 0 59 24 24 25 24 59z"></path>
</symbol>
<symbol id="vjs-icon-facebook" viewBox="0 0 446 512">
<path d="M362 34q34 0 59 24 24 25 24 59v278q0 35-24 59-25 24-59 24h-55V306h58l9-67h-67v-43q0-16 7-24t27-8h35v-60q-18-3-51-3-40 0-63 23t-24 66v49h-58v67h58v172H84q-34 0-59-24-24-24-24-59V117q0-34 24-59 25-24 59-24h278z"></path>
</symbol>
<symbol id="vjs-icon-linkedin" viewBox="0 0 446 512">
<path d="M69 406h67V205H69v201zm72-263q-1-15-11-24-10-10-27-10t-27 10q-11 9-11 24t11 25q10 10 26 10h1q17 0 27-10t11-25zm169 263h67V291q0-45-21-67-22-23-56-23-40 0-61 34h1v-30h-67v201h67V294q0-11 2-16 4-10 13-18 9-7 21-7 34 0 34 46v107zm135-289v278q0 35-24 59-25 24-59 24H84q-34 0-59-24-24-24-24-59V117q0-34 24-59 25-24 59-24h278q34 0 59 24 24 25 24 59z"></path>
</symbol>
<symbol id="vjs-icon-pinterest" viewBox="0 0 446 512">
<path d="M362 34q34 0 59 24 24 25 24 59v278q0 35-24 59-25 24-59 24H152q25-35 31-60l16-61q6 12 21 20t33 8q52 0 85-43t33-108q0-24-10-47t-28-40q-18-18-44-28-26-11-57-11-30 0-56 8-26 9-45 22-18 14-31 32t-19 37q-6 19-6 39 0 29 11 52t34 31q4 2 7 0 3-1 4-5l4-18q2-6-3-12-14-18-14-43 0-44 30-74 30-31 78-31 43 0 67 23t24 61q0 49-19 83t-50 34q-18 0-28-13-11-12-7-30 2-10 8-26l8-30q3-13 3-22 0-14-7-23-8-10-22-10-18 0-30 17t-13 40q0 21 7 35l-28 120q-7 29-2 73H84q-34 0-59-24-24-24-24-59V117q0-34 24-59 25-24 59-24h278z"></path>
</symbol>
<symbol id="vjs-icon-play" viewBox="0 0 512 512">
<path d="M131 97v318l250-159z"></path>
</symbol>
<symbol id="vjs-icon-pause" viewBox="0 0 512 512">
<path d="M120 415h91V97h-91v318zM301 97v318h91V97h-91z"></path>
</symbol>
<symbol id="vjs-icon-mute" viewBox="0 0 512 512">
<path d="M356 252q0-28-15-51t-39-36v48l54 53v-14zm54 0q0 15-3 30t-8 27l33 33q10-20 16-43t6-47q0-34-12-66-11-31-32-56t-47-42q-28-18-61-25v44q24 7 44 21 19 14 34 33t22 42q8 24 8 49zM92 58 65 85l102 102H65v130h86l108 108V280l92 92-23 15q-12 7-26 10v45q23-5 43-15t37-24l44 44 28-28zm167 21-45 46 45 45z"></path>
</symbol>
<symbol id="vjs-icon-volume1" viewBox="0 0 512 512">
<path d="M65 187v130h86l108 108V79L151 187z"></path>
</symbol>
<symbol id="vjs-icon-volume2" viewBox="0 0 512 512">
<path d="M65 187v130h86l108 108V79L151 187zm282 63a89 89 0 0 0-47-79v159c14-8 25-18 34-33s13-29 13-47z"></path>
</symbol>
<symbol id="vjs-icon-volume3" viewBox="0 0 512 512">
<path d="M65 187v130h86l108 108V79L151 187zm282 63a89 89 0 0 0-47-79v159c14-8 25-18 34-33s13-29 13-47zM300 77v41a129 129 0 0 1 67 49c8 11 15 24 20 38a144 144 0 0 1-50 159c-11 8-24 14-37 19v40a160 160 0 0 0 94-61 183 183 0 0 0-42-263c-16-10-34-18-52-22z"></path>
</symbol>
<symbol id="vjs-icon-pip" viewBox="0 0 512 512">
<path d="M407 83H108q-20 0-35 13t-15 30v260q0 18 15 30t35 13h299q21 0 34-13t13-30V126q0-17-13-30t-34-13zm15 308H97l-1-270h326v270zM264 261h133v109H264V261z"></path>
</symbol>
<symbol id="vjs-icon-descriptions" viewBox="0 0 512 512">
<path d="M429 83H83q-18 0-30 13t-13 31v259q0 18 13 30t30 13h346q18 0 31-13t12-30V127q0-18-12-31t-31-13zM83 256h87v43H83v-43zm216 130H83v-43h216v43zm130 0h-86v-43h86v43zm0-87H213v-43h216v43z"></path>
</symbol>
<symbol id="vjs-icon-captions" viewBox="0 0 512 512">
<path d="M417 71H95q-20 0-33 14t-14 33v276q0 20 14 33t33 14h322q20 0 33-14t14-33V118q0-20-14-33t-33-14zM233 233h-35v-12h-46v70h46v-12h35v23q0 10-7 17t-16 7h-69q-10 0-17-7t-6-17v-92q0-10 6-17t17-7h69q10 0 16 7t7 17v23zm161 0h-34v-12h-46v70h46v-12h34v23q0 10-6 17t-17 7h-69q-10 0-16-7t-7-17v-92q0-10 7-17t16-7h69q10 0 17 7t6 17v23z"></path>
</symbol>
<symbol id="vjs-icon-chapters" viewBox="0 0 512 512">
<path d="M18 282h53v-52H18v52zm0 106h53v-53H18v53zm0-211h53v-53H18v53zm106 105h370v-52H124v52zm0 106h370v-53H124v53zm0-264v53h370v-53H124z"></path>
</symbol>
<symbol id="vjs-icon-share" viewBox="0 0 512 512">
<path d="M386 345q-12 0-23 5t-20 12l-154-90 2-7v-16q1-4-2-7l153-89q8 8 20 13t24 5q27 0 46-19t19-46q0-27-19-46t-46-19q-27 0-46 19t-19 46l1 7 1 8-152 89q-9-8-20-13t-24-5q-27 0-46 19t-19 46 19 46 46 19q12 0 24-5t20-12l154 89-2 7v7q0 27 18 45t45 18 44-18 19-45q0-26-19-44t-44-19z"></path>
</symbol>
<symbol id="vjs-icon-settings" viewBox="0 0 512 512">
<path d="m411 277 1-11v-20q1-6-1-10l44-34q3-3 3-7t-1-7l-41-72q-2-3-6-5t-7 1l-52 21q-8-7-17-12t-18-9l-8-55q-1-4-4-6t-6-3h-83q-4 0-7 3t-4 6l-7 55-19 9q-9 5-17 12l-51-21q-4-2-8-1t-5 5l-42 72q-2 4-1 7t4 7l44 34-1 10-1 10q-1 5 1 10t1 11l-44 34q-3 2-4 6t1 7l42 72q2 4 5 5t8 0l51-21 17 11 19 9 7 56 4 6q3 3 7 2h83q4 0 6-2t4-6l8-56 18-9 17-11 52 21h7q4-1 6-5l41-72q2-3 1-7t-3-6l-44-34zm-155 52q-30 0-51-21t-22-52 22-51 51-22 51 22 22 51-22 52-51 21z"></path>
</symbol>
<symbol id="vjs-icon-close" viewBox="0 0 512 512">
<path d="M256 40q-45 0-84 17t-69 46-46 69q-17 39-17 84t17 84q17 40 46 69t69 46q39 17 84 17t84-17q40-17 69-46t46-69q17-39 17-84t-17-84q-17-39-46-69t-69-46q-39-17-84-17zm108 294-30 30-78-77-77 77-31-30 78-78-78-77 31-31 77 78 78-78 30 31-77 77 77 78z"></path>
</symbol>
<symbol id="vjs-icon-replay" viewBox="0 0 512 512">
<path d="M256 127V40L148 148l108 108v-86q27 0 51 10 23 10 41 28t28 41q10 24 10 50 0 27-10 51t-28 41-41 28q-24 10-51 10t-50-10q-24-10-42-28t-27-41q-10-24-10-51H83q0 36 14 68 14 31 37 55t55 37 67 13 68-13 54-37 38-55q13-32 13-68 0-35-13-67-14-31-38-55t-54-37-68-13z"></path>
</symbol>
<symbol id="vjs-icon-audio" viewBox="0 0 512 512">
<path d="M256 55q-39 0-74 15t-61 41-40 60q-16 35-16 74v149q0 26 19 44t45 19h63V288h-84v-43q0-30 11-57t32-48 47-31q27-12 58-12t58 12q27 11 47 31t32 48 11 57v43h-84v169h63q27 0 45-19t19-44V245q0-39-16-74-14-34-40-60t-61-41-74-15z"></path>
</symbol>
<symbol id="vjs-icon-forward5" viewBox="0 0 512 512">
<path d="m285 381 28-3q1 9 7 15 6 5 13 5 9 0 15-7t6-21q0-13-6-19t-15-6q-13 0-22 10l-23-3 14-74h75v26h-53l-5 24q10-5 20-5 18 0 31 13t13 34q0 17-10 31-15 19-40 19-20 0-33-11t-15-28zM64 153v256c0 3 1 5 3 7s4 3 7 3h128v-39h-99V183h236v39c0 6 2 9 5 11s8 1 12-2l85-57c3-1 5-4 6-7s1-6 0-9l-3-4-3-2-85-57c-4-3-8-3-12-2s-5 6-5 11v39H74c-3 0-5 1-7 3s-3 5-3 7z"></path>
</symbol>
<symbol id="vjs-icon-forward10" viewBox="0 0 512 512">
<path d="M64 153v256q0 4 3 7t7 3h128v-39h-99V183h236v40q0 8 5 10t12-2l85-57q5-2 6-7t0-9l-3-4-3-2-85-57q-7-4-12-1t-5 10v39H74q-4 0-7 4t-3 6zm330 150q-6-10-15-16t-21-6q-11 1-21 6t-15 16q-14 22-14 47t14 47q6 10 15 16t21 6q11-1 21-6t15-16q13-21 13-47t-13-47zm-36 96q-12 0-21-14t-9-35q0-20 9-35t21-14q11 0 20 14t9 35q0 20-8 35t-21 14zm-89 20V315l-10 10-13-14 26-26q5-5 11-3t6 9v128z"></path>
</symbol>
<symbol id="vjs-icon-forward20" viewBox="0 0 512 512">
<path d="M64 154v256l3 6c2 2 4 3 7 3h128v-39h-99V183h236v39c0 6 2 9 5 11s8 1 12-2l85-57 5-4 2-7v-3l-1-2-2-3-4-3-85-57c-4-3-8-3-12-2s-5 6-5 11v40H74c-3 0-5 0-7 2s-3 5-3 8zm272 239v24h-90q1-14 9-26 7-13 28-34 18-16 22-22 5-8 5-17 0-8-5-13-4-5-12-5t-13 5-6 17l-25-3q2-22 14-31t30-10q20 0 31 11t12 28q0 9-4 17-3 9-10 18l-17 18-15 15-5 8zm60-115q19 0 30 14 13 17 13 57 0 39-13 56-11 15-30 15t-31-16q-12-15-12-55t13-57q11-14 30-14zm0 22q-5 0-8 3-4 3-6 11-2 10-2 35t2 33q2 10 6 13 3 3 8 3t8-3q4-4 6-11 3-11 3-35t-3-34q-2-9-6-12-3-3-8-3z"></path>
</symbol>
<symbol id="vjs-icon-forward30" viewBox="0 0 512 512">
<path d="M64 154v256l3 6c2 2 4 3 7 3h128v-39h-99V183h236v39c0 6 2 9 5 11s8 1 12-2l85-57 5-4 2-7v-3l-1-2-2-3-4-3-85-57c-4-3-8-3-12-2s-5 6-5 11v40H74c-3 0-5 0-7 2s-3 5-3 8zm184 226 25-3q1 10 6 15t13 6q8 0 13-7 6-6 6-16 0-11-5-16t-13-6l-12 2 3-22q10 0 16-5 5-5 5-13 0-7-4-11t-10-4q-7 0-12 5t-5 13l-24-4q3-12 8-20 5-7 13-12 9-4 20-4 19 0 31 12 9 11 9 24 0 18-19 29 11 2 18 11t7 22q0 18-13 31t-32 13q-18 0-30-11t-14-29zm148-102q19 0 30 14 13 17 13 57 0 39-13 56-11 15-30 15t-31-16q-12-15-12-55t13-57q11-14 30-14zm0 22q-5 0-8 3-4 3-6 11-2 10-2 35t2 33q2 10 6 13 3 3 8 3t8-3q4-4 6-11 3-11 3-35t-3-34q-2-9-6-12-3-3-8-3z"></path>
</symbol>
<symbol id="vjs-icon-rewind5" viewBox="0 0 512 512">
<path d="m111 380 28-2q2 9 7 14 6 5 14 5 9 0 15-6 6-7 6-21 0-13-6-19-6-7-16-7-12 0-22 10l-22-3 14-73h75v25h-54l-4 24q9-4 19-4 19 0 32 13t13 33q0 18-10 31-15 19-40 19-21 0-33-10t-16-29zm337-226v256l-3 6c-2 2-4 3-7 3H310v-39h99V183H173v40c0 5-2 9-5 10s-8 1-12-2l-85-57c-3-1-5-3-6-7s-1-6 0-9l3-3 3-2 85-57c4-3 8-4 12-2s5 5 5 11v39h265c3 0 5 1 7 3s3 4 3 7z"></path>
</symbol>
<symbol id="vjs-icon-rewind10" viewBox="0 0 512 512">
<path d="M242 303q-6-9-15-15t-21-7q-11 1-21 7t-15 15q-6 10-10 22t-4 25 4 26 10 22q5 9 15 15t21 7q11-1 21-7t15-15q6-10 10-22t3-26-3-25-10-22zm-36 97q-12 0-21-15t-9-35 9-34 21-15 21 15 9 34-9 35-21 15zm-89 20V315l-10 10-14-14 27-26 3-2 4-1q4 0 7 3t3 6v129h-20zm331-266v256q0 3-3 6t-7 3H310v-39h99V183H173v39q0 8-5 11t-12-2l-85-57q-3-1-5-4t-2-7v-3l1-2 2-3 4-3 85-57q7-4 12-2t5 11v40h265q4 0 7 2t3 8z"></path>
</symbol>
<symbol id="vjs-icon-rewind20" viewBox="0 0 512 512">
<path d="M448 153v256c0 3-1 5-3 7s-4 3-7 3H310v-40h99V183H173v39c0 5-2 9-5 10s-8 2-12-1l-85-57-5-5-2-6v-3l1-3 2-3 4-2 85-57c4-3 8-4 12-2s5 5 5 10v40h265c3 0 5 1 7 3s3 4 3 7zM161 393v25H71q2-14 9-27 7-12 29-33 17-17 21-23 5-8 5-16 0-9-4-14-5-4-13-4t-13 5-5 16l-26-2q3-22 15-32t30-10q19 0 31 12t11 27q0 9-3 18-3 8-10 18l-17 17-16 16-5 7zm61-115q19 0 30 15 13 17 13 56 0 40-13 57-11 14-30 14-20 0-32-15-12-16-12-56 0-39 13-56 11-15 31-15zm0 23q-5 0-9 3-3 3-5 11-3 10-3 34t2 34q3 9 6 12 4 3 9 3t8-3q3-3 5-11 3-10 3-35t-2-33q-3-9-6-12-4-3-8-3z"></path>
</symbol>
<symbol id="vjs-icon-rewind30" viewBox="0 0 512 512">
<path d="M448 153v256c0 3-1 5-3 7s-4 3-7 3H310v-40h99V183H173v39c0 5-2 9-5 10s-8 2-12-1l-85-57-5-5-2-6v-3l1-3 2-3 4-2 85-57c4-3 8-4 12-2s5 5 5 10v40h265c3 0 5 1 7 3s3 4 3 7zM74 381l25-3q1 10 6 15t12 5q8 0 14-6 5-6 5-17 0-10-5-16t-13-6l-11 2 2-21q11 0 16-5 6-5 6-13 0-7-4-12t-11-4q-6 0-11 5t-6 14l-23-4q2-13 7-20 5-8 14-12 9-5 20-5 19 0 30 13 9 10 9 23 0 18-19 29 12 3 18 12 7 9 7 21 0 18-12 31t-32 13q-18 0-30-11t-14-28zm148-103q19 0 30 15 13 17 13 56 0 40-13 57-11 14-30 14-20 0-32-15-12-16-12-56 0-39 13-56 11-15 31-15zm0 23q-5 0-9 3-3 3-5 11-3 10-3 34t2 34q3 9 6 12 4 3 9 3t8-3q3-3 5-11 3-10 3-35t-2-33q-3-9-6-12-4-3-8-3z"></path>
</symbol>
<symbol id="vjs-icon-playlist" viewBox="0 0 512 512">
<path d="M47 172h334v56H47v-56zm0-111h334v56H47V61zm0 223h223v56H47v-56zm279 0v167l139-84z"></path>
</symbol>
<symbol id="vjs-icon-big-play" viewBox="0 0 512 512">
<path d="M163 97v318l250-159z"></path>
</symbol>
</defs>
</svg>
