<svg xmlns="http://www.w3.org/2000/svg">
<defs>
<symbol id="vjs-icon-pip-full" viewBox="0 0 512 512">
<path d="M407 83H108q-21 0-36 13t-14 30v260q0 18 14 30t36 13h299q21 0 34-13t14-30V126q0-18-14-30t-34-13zm15 308H97l-1-270h326v270zM117 140h279v230H117V140z"></path>
</symbol>
<symbol id="vjs-icon-expand-back" viewBox="0 0 446 512">
<path d="M142 416h45V97h-45zM260 97v318h45V97zm127 163 51-1v-29l-51 1v-68l-84 83 84 82zm-328-2H8l1-28 50-1v-69l84 82-84 83z"></path>
</symbol>
<symbol id="vjs-icon-expand" viewBox="0 0 446 512">
<path d="M33 432h45V81H33zM368 81v350h45V81zm-88 200-47 1-1-31 48-1v-66l89 83-89 82zm-110 3 48-1-1-31-47 1 1-66-94 81 94 81z"></path>
</symbol>
<symbol id="vjs-icon-download" viewBox="0 0 512 512">
<path d="M412 288v102H100V288H40v132c0 16 13 30 30 30h372c17 0 30-14 30-30V288zm-161 49-87-104s-10-5 2-12h48V70s-2-8 9-8h68c8 0 8 6 8 6v150h45c17 0 4 13 4 13s-73 97-83 107c-7 7-15-1-15-1z"></path>
</symbol>
<symbol id="vjs-icon-snapshot" viewBox="0 0 512 512">
<path d="M266 197a88 88 0 1 0 0 176 88 88 0 0 0 0-176zm-34 29a68 68 0 0 1 101 51c-33-26-73-42-101-51zm229-107h-94l-13-39H158l-13 39H70c-21 0-49 18-49 39v235c0 21 28 39 49 39h391c22 0 30-18 30-39V158c0-21-8-39-30-39zM266 412a127 127 0 1 1 0-254 127 127 0 0 1 0 254zm186-215h-40v-39h40v39z"></path>
</symbol>
<symbol id="vjs-icon-center" viewBox="0 0 512 512">
<path d="M448 232h-38q-4-25-15-47t-28-39-40-29q-22-11-47-15V64h-48v38q-25 4-47 15t-39 29-29 39q-11 22-15 47H64v48h38q4 25 15 47t29 40 39 28q22 11 47 15v38h48v-38q25-4 47-15t40-28 28-40q11-22 15-47h38v-48zm-87 0h-37q-5-15-17-27t-27-17v-37q30 6 53 29t28 52zm-105 48q-10 0-17-7t-7-17q0-10 7-17t17-7q10 0 17 7t7 17q0 10-7 17t-17 7zm-24-129v37q-15 5-27 17t-17 27h-37q6-30 29-52t52-29zm-81 129h37q5 15 17 27t27 17v37q-30-6-52-28t-29-53zm129 81v-37q15-5 27-17t17-27h37q-6 30-28 53t-53 28z"></path>
</symbol>
<symbol id="vjs-icon-mirror1" viewBox="0 0 512 512">
<path d="M437 49h26v207h-26V49zM49 256h26v207H49V256zm129 78h285v51H178v65l-90-90 90-91v65zm156-156H49v-51h285V62l90 90-90 91v-65z"></path>
</symbol>
<symbol id="vjs-icon-mirror2" viewBox="0 0 512 512">
<path d="M75 49H49v207h26V49zm388 207h-26v207h26V256zm-129 78H49v51h285v65l90-90-90-91v65zM178 178h285v-51H178V62l-90 90 90 91v-65z"></path>
</symbol>
<symbol id="vjs-icon-big-replay" viewBox="0 0 512 512">
<path d="M256 126V40L148 148l108 108v-86q27 0 51 10 23 10 41 28t28 41q10 24 10 51 0 26-10 50t-28 41-41 28q-24 10-51 10t-50-10q-24-10-42-28t-27-41q-11-24-11-50H83q0 35 14 67t37 55 55 37q31 14 67 14t68-14q31-14 55-37t37-55 13-67q0-36-13-68t-37-55-55-37q-32-14-68-14z"></path>
</symbol>
<symbol id="vjs-icon-brightness" viewBox="0 0 512 512">
<path d="M250 6c-4 2-8 7-9 11v38c0 33 0 34 2 37 4 5 7 7 13 7s10-2 13-7c2-3 2-4 2-40s0-37-2-40l-4-4c-3-3-11-4-15-2zM85 75c-5 1-9 6-10 11-3 8-2 9 26 37 21 21 26 25 29 26 11 3 22-8 19-19-1-3-5-8-25-28-28-28-30-30-39-27zm332 0-29 27c-20 20-24 25-25 28-3 11 8 22 19 19 4-1 9-5 29-25 26-26 28-30 27-37-2-10-12-16-21-12zm-175 56c-20 3-39 10-56 21-10 7-27 24-34 33-9 14-16 30-19 47a123 123 0 0 0 35 113 123 123 0 0 0 177-1 123 123 0 0 0 0-176c-19-18-38-29-62-35-8-2-33-3-41-2zm37 34c18 4 31 12 44 26a92 92 0 0 1 0 131c-10 9-14 13-25 18-15 8-30 11-47 10-24-1-43-10-61-27a92 92 0 0 1-26-46c-2-9-2-33 0-42 5-17 13-32 25-45a91 91 0 0 1 90-25zM14 242c-6 3-10 10-9 18 1 4 6 10 11 11l38 1c34-1 35-1 38-3 5-4 7-7 7-13s-2-9-7-13c-3-2-4-2-39-2-28-1-36 0-39 1zm408 0c-6 3-10 10-8 18 0 4 5 10 10 11l38 1c34-1 36-1 38-3 5-4 7-7 7-13s-2-9-7-13c-2-2-4-2-39-2-28-1-36 0-39 1zM129 364c-3 1-10 7-28 26-21 20-25 25-26 28-4 12 7 23 19 20 3-1 8-6 29-27s25-26 26-29c3-12-8-23-20-18zm244 0c-7 2-12 11-10 18 1 3 6 8 25 29 27 26 30 28 37 27 5-1 11-6 13-11 2-9 1-10-26-37l-26-25c-4-3-8-3-13-1zm-123 50c-4 2-8 7-9 11v38c0 33 0 34 2 37 4 5 7 7 13 7s10-2 13-7c2-3 2-4 2-40s0-37-2-40l-4-4c-3-3-11-3-15-2z"></path>
</symbol>
<symbol id="vjs-icon-saturation" viewBox="0 0 512 512">
<path d="M256 5a251 251 0 1 0 0 502 251 251 0 0 0 0-502zm0 28c115 0 221 107 221 222 0 0-43-20-117-20-62 0-104 21-104 21s-63 21-105 21c-73 0-116-25-116-25C35 136 141 33 256 33z"></path>
</symbol>
<symbol id="vjs-icon-contrast" viewBox="0 0 512 512">
<path d="M256 507a251 251 0 1 1 0-502 251 251 0 0 1 0 502zm7-467C155 41 39 132 39 255c0 104 114 217 218 218 107 1 221-111 219-216-2-103-104-217-213-217zm-7 373V99a157 157 0 1 1 0 314z"></path>
</symbol>
<symbol id="vjs-icon-filters" viewBox="0 0 512 512">
<path d="M341 398h171v29H341zm-113 0H0v29h228v85h28V341h-28zm85-227h28V0h-28v57H0v28h313zM427 57v28h85V57zM85 341h29V171H85v57H0v28h85zm114-85h313v-28H199zm142 170h171v29H341zm-85 0H0v29h256v57h28V341h-28zm85-255h28V0h-28v85H0v29h341zm86-86v29h85V85zM113 341h29V171h-29v85H0v28h113zm86-57h313v-28H199z"></path>
</symbol>
<symbol id="vjs-icon-mute" viewBox="0 0 512 512">
<path d="M354 253q0-28-15-52t-39-35v48l53 53v-7l1-7zm54 0q0 15-4 30t-8 27l33 33q10-20 16-43t6-47q0-34-12-66-11-31-32-56t-47-42q-28-18-60-25v44q23 7 43 21t34 33 23 42q8 24 8 49zM89 59 62 86l102 102H62v130h86l108 108V281l92 92-23 15q-12 7-25 10v45q22-5 42-15t37-24l44 44 28-28L89 59zm167 21-45 45 45 46V80z"></path>
</symbol>
<symbol id="vjs-icon-related" viewBox="0 0 512 512">
<path d="M146 376v55q0 12-9 20t-19 8H26q-12 0-20-8t-8-20v-55q0-11 8-20t20-8h92q11 0 19 8t9 20zm0-147v55q0 11-9 19t-19 9H26q-12 0-20-9t-8-19v-55q0-12 8-20t20-8h92q11 0 19 8t9 20zm184 147v55q0 12-8 20t-20 8h-92q-11 0-19-8t-8-20v-55q0-11 8-20t19-8h92q12 0 20 8t8 20zM146 81v55q0 12-9 20t-19 8H26q-12 0-20-8t-8-20V81q0-11 8-19t20-8h92q11 0 19 8t9 19zm184 148v55q0 11-8 19t-20 9h-92q-11 0-19-9t-8-19v-55q0-12 8-20t19-8h92q12 0 20 8t8 20zm184 147v55q0 12-8 20t-19 8h-93q-11 0-19-8t-8-20v-55q0-11 8-20t19-8h93q11 0 19 8t8 20zM330 81v55q0 12-8 20t-20 8h-92q-11 0-19-8t-8-20V81q0-11 8-19t19-8h92q12 0 20 8t8 19zm184 148v55q0 11-8 19t-19 9h-93q-11 0-19-9t-8-19v-55q0-12 8-20t19-8h93q11 0 19 8t8 20zm0-148v55q0 12-8 20t-19 8h-93q-11 0-19-8t-8-20V81q0-11 8-19t19-8h93q11 0 19 8t8 19z"></path>
</symbol>
<symbol id="vjs-icon-cancel" viewBox="0 0 410 512">
<path d="M377 361q0 12-8 20l-39 39q-9 8-20 8t-20-8l-85-85-85 85q-8 8-20 8t-20-8l-39-39q-8-8-8-20t8-20l85-85-85-85q-8-8-8-20t8-19l39-40q9-8 20-8t20 8l85 85 85-85q8-8 20-8t20 8l39 40q8 8 8 19t-8 20l-85 85 85 85q8 9 8 20z"></path>
</symbol>
<symbol id="vjs-icon-help" viewBox="0 0 445 512">
<path d="M260 395v-55q0-5-3-7t-6-3h-56q-4 0-7 3t-2 7v55q0 4 2 7t7 2h56q4 0 6-2t3-7zm74-194q0-26-16-47-16-22-40-34t-49-12q-71 0-108 62-4 7 3 12l38 29q2 2 5 2 5 0 7-4 16-20 25-26 10-7 25-7 14 0 25 7 11 8 11 17 0 11-6 18-6 6-20 13-18 8-33 25t-15 36v10q0 5 2 7t7 3h56q4 0 6-3t3-7q0-5 6-14t16-14l14-8 13-10q9-8 13-14 5-7 8-18 4-11 4-23zm111 55q0 61-30 112t-81 80q-51 30-111 30t-112-30q-51-29-80-80Q1 317 1 256t30-111q29-51 80-81t112-30 111 30q51 30 81 81t30 111z"></path>
</symbol>
<symbol id="vjs-icon-info" viewBox="0 0 445 512">
<path d="M297 395v-46q0-4-3-7t-6-2h-28V191q0-4-3-6t-6-3h-93q-4 0-7 3t-2 6v47q0 4 2 6t7 3h28v93h-28q-4 0-7 2t-2 7v46q0 4 2 7t7 2h130q4 0 6-2t3-7zm-37-259V90q0-4-3-7-2-3-6-3h-56q-4 0-7 3-2 3-2 7v46q0 4 2 7t7 2h56q4 0 6-2t3-7zm185 120q0 61-30 112t-81 80q-51 30-111 30t-112-30q-51-29-80-80Q1 317 1 256t30-111q29-51 80-81t112-30 111 30q51 30 81 81t30 111z"></path>
</symbol>
<symbol id="vjs-icon-twitter" viewBox="0 0 446 512">
<path d="M372 173q-17 8-35 10 19-11 26-34-18 11-38 15-18-19-45-19-25 0-43 18t-18 43q0 8 2 14-37-2-70-19t-56-45q-8 15-8 31 0 33 26 50-13 0-29-7 0 22 15 39t35 21l-14 2-12-1q6 19 22 30 15 12 35 13-34 26-76 26l-14-1q43 27 93 27 33 0 61-10 28-11 49-28 20-17 35-39 14-23 21-47t7-49v-8q18-13 31-32zm74-56v278q0 35-25 59t-59 25H84q-34 0-59-25T1 395V117q0-34 24-59t59-24h278q35 0 59 24t25 59z"></path>
</symbol>
<symbol id="vjs-icon-facebook" viewBox="0 0 446 512">
<path d="M362 34q35 0 59 24t25 59v278q0 35-25 59t-59 25h-54V306h57l9-67h-66v-43q0-16 7-24 6-8 26-8h35v-60q-18-3-51-3-39 0-63 23t-24 66v49h-58v67h58v173H84q-34 0-59-25T1 395V117q0-34 24-59t59-24h278z"></path>
</symbol>
<symbol id="vjs-icon-linkedin" viewBox="0 0 446 512">
<path d="M69 406h67V205H69v201zm72-263q-1-15-11-25-10-9-27-9-16 0-27 9-11 10-11 25t11 25q10 10 26 10h1q17 0 27-10t11-25zm169 263h67V291q0-45-21-67-21-23-56-23-39 0-61 34h1v-30h-67v201h67V294q0-11 2-16 4-10 13-18 9-7 22-7 33 0 33 46v107zm136-289v278q0 35-25 59t-59 25H84q-34 0-59-25T1 395V117q0-34 24-59t59-24h278q35 0 59 24t25 59z"></path>
</symbol>
<symbol id="vjs-icon-pinterest" viewBox="0 0 446 512">
<path d="M362 34q35 0 59 24t25 59v278q0 35-25 59t-59 25H152q25-36 32-61l15-61q6 12 21 20t33 8q52 0 85-43 34-43 34-108 0-24-11-47-10-23-28-40-17-18-44-28-26-11-57-11-30 0-56 8t-44 22q-19 14-32 32t-19 37q-6 19-6 39 0 29 11 52t34 32h7q3-2 4-6l4-18q2-6-3-12-14-18-14-43 0-44 30-75 30-30 78-30 43 0 67 23 25 24 25 61 0 49-20 83t-50 34q-18 0-28-13t-7-30q2-10 8-26l8-30q4-13 4-22 0-14-8-23-8-10-22-10-18 0-30 17-12 16-12 40 0 21 7 35l-29 120q-7 29-2 74H84q-34 0-59-25T1 395V117q0-34 24-59t59-24h278z"></path>
</symbol>
<symbol id="vjs-icon-play" viewBox="0 0 512 512">
<path d="M124 89v335l264-168z"></path>
</symbol>
<symbol id="vjs-icon-pause" viewBox="0 0 512 512">
<path d="M112 424h96V89h-96v335zM304 89v335h96V89h-96z"></path>
</symbol>
<symbol id="vjs-icon-volume1" viewBox="0 0 512 512">
<path d="M62 187v130h86l108 108V79L148 187z"></path>
</symbol>
<symbol id="vjs-icon-fullscreen" viewBox="0 0 512 512">
<path d="M514 191h-43V84H321V41h193v150zM321 471v-43h150V321h43v150H321zM-2 321h43v107h150v43H-2V321zM191 41v43H41v107H-2V41h193z"></path>
</symbol>
<symbol id="vjs-icon-fullscreen-back" viewBox="0 0 512 512">
<path d="M321 41h43v107h150v43H321V41zm193 280v43H364v107h-43V321h193zM191 471h-43V364H-2v-43h193v150zM-2 191v-43h150V41h43v150H-2z"></path>
</symbol>
<symbol id="vjs-icon-pip" viewBox="0 0 512 512">
<path d="M407 83H108q-21 0-36 13t-14 30v260q0 18 14 30t36 13h299q21 0 34-13t14-30V126q0-18-14-30t-34-13zm15 308H97l-1-270h326v270zM264 261h133v109H264V261z"></path>
</symbol>
<symbol id="vjs-icon-descriptions" viewBox="0 0 512 512">
<path d="M429 83H83q-18 0-31 13t-12 30v260q0 18 12 30t31 13h346q18 0 31-13t13-30V126q0-17-13-30t-31-13zM83 256h87v44H83v-44zm217 130H83v-43h217v43zm129 0h-86v-43h86v43zm0-86H213v-44h216v44z"></path>
</symbol>
<symbol id="vjs-icon-captions" viewBox="0 0 512 512">
<path d="M400 91H112q-18 0-30 12t-12 29v248q0 17 12 29t30 12h288q18 0 30-12t12-29V132q0-17-12-29t-30-12zM235 235h-31v-10h-41v62h41v-10h31v20q0 9-6 15t-14 6h-62q-9 0-15-6t-6-15v-82q0-9 6-15t15-6h62q8 0 14 6t6 15v20zm145 0h-31v-10h-41v62h41v-10h31v20q0 9-6 15t-15 6h-62q-8 0-14-6t-6-15v-82q0-9 6-15t14-6h62q9 0 15 6t6 15v20z"></path>
</symbol>
<symbol id="vjs-icon-chapters" viewBox="0 0 512 512">
<path d="M25 281h51v-50H25v50zm0 103h51v-51H25v51zm0-205h51v-51H25v51zm103 102h359v-50H128v50zm0 103h359v-51H128v51zm0-256v51h359v-51H128z"></path>
</symbol>
<symbol id="vjs-icon-share" viewBox="0 0 512 512">
<path d="M386 346q-12 0-23 4t-19 12l-155-90 2-7v-16q1-4-2-7l153-89q9 8 20 13t24 5q27 0 46-19t19-46-19-46-46-19q-27 0-46 19t-19 46l1 7 1 8-152 89q-9-8-21-13t-24-5q-26 0-45 19t-19 46 19 46 45 19q13 0 24-5t21-12l154 89-2 7v8q0 26 18 44t45 19q26 0 45-19t18-44q0-27-18-45t-45-18z"></path>
</symbol>
<symbol id="vjs-icon-settings" viewBox="0 0 512 512">
<path d="M407 276a159 159 0 0 0 0-40l43-33c4-3 5-9 2-13l-40-71c-3-4-8-6-13-4l-50 20c-11-8-22-14-35-20l-7-53c-1-5-5-9-10-9h-82c-5 0-9 4-10 9l-7 53c-13 6-24 12-35 20l-50-20c-5-2-10 0-13 4l-40 71c-3 4-2 9 2 13l43 33a159 159 0 0 0 0 40l-43 33c-4 3-5 9-2 13l40 71c3 4 8 6 13 4l50-20c11 8 22 14 35 20l7 53c1 5 5 9 10 9h82c5 0 9-4 10-9l7-53c13-6 24-12 35-20l50 20c5 2 10 0 12-4l41-71c3-4 1-9-2-13l-43-33zm-151 51a71 71 0 1 1 0-142 71 71 0 0 1 0 142z"></path>
</symbol>
<symbol id="vjs-icon-volume2" viewBox="0 0 512 512">
<path d="M61 188v130h87l108 108V80L148 188zm292 65c0-19-5-36-15-52s-23-27-39-35v174a98 98 0 0 0 54-87z"></path>
</symbol>
<symbol id="vjs-icon-volume3" viewBox="0 0 512 512">
<path d="M62 187v130h86l108 108V79L148 187H62zm292 65q0-29-15-52t-39-35v174q24-12 39-36t15-51zM300 62v45q23 7 43 21 20 13 34 32t23 43q8 23 8 49t-8 49q-9 23-23 42t-34 33q-20 14-43 21v44q32-7 60-24 27-18 47-43t32-56 12-66-12-66-32-56-47-43q-28-18-60-25z"></path>
</symbol>
<symbol id="vjs-icon-close" viewBox="0 0 512 512">
<path d="M256 40q-45 0-84 17t-69 46-46 69q-17 39-17 84t17 84q17 40 46 69t69 47q39 17 84 17t84-17q40-17 69-47t47-69q17-39 17-84t-17-84q-17-39-47-69t-69-46q-39-17-84-17zm108 294-30 30-78-77-77 77-31-30 78-78-78-77 31-31 77 78 78-78 30 31-77 77z"></path>
</symbol>
<symbol id="vjs-icon-replay" viewBox="0 0 512 512">
<path d="M256 126V40L148 148l108 108v-86q27 0 51 10 23 10 41 28t28 41q10 24 10 51 0 26-10 50t-28 41-41 28q-24 10-51 10t-50-10q-24-10-42-28t-27-41q-11-24-11-50H83q0 35 14 67t37 55 55 37q31 14 67 14t68-14q31-14 55-37t37-55 13-67q0-36-13-68t-37-55-55-37q-32-14-68-14z"></path>
</symbol>
<symbol id="vjs-icon-audio" viewBox="0 0 512 512">
<path d="M256 59q-38 0-73 15-34 14-59 40t-40 59q-15 34-15 73v145q0 26 18 44t45 19h62V287h-83v-41q0-30 11-57t31-46 47-31 56-12 57 12 46 31 31 46 12 57v41h-83v167h62q26 0 44-19t18-44V246q0-39-14-73-15-34-41-59t-59-40q-34-15-73-15z"></path>
</symbol>
<symbol id="vjs-icon-forward5" viewBox="0 0 512 512">
<path d="m287 393 31-3q1 10 8 16 6 6 15 6 10 0 16-8 7-7 7-22t-7-22q-6-7-17-7-13 0-24 11l-25-3 16-80h82v27h-59l-4 27q10-5 21-5 20 0 35 14t14 37q0 19-12 34-15 21-43 21-23 0-37-12t-17-31zM45 143v281c0 3 1 6 3 8s5 3 8 3h140v-43H89V176h259v43c0 6 1 10 5 12s8 1 13-2l94-63c3-2 5-4 6-8s1-7-1-10l-2-4-3-2-94-63c-5-3-9-3-13-1s-5 5-5 11v43H56c-3 0-6 1-8 4s-3 4-3 7z"></path>
</symbol>
<symbol id="vjs-icon-forward10" viewBox="0 0 512 512">
<path d="M45 143v281q0 5 3 8t8 3h140v-43H89V176h259v43q0 9 5 12t13-2l94-63q4-2 6-7t-1-11l-2-4q-1-2-3-2l-94-62q-7-5-13-2t-5 11v43H56q-5 0-8 4t-3 7zm362 164q-6-10-16-17t-23-6q-13 0-23 6t-17 17q-14 24-14 52t14 52q7 11 17 17t23 7q12-1 23-7t16-17q15-24 15-52t-15-52zm-39 106q-14 0-23-16t-9-38q0-22 9-38t23-16q13 0 22 16t10 38q0 22-9 38t-23 16zm-98 22V321l-10 10-15-15 29-29q5-5 11-2t7 10v140z"></path>
</symbol>
<symbol id="vjs-icon-forward20" viewBox="0 0 512 512">
<path d="M45 144v281c0 2 1 5 3 7s5 3 8 3h140v-43H89V176h259v43c0 6 1 10 5 12s8 1 13-2l94-63 5-5c2-2 2-4 2-7l-1-3-1-3-2-3-3-3-94-62c-5-4-9-5-13-3s-5 6-5 12v44H56c-3 0-6 1-8 3s-3 4-3 8zm298 262v27h-98q2-15 10-29t31-37q19-18 23-25 6-9 6-17 0-10-5-15-5-6-14-6t-14 6-6 18l-28-3q3-24 16-34t33-11q22 0 34 12t12 31q0 10-3 19l-11 20-19 19-17 17-5 8zm67-126q21 0 33 16 14 19 14 62t-14 62q-12 16-33 16-22 0-35-17-13-18-13-61t15-62q11-16 33-16zm0 24q-5 0-9 4-4 3-7 12-2 11-2 38t2 37q3 10 7 13t9 3 9-3q4-3 6-12 3-11 3-38t-3-37q-2-10-6-13-4-4-9-4z"></path>
</symbol>
<symbol id="vjs-icon-forward30" viewBox="0 0 512 512">
<path d="M45 144v281c0 2 1 5 3 7s5 3 8 3h140v-43H89V176h259v43c0 6 1 10 5 12s8 1 13-2l94-63 5-5c2-2 2-4 2-7l-1-3-1-3-2-3-3-3-94-62c-5-4-9-5-13-3s-5 6-5 12v44H56c-3 0-6 1-8 3s-3 4-3 8zm203 249 27-4q1 11 7 17t13 5q9 0 15-6 6-7 6-19 0-11-6-17t-14-7l-12 2 3-23q11 0 17-5 6-6 6-15 0-8-4-12t-12-5q-7 0-12 5t-6 16l-26-5q2-14 8-22 5-8 15-13t22-5q20 0 33 14 10 11 10 25 0 20-21 32 13 3 20 13 8 10 8 23 0 20-14 35t-35 14q-20 0-33-12t-15-31zm162-113q21 0 33 16 14 19 14 62t-14 62q-12 16-33 16-22 0-35-17-13-18-13-61t15-62q11-16 33-16zm0 24q-5 0-9 4-4 3-7 12-2 11-2 38t2 37q3 10 7 13t9 3 9-3q4-3 6-12 3-11 3-38t-3-37q-2-10-6-13-4-4-9-4z"></path>
</symbol>
<symbol id="vjs-icon-rewind5" viewBox="0 0 512 512">
<path d="m97 393 31-3q1 10 8 16 6 5 15 5t16-7q7-8 7-23 0-14-7-21t-17-7q-14 0-24 11l-25-4 16-80h81v28h-58l-5 26q11-5 21-5 21 0 35 14t15 38q0 19-12 34-16 20-44 20-22 0-36-11t-17-31zm370-249v281c0 2-1 5-3 7s-5 3-8 3H316v-43h107V176H164v44c0 5-1 9-5 11s-8 1-13-2l-94-63c-3-1-5-4-6-7a14 14 0 0 1 3-14l3-2 94-63c5-3 9-4 13-2s5 6 5 12v43h292c3 0 6 1 8 3s3 5 3 8z"></path>
</symbol>
<symbol id="vjs-icon-rewind10" viewBox="0 0 512 512">
<path d="M241 308q-6-11-17-17t-23-7q-13 0-23 7t-17 16v1q-7 11-10 24t-4 28 4 27 11 25h-1q7 10 17 17t23 7q13-1 23-7t16-17h1q7-11 10-25t4-27-4-28-11-25l1 1zm-40 106q-13 0-23-16t-9-38 9-38 23-16 23 16 9 38-9 38-23 16zm-97 22V321l-11 11-15-15 29-29 3-3 5-1q4 0 7 4t3 7v141h-21zm363-292v281q0 4-3 7t-8 3H316v-43h107V176H164v43q0 9-5 12t-13-2l-94-63q-3-1-5-5t-2-7l1-3 1-3 2-3 3-3 94-62q7-5 13-3t5 12v44h292q5 0 8 3t3 8z"></path>
</symbol>
<symbol id="vjs-icon-rewind20" viewBox="0 0 512 512">
<path d="M467 143v281c0 3-1 5-3 7s-5 3-8 3H316v-43h107V175H164v43c0 6-1 10-5 12s-8 1-13-2l-94-62-5-5c-2-2-2-5-2-8l1-3 1-2 2-4 3-3 94-62c5-3 9-4 13-2s5 6 5 12v43h292c3 0 6 1 8 3s3 5 3 8zM152 406v28H54q1-16 9-30 8-13 32-36 19-18 23-25 6-9 6-18 0-10-5-15t-14-5q-9 0-14 5t-6 19l-28-3q2-24 15-35t33-10q22 0 34 12t13 30q0 10-4 20-3 9-11 19l-18 20-17 16-6 8zm66-125q21 0 33 15 15 19 15 62 0 44-15 63-12 15-33 15t-34-17q-13-17-13-61 0-43 14-62 12-15 33-15zm0 24q-5 0-9 3-4 4-6 12-3 12-3 38t3 37q2 10 6 14 4 3 9 3t9-3q4-4 6-13 3-11 3-38t-2-36q-3-10-7-14-4-3-9-3z"></path>
</symbol>
<symbol id="vjs-icon-rewind30" viewBox="0 0 512 512">
<path d="M467 143v281c0 3-1 5-3 7s-5 3-8 3H316v-43h107V175H164v43c0 6-1 10-5 12s-8 1-13-2l-94-62-5-5c-2-2-2-5-2-8l1-3 1-2 2-4 3-3 94-62c5-3 9-4 13-2s5 6 5 12v43h292c3 0 6 1 8 3s3 5 3 8zM56 393l27-3q2 11 7 16t14 6q9 0 15-7t6-18q0-11-6-18t-14-6l-13 2 3-24q12 0 18-5t6-15q0-7-5-12t-12-4q-7 0-12 5t-6 15l-26-5q3-13 8-22 6-8 15-13 10-4 22-4 21 0 33 13 11 12 11 26 0 20-21 32 12 3 20 12 7 10 7 24 0 20-14 34t-35 14q-20 0-33-12t-15-31zm162-112q21 0 33 15 15 19 15 62 0 44-15 63-12 15-33 15t-34-17q-13-17-13-61 0-43 14-62 12-15 33-15zm0 24q-5 0-9 3-4 4-6 12-3 12-3 38t3 37q2 10 6 14 4 3 9 3t9-3q4-4 6-13 3-11 3-38t-2-36q-3-10-7-14-4-3-9-3z"></path>
</symbol>
<symbol id="vjs-icon-playlist" viewBox="0 0 512 512">
<path d="M47 172h334v56H47v-56zm0-111h334v56H47V61zm0 223h223v56H47v-56zm279 0v167l139-84z"></path>
</symbol>
<symbol id="vjs-icon-big-play" viewBox="0 0 512 512">
<path d="M137 105v303l238-152z"></path>
</symbol>
</defs>
</svg>
