<svg xmlns="http://www.w3.org/2000/svg">
<defs>
<symbol id="vjs-icon-pip-full" viewBox="0 0 512 512">
<path d="M407 77H108q-20 0-35 12t-15 31v259q0 18 15 31t35 12h299q21 0 34-12t13-31V120q0-18-13-31t-34-12zm15 307H97l-1-270h326v270zM117 133h279v230H117V133z"></path>
</symbol>
<symbol id="vjs-icon-expand" viewBox="0 0 446 512">
<path d="M50 409h41V90H50zM355 90v319h41V90zm-81 183h-42l-1-28 43-1v-60l82 75-82 75zm-99 2 43-1v-28l-43 1v-61l-85 74 85 74z"></path>
</symbol>
<symbol id="vjs-icon-expand-back" viewBox="0 0 446 512">
<path d="M142 409h45V90h-45zM260 90v319h45V90zm127 163h51v-29l-51 1v-68l-84 82 84 83zm-328-1H8l1-29 50-1v-69l84 83-84 82z"></path>
</symbol>
<symbol id="vjs-icon-download" viewBox="0 0 512 512">
<path d="M398.3 278.3v93H113.7v-93H59v120.4A27.3 27.3 0 0 0 86.4 426h339.2a27.3 27.3 0 0 0 27.4-27.3V278.3zm-147.3 45-78.3-94.6s-10-4.4 1-11.2h44.1V79.7s-1.7-6.7 8.4-6.7h62c7.4 0 7.2 5.6 7.2 5.6v136h40.8c15.6 0 3.8 11.8 3.8 11.8s-66.6 88.5-76 97.8c-6.6 6.7-13-.8-13-.8z"></path>
</symbol>
<symbol id="vjs-icon-snapshot" viewBox="0 0 512 512">
<path d="M264.9 196.2a80 80 0 1 0 0 160 80 80 0 0 0 0-160zm-31 26.3a61.4 61.4 0 0 1 92.5 46.5 312.2 312.2 0 0 0-92.5-46.5zm208.8-97.4h-86L345 89.5H167l-11.8 35.6H87c-19.6 0-44.4 15.9-44.4 35.5V374c0 19.7 24.8 35.6 44.4 35.6h355.6c19.6 0 26.6-16 26.6-35.6V160.6c0-19.6-7-35.5-26.6-35.5zM264.9 391.7a115.6 115.6 0 1 1 0-231 115.6 115.6 0 0 1 0 231zm168.9-195.5h-35.6v-35.6h35.6v35.6z"></path>
</symbol>
<symbol id="vjs-icon-center" viewBox="0 0 512 512">
<path d="M448.3 225.3h-38q-4-25-15.6-47-11-22-28.2-39.3t-39.3-28.3q-22-11.5-47-15.5v-38h-48.4v38q-25 4-47 15.5-22 11-39.3 28.3t-28.3 39.3q-11.5 22-15.5 47h-38v48.4h38q4 25 15.5 47 11 22 28.3 39.3t39.3 28.3q22 11.4 47 15.4v38h48.4v-38q25-4 47-15.4 22-11 39.3-28.3t28.3-39.3q11.4-22 15.4-47h38v-48.4zm-87 0h-37.6q-5-15-16.7-26.8t-26.8-16.8v-37.4q30 6.4 52.3 28.7t28.8 52.3zm-105 48.4q-10 0-17.3-7.2t-7.3-17.3q0-9.4 7.3-16.7t16.8-7.3q10 0 17.2 7.3t7.3 16.8q0 10-7.3 17.2t-16.8 7.3zm-24.6-129.4v37.4q-15 5-26.7 16.8t-16.8 26.8h-37.4q6.4-30 28.7-52.3t52.3-28.8zm-81 129.4h37.6q5 15 16.7 26.8t26.8 16.8v37.4q-30-6.4-52.3-28.7t-28.8-52.3zm129.6 81v-37.4q15-5 26.7-16.8t16.8-26.8h37.4q-6.4 30-28.7 52.3t-52.3 28.8z"></path>
</symbol>
<symbol id="vjs-icon-mirror1" viewBox="0 0 512 512">
<path d="M412 71h22v179h-22V71zM78 250h22v178H78V250zm111 67h245v44H189v56l-78-78 78-78v56zm134-134H78v-45h245V83l78 78-78 78v-56z"></path>
</symbol>
<symbol id="vjs-icon-mirror2" viewBox="0 0 512 512">
<path d="M100 71H78v179h22V71zm334 179h-22v178h22V250zm-111 67H78v44h245v56l78-78-78-78v56zM189 183h245v-45H189V83l-78 78 78 78v-56z"></path>
</symbol>
<symbol id="vjs-icon-big-replay" viewBox="0 0 512 512">
<path d="m326.8 135.2 32.6-71.4L407.6 194l-119.2 22 29.3-64c-14.8-6.8-32-10.7-47.4-11-15.6-.2-39.3 2.4-53.4 7.5s-38.9 21.2-50.3 31.6A145.4 145.4 0 0 0 136 224a149.3 149.3 0 0 0-11.5 52.6c-.4 15.4 2.3 29.6 7.7 43.7s16.6 36 26.9 47.7c10.4 11.4 27.4 27.3 42.3 34s43 11.6 58.5 12c15.6.2 40.3-6 54.4-11.2s29.7-15.8 41-26.2a135 135 0 0 0 30.2-41.4l18.6 8.5c-9 19.5-21 36.3-36.4 50.2s-32.5 24.4-51.3 31.5c-18.9 7-38.6 10.2-59.4 9.8-20.8-.3-41.2-4.9-61-14s-36.6-21.3-50.4-37a157.7 157.7 0 0 1-41.3-110.6c.5-20.7 5.2-40.9 14.1-60.4a158 158 0 0 1 208.3-78z"></path>
</symbol>
<symbol id="vjs-icon-brightness" viewBox="0 0 512 512">
<path d="M249.8-.2a17 17 0 0 0-8.8 10.7c-.3 1.7-.5 18.6-.3 37.7.3 33 .4 34.6 2.3 37.1 3.9 5.2 7 6.8 13.2 6.8s9.3-1.6 13.1-6.8c2-2.6 2.1-3.8 2.1-39.8s-.1-37.2-2-39.8c-1.1-1.5-3.2-3.7-4.6-4.6-3.2-2.5-11-3.2-15-1.3zm-165 68.4a17 17 0 0 0-10.2 11c-2.2 8.1-1.3 9.4 26.4 37.1 20.9 21 25.9 25.4 29.1 26.2 11.2 3 22-7.8 19-19-.8-3.2-5.3-8.2-25.2-28.3-27.8-28.1-30-29.7-39.1-27zm331.8.8c-2.4 1.1-13 11-28.1 26.2-20.2 20.4-24.4 25-25.3 28.3-3 11.2 7.9 22 19 19 3.3-.8 8.3-5.3 28.4-25.2 26.1-26 28.9-29.5 27.6-36.4-1.9-10.4-12.6-16.4-21.6-12zm-174.1 55.6c-20.5 2.6-40 9.9-57 21.3a164.9 164.9 0 0 0-33 33c-9.3 14-16 29.7-19.5 46.2a158.3 158.3 0 0 0 0 49 122.7 122.7 0 0 0 34.8 63.9 122.7 122.7 0 0 0 63.9 34.8c11.6 2.6 37.3 2.6 49 0a123 123 0 0 0 63.9-34.8 123 123 0 0 0 34.8-63.9c2.6-11.7 2.6-37.4 0-49a122.7 122.7 0 0 0-34.8-64 120.6 120.6 0 0 0-62-34.3c-8-1.8-32.4-3.2-40.1-2.2zm36.4 33.6a90.6 90.6 0 0 1 44.5 26c28.3 29 35 71.2 17 107-5.5 11-8.9 15.7-17.9 24.7s-13.6 12.4-24.7 17.9a89.5 89.5 0 0 1-47 9.7 89.1 89.1 0 0 1-60.3-27.2 92.5 92.5 0 0 1-26.2-45.7c-2.4-9.3-2.4-32.7 0-42a94.2 94.2 0 0 1 25.2-44.8 91 91 0 0 1 50.3-27c9.8-1.9 29.3-1.2 39 1.4zm-264.6 77A16.1 16.1 0 0 0 5.4 253c.9 4.6 5.8 10 10.2 11.3 2.4.7 15.7 1 38.7.8 33.5-.3 35-.4 37.6-2.4 5.2-3.8 6.8-7 6.8-13.1s-1.6-9.3-6.8-13.2c-2.5-2-4-2-38.6-2.2-28.5-.2-36.6 0-39 1zm408.2 0a16.1 16.1 0 0 0-9 17.8c1 4.6 5.9 10 10.3 11.3 2.3.7 15.7 1 38.6.8 33.6-.3 35.2-.4 37.7-2.4 5.2-3.8 6.8-7 6.8-13.1s-1.6-9.3-6.8-13.2c-2.5-2-4-2-38.6-2.2-28.5-.2-36.6 0-39 1zM129.1 357c-3 1.1-9.9 7.5-28.5 26.2-20.2 20.3-25 25.5-26 28.8A15.6 15.6 0 0 0 93.9 431c3.2-1 8.4-5.7 29.2-26.3 20.9-20.9 25.3-25.9 26.2-29.1 3-11.8-8.6-22.8-20-18.7zm244.3 0a15.8 15.8 0 0 0-10.2 18.7c1 3.2 5.4 8.2 25.3 28.3 26.3 26.4 29.4 28.8 36.6 27.6a18 18 0 0 0 12.7-11.6c2.2-8 1-9.6-25.4-36.3a494.7 494.7 0 0 0-26.7-25.7 14.6 14.6 0 0 0-12.3-1zm-123.6 51a17 17 0 0 0-8.8 10.6c-.3 1.8-.5 18.7-.3 37.7.3 33 .4 34.7 2.3 37.2 3.9 5.2 7 6.8 13.2 6.8s9.3-1.6 13.1-6.8c2-2.6 2.1-3.8 2.1-39.8s-.1-37.2-2-39.9c-1.1-1.4-3.2-3.6-4.6-4.6-3.2-2.4-11-3.1-15-1.2z"></path>
</symbol>
<symbol id="vjs-icon-saturation" viewBox="0 0 512 512">
<path d="M256-1.4a250.9 250.9 0 1 0 0 501.8 250.9 250.9 0 0 0 0-501.8zm0 27.5c115.5 0 221.3 107 221.3 222.4 0 0-43-19.9-116.8-19.9-62.3 0-104.5 20.9-104.5 20.9s-63.1 20.9-104.6 20.9c-73.1 0-116.7-25-116.7-25C34.7 129.9 140.5 26.1 256 26.1z"></path>
</symbol>
<symbol id="vjs-icon-contrast" viewBox="0 0 512 512">
<path d="M256 500.4a250.9 250.9 0 1 1 0-501.8 250.9 250.9 0 0 1 0 501.8zm7.2-466.7c-107.8.5-224 91.4-224 214.8 0 104 114 216.8 217.8 217.8 107 1 220.8-111 218.9-215.8-1.9-103-103.5-217.3-212.7-216.8zM256 406.3V92.7a156.8 156.8 0 1 1 0 313.6z"></path>
</symbol>
<symbol id="vjs-icon-filters" viewBox="0 0 512 512">
<path d="M341 392h171v28H341zm-113 0H0v28h228v86h28V335h-28zm85-228h28V-6h-28v56H0v29h313zM427 50v29h85V50zM85 335h29V164H85v57H0v29h85zm114-85h313v-29H199zm142 170h171v28H341zm-85 0H0v28h256v58h28V335h-28zm85-256h28V-6h-28v85H0v28h341zm86-85v28h85V79zM113 335h29V164h-29v85H0v29h113zm86-57h313v-29H199z"></path>
</symbol>
<symbol id="vjs-icon-related" viewBox="0 0 512 512">
<path d="M146 370v55q0 11-8 19t-20 8H26q-12 0-20-8t-8-19v-55q0-12 8-20t20-8h92q11 0 20 8t8 20zm0-148v55q0 12-8 20t-20 8H26q-12 0-20-8t-8-20v-55q0-11 8-19t20-8h92q11 0 20 8t8 19zm184 148v55q0 11-8 19t-20 8h-92q-11 0-19-8t-9-19v-55q0-12 9-20t19-8h92q11 0 20 8t8 20zM146 75v55q0 12-8 20t-20 8H26q-12 0-20-8t-8-20V75q0-11 8-20t20-8h92q11 0 20 8t8 20zm184 147v55q0 12-8 20t-20 8h-92q-11 0-19-8t-9-20v-55q0-11 9-19t19-8h92q11 0 20 8t8 19zm184 148v55q0 11-8 19t-20 8h-92q-11 0-19-8t-9-19v-55q0-12 9-20t19-8h92q12 0 20 8t8 20zM330 75v55q0 12-8 20t-20 8h-92q-11 0-19-8t-9-20V75q0-11 9-20t19-8h92q11 0 20 8t8 20zm184 147v55q0 12-8 20t-20 8h-92q-11 0-19-8t-9-20v-55q0-11 9-19t19-8h92q12 0 20 8t8 19zm0-147v55q0 12-8 20t-20 8h-92q-11 0-19-8t-9-20V75q0-11 9-20t19-8h92q12 0 20 8t8 20z"></path>
</symbol>
<symbol id="vjs-icon-cancel" viewBox="0 0 409 512">
<path d="M377 354q0 12-8 20l-40 40q-8 8-20 8-11 0-19-8l-85-86-85 86q-8 8-20 8t-20-8l-39-40q-8-8-8-20 0-11 8-19l85-85-85-85q-8-8-8-20t8-20l39-39q8-8 20-8t20 8l85 85 85-85q8-8 19-8 12 0 20 8l40 39q8 8 8 20t-8 20l-86 85 86 85q8 8 8 19z"></path>
</symbol>
<symbol id="vjs-icon-help" viewBox="0 0 445 512">
<path d="M259.5 388.3v-55.6q0-4-3-6.4-2.5-3-6.5-3h-55.5q-4 0-6.5 3-2.5 2.4-2.5 6.4v55.6q0 4 2.5 6.4t6.5 2.6H250q4 0 6.5-2.6 3-2.4 3-6.4zm73.5-194q0-25.6-16-47.6-16-21.4-40-33.4-24-11.5-49-11.5-70 0-107 61.5-4.5 7 2 12l38.5 29q2 1.4 5.5 1.4 4.5 0 7-3.4 15.5-19.6 25-26.6t24.5-7q14 0 25 7.6t11 17q0 11-6 18-6 6.4-19.5 13-18.5 8-33.5 25-15 16.4-15 36v10.4q0 4 2.5 6.6t6.5 2.4H250q4 0 6.5-2.4 3-2.6 3-6.6 0-5.4 6-14.4 6-8.6 15.5-14t14.5-8.6 13-10q8.5-7 13-14 4.5-6.4 8-17.4 3.5-10.6 3.5-23zm111 55.4q0 60-29.5 111-30 51-81 81-51 29.6-111 29.6-60.5 0-111.5-29.6-51-30-81-81-29.5-51-29.5-111 0-60.4 29.5-111.4 30-51 81-81 51-29.5 111.5-29.5 60 0 111 29.4 51 30 81 81 29.5 51 29.5 111.6z"></path>
</symbol>
<symbol id="vjs-icon-info" viewBox="0 0 445 512">
<path d="M296 388v-46q0-4-2-7t-7-2h-27V185q0-4-3-7-3-2-7-2h-92q-4 0-7 2t-2 7v46q0 4 2 7t7 2h28v93h-28q-4 0-7 2t-2 7v46q0 4 2 7t7 2h129q4 0 7-2t2-7zm-36-259V83q0-4-3-6-3-3-7-3h-55q-4 0-7 3-2 2-2 6v46q0 4 2 7 3 3 7 3h55q4 0 7-3t3-7zm184 121q0 60-29 111-30 51-81 81-51 29-111 29-61 0-112-29-51-30-81-81Q1 310 1 250q0-61 29-112 30-51 81-81 51-29 112-29 60 0 111 29 51 30 81 81 29 51 29 112z"></path>
</symbol>
<symbol id="vjs-icon-fullscreen" viewBox="0 0 445 512">
<path d="M219 291q0 3-3 6l-86 87 37 37q5 5 5 12t-5 12-11 5H39q-7 0-12-5t-5-12V316q0-7 5-12t12-5 11 5l38 38 87-86q2-3 5-3 4 0 6 3l30 29q3 3 3 6zM423 66v117q0 7-5 12t-12 5-12-5l-37-38-87 86q-2 3-6 3-3 0-6-3l-30-29-2-6 2-6 87-87-38-37q-5-5-5-12t5-12 12-5h117q7 0 12 5t5 12z"></path>
</symbol>
<symbol id="vjs-icon-fullscreen-back" viewBox="0 0 445 512">
<path d="M222 266v117q0 7-5 12t-11 4-12-4l-38-38-86 87q-3 2-7 2-3 0-5-2l-30-30-2-6q0-4 2-6l86-86-37-38q-5-5-5-12t5-12q5-4 12-4h117q6 0 11 4 5 5 5 12zM419 91q0 4-3 6l-86 86 37 38q5 5 5 12t-5 12-12 5H239q-7 0-12-5t-5-12V116q0-7 5-12t12-4 12 4l37 38 86-87q3-2 7-2 3 0 5 2l30 30q3 3 3 6z"></path>
</symbol>
<symbol id="vjs-icon-twitter" viewBox="0 0 446 512">
<path d="M371 166.8q-16.5 7.4-35 10 19.5-11.6 27-34-19 11-39 15-17.5-19-44.5-19-25 0-42.5 17.4-18 18-18 43 0 8.6 1.5 14-37.5-2-70-19-33-16.4-55.5-44.4-8.5 14.4-8.5 30.4 0 33 26.5 50.6-14 0-29-7.6v.6q0 22 14.5 39 14.5 16.4 35.5 21-8.5 2-15 2-3.5 0-11-1 6 18 21.5 30t35 12q-33.5 26-75.5 26-7.5 0-14.5-.6 43 27 93.5 27 32 0 60.5-10 28.5-10.4 48.5-27.4 20.5-17.6 35-40t21.5-46.6q7.5-24.4 7.5-49 0-5-.5-8 18-13 30.5-31.4zm74-56v278q0 34-24.5 58.4t-59 24.6H84q-34.5 0-59-24.6T.5 388.9v-278q0-34.5 24.5-59t59-24.5h277.5q34.5 0 59 24.4t24.5 59z"></path>
</symbol>
<symbol id="vjs-icon-facebook" viewBox="0 0 446 512">
<path d="M362 27q34 0 59 25t24 59v278q0 34-24 58t-59 25h-55V300h58l9-67h-67v-43q0-16 7-25 7-8 27-8h35V97q-18-2-51-2-40 0-63 23t-24 65v50h-58v67h58v172H84q-34 0-59-25T1 389V111q0-35 24-59t59-25h278z"></path>
</symbol>
<symbol id="vjs-icon-linkedin" viewBox="0 0 446 512">
<path d="M69 399.8h67v-201H69v201zm71.5-263q-.5-15-10.5-25-10.5-9.5-27-9.5-17 0-27.5 9.5-10.5 10-10.5 25t10.5 25q10 10 26.5 10h.5q17 0 27.5-10t10.5-25zm169 263h67V284.1q0-44.4-21-67.4-21.5-22.6-56-22.6-39.5 0-60.5 33.6h.5v-29h-67q1 19 0 201h67V287.1q0-11 2-16 4.5-10.4 13-17.4t21.5-7q33.5 0 33.5 45.4v107.6zm135.5-289v278q0 34-24.5 58.4t-59 24.6H84q-34.5 0-59-24.6T.5 388.9v-278q0-34.5 24.5-59t59-24.5h277.5q34.5 0 59 24.4t24.5 59z"></path>
</symbol>
<symbol id="vjs-icon-pinterest" viewBox="0 0 446 512">
<path d="M361.5 27.3q34.5 0 59 24.4t24.5 59v278q0 34-24.5 58.6t-59 24.4H152q24.5-35 31-60.4l15.5-60.6q6 11 21 19.6 15.5 8 32.5 8 52.5 0 86-43 33-42.6 33-108 0-24-10-47-10.5-22.6-28-40-18-17.6-44.5-28-26-10.5-57-10.5-30 0-56 8-26.5 8-44.5 22t-31 32q-13 17.4-19 37-6.5 19-6.5 38 0 29.4 11.5 52.4 11.5 22.6 33.5 31.6 4 1.4 7 0t4-5.6q3-12.4 4.5-17.4 2-6.6-3-12-14.5-18-14.5-43.6 0-43.4 30-74.4 30-30.6 78-30.6 43 0 67.5 23.6 24 23.4 24 60.4 0 48.6-19.5 83-19.5 34-50 34-17.5 0-28-12.4-11-12.6-7-30 2.5-10 8-27 5-16.6 8.5-29.6 3-12.4 3-21.4 0-14-7.5-23.6-8-9.4-22-9.4-17.5 0-30 16.4T160 243.8q0 20.4 7 35l-28 119.4q-7 29-2 73.6H84q-34.5 0-59-24.6T.5 388.9v-278q0-34.5 24.5-59t59-24.5h277.5z"></path>
</symbol>
<symbol id="vjs-icon-play" viewBox="0 0 512 512">
<path d="M137 98v303l238-151z"></path>
</symbol>
<symbol id="vjs-icon-pause" viewBox="0 0 512 512">
<path d="M127 401h86V98h-86v303zM299 98v303h87V98h-87z"></path>
</symbol>
<symbol id="vjs-icon-mute" viewBox="0 0 512 512">
<path d="M353 256.7q0-28.5-15-51.8t-39-35.2v47.5l53.5 53q.5-3 .5-6.5v-7zm54.5 0q0 15-3.3 29.2t-8.7 27.8l33 32.5q10.5-20 16.3-42.8t5.7-46.7q0-35-11.5-66t-31.8-56-47.7-42.5q-28-17.5-60.5-25v44.5q23.5 7 43.5 21 20 13.5 34.3 32.5t22.2 42.5q8.5 23 8.5 49zM89 62.2 61.5 89.7l102 102h-102v129.5H148l108 108v-145l92 92q-11 8-23.3 14.7T299 401.7v44.5q22.5-5 42.8-15t37.2-24l44 44 27.5-27.5L89 62.2zm167 21.5-45 45 45 45.5V83.7z"></path>
</symbol>
<symbol id="vjs-icon-volume3" viewBox="0 0 512 512">
<path d="M61.5 191.7v129.5H148l108 108V83.7l-108 108H61.5zm291.5 65q0-28.5-15-51.8t-39-35.2v174q24-12 39-35.3t15-51.7zM299 67.2v44.5q23.5 7 43.5 21 20 13.5 34.3 32.5t22.2 42.5q8.5 23 8.5 49 0 25.5-8.5 49-8 23-22.3 42t-34.2 33-43.5 20.5v45q32.5-7.5 60.5-25 27.5-17.5 47.8-42.5t31.7-56q11.5-31.5 11.5-66 0-35-11.5-66t-31.8-56-47.7-42.5q-28-18-60.5-25z"></path>
</symbol>
<symbol id="vjs-icon-pip" viewBox="0 0 512 512">
<path d="M407 77H108q-20 0-35 12t-15 31v259q0 18 15 31t35 12h299q21 0 34-12t13-31V120q0-18-13-31t-34-12zm15 307H97l-1-270h326v270zM264 254h133v109H264V254z"></path>
</symbol>
<symbol id="vjs-icon-descriptions" viewBox="0 0 512 512">
<path d="M428.8 76.8H83.1q-18 0-30.7 12.7t-12.8 30.3v259.4q0 18 12.8 30.6t30.8 12.4h345.4q18 0 30.8-12.4t12.8-30.6V119.9q0-17.5-12.8-30.3t-30.8-12.8zm-345.6 173h86.5v43H83.3v-43zm216 129.4h-216v-43h216v43zm129.6 0h-86.6v-43h86.6v43zm0-86.4h-216v-43h216v43z"></path>
</symbol>
<symbol id="vjs-icon-captions" viewBox="0 0 512 512">
<path d="M407.3 76.8H104.6q-18 0-30.5 12.7t-12.5 30.3v259.4q0 18 12.5 30.6t30.5 12.4h302.6q18 0 30.4-12.4t12.6-30.6V119.9q0-17.5-12.6-30.3t-30.4-12.8zm-173 151h-32v-10.6h-43.6v65h43.6v-11h32v21.6q0 9-6.3 15.2t-15.3 6.3h-65q-9 0-15.2-6.3t-6.3-15.3v-86.4q0-9 6.3-15.3t15.3-6.3h65q9 0 15.2 6.3t6.3 15.3v21.4zm151.4 0h-32.4v-10.6h-43v65h43v-11h32.4v21.6q0 9-6.2 15.2t-15.3 6.3h-65q-9 0-15.2-6.3t-6.3-15.3v-86.4q0-9 6.3-15.3t15.3-6.3h65q9 0 15.2 6.3t6.3 15.3v21.4z"></path>
</symbol>
<symbol id="vjs-icon-chapters" viewBox="0 0 512 512">
<path d="M43 273h47v-48H43v48zm0 95h47v-48H43v48zm0-190h47v-47H43v47zm94 95h332v-48H137v48zm0 95h332v-48H137v48zm0-237v47h332v-47H137z"></path>
</symbol>
<symbol id="vjs-icon-share" viewBox="0 0 512 512">
<path d="M385.8 338.8q-12.6 0-23.3 4.4t-19.3 12l-154-89.4q1-3.6 1.6-7.6t.4-7.4q0-4-.4-7.8t-1.6-7.8l152.6-88.4q8.4 8 19.7 12.7t24.3 4.8q26.4 0 45.4-19t19-46-19-46-45.4-19q-27 0-46 19t-19 46q0 4 .4 7.7t1.6 7.3l-152.6 89q-8.4-8-19.7-12.8t-24.3-4.8q-26.5 0-45.5 19t-19 46q0 26.6 19 45.6t45.5 19q13 0 24.3-4.6t19.8-13l154 90-1 7-.6 7q0 26 18.6 44.6t44.4 18.4 44.6-18.4 18.4-44.6-18.4-44.4-44.6-18.6z"></path>
</symbol>
<symbol id="vjs-icon-settings" viewBox="0 0 512 512">
<path d="m402.6 268.5 1-9.5.4-9.5q0-5.2-.5-10l-1-9.4 41.8-32.8q2.9-1.9 3.6-5.4t-1.2-7l-39.4-68.2q-1.9-3.3-5.4-4.5t-7 .2L346.2 132q-7.6-5.7-15.9-10.7t-17.3-8.8l-7.6-52.2q-.4-3.3-3.3-5.7t-6.6-2.3h-78.8q-3.8 0-6.6 2.3t-3.3 5.7l-7.1 52.2q-9 3.8-17.6 8.8t-16.1 10.7L117 112.4q-3.3-1.4-6.9-.2t-5.4 4.5L65.3 185q-1.9 2.8-1.2 6.4t3.6 6l41.7 32.7-1 9.4-.4 10q0 4.7.5 9.5l1 9.5-41.8 32.7q-2.9 2.4-3.6 6t1.2 6.8l39.4 68.3q1.9 3.3 5.4 4.5t7-.2l48.8-20q7.6 5.8 16.1 10.7t17.6 8.8l7 52.2q.5 3.8 3.4 6.2t6.6 2.3h78.8q3.8 0 6.4-2.3t3.5-6.2l7.2-52.2q9-3.8 17.5-8.8t16.1-10.6l48.9 19.9q3.3 1 6.9 0t5.4-4.3l39.4-68.3q1.9-3.3 1.2-6.9t-3.6-5.9l-41.7-32.7zM256 318.3q-28.5 0-48.9-20.2t-20.4-48.6q0-29 20.4-49.1t48.9-20.2 48.9 20.2 20.4 49.1q0 28.5-20.4 48.6T256 318.3z"></path>
</symbol>
<symbol id="vjs-icon-close" viewBox="0 0 512 512">
<path d="M256 34q-45 0-84 17-39 16-69 46t-46 68q-17 40-17 85 0 44 17 84t46 68 69 47q39 17 84 17t84-17q39-17 69-47t46-68 17-84q0-45-17-85-17-39-46-68t-69-46q-39-17-84-17zm108 293-31 31-77-78-77 78-31-31 77-77-77-78 31-30 77 77 77-77 31 30-77 78 77 77z"></path>
</symbol>
<symbol id="vjs-icon-replay" viewBox="0 0 512 512">
<path d="M256.3 119.8V33.3l-108.6 108 108.6 108v-86q26.4 0 50 10 24 10 41.4 27.7t27.6 41.3q10.4 23.4 10.4 50.4t-10.4 50.6q-10 23.4-27.6 41t-41.4 28q-23.6 10-50 10-27 0-50.6-10-24-10.6-41.4-28t-27.6-41q-10.4-23.6-10.4-50.6h-43q0 36 13.5 67.6 13.5 31 37 54.4t55 37q31.4 14 67.4 14 35.6 0 67-14 31.6-13.4 55-37t37-54.4q13.6-31.6 13.6-67.6t-13.6-67.4-37-54.8-55-37.3q-31.4-13.4-67-13.4z"></path>
</symbol>
<symbol id="vjs-icon-audio" viewBox="0 0 512 512">
<path d="M255.8 63q-36.5 0-68.6 14.1-32.2 13.7-56 37.8T93 171.2q-13.7 32.2-13.7 68.6v137.6q0 24.2 17.2 41.4t41.4 17.3h59.1V279h-78.5v-39.3q0-28.4 10.9-53.4t29.3-43.8 43.5-29.6 53.5-10.8q28.8 0 53.9 10.8 24.6 11 43.3 29.6t29.5 43.8 10.9 53.4v39.3h-78.5v157H374q24.1 0 41.4-17.3t17.3-41.4V239.8q0-36.4-13.8-68.6-14.2-32.1-38-56.3t-56-37.8Q292.6 63 255.7 63z"></path>
</symbol>
<symbol id="vjs-icon-volume1" viewBox="0 0 512 512">
<path d="M60.8 188.6v130h86.5l108 108v-346l-108 108z"></path>
</symbol>
<symbol id="vjs-icon-forward5" viewBox="0 0 512 512">
<path d="m285 374 28-2q1 9 7 14t13 5q9 0 15-6 6-7 6-21 0-13-6-19-6-7-15-7-13 0-22 10l-23-3 14-73h75v25h-53l-5 24q10-4 20-4 18 0 31 13t13 33q0 18-10 31-15 19-40 19-20 0-33-10t-15-29zM64 147v256c0 2 1 5 3 6s4 3 7 3h128v-39h-99V176h236v40c0 5 2 9 5 10s8 1 12-1l85-58c3-1 5-3 6-6s1-7 0-10l-3-3-3-2-85-57c-4-3-8-4-12-2s-5 5-5 11v39H74c-3 0-5 1-7 3s-3 4-3 7z"></path>
</symbol>
<symbol id="vjs-icon-forward10" viewBox="0 0 512 512">
<path d="M64 147v256q0 4 3 7t7 2h128v-39h-99V176h236v40q0 8 5 11t12-2l85-58q5-1 6-6t0-10l-3-3-3-2-85-57q-7-5-12-2t-5 11v39H74q-4 0-7 3t-3 7zm330 149q-6-9-15-15t-21-6q-11 0-21 6t-15 15q-14 22-14 48t14 47q6 10 15 15t21 6q11 0 21-6t15-15q13-22 13-47t-13-48zm-36 97q-12 0-21-15t-9-35q0-20 9-34t21-15q11 0 20 15t9 34q0 21-8 35t-21 15zm-89 19V309l-10 9-13-14 26-26q5-5 11-2t6 9v128z"></path>
</symbol>
<symbol id="vjs-icon-forward20" viewBox="0 0 512 512">
<path d="M64 147v256c0 3 1 5 3 7s4 3 7 3h128v-40h-99V177h236v39c0 5 2 9 5 10s8 2 12-1l85-57 5-5 2-6v-3l-1-3-2-3-4-2-85-57c-4-3-8-4-12-2s-5 5-5 10v40H74c-3 0-5 1-7 3s-3 4-3 7zm272 239v25h-90q1-14 9-27 7-12 28-33 18-17 22-23 5-8 5-16 0-9-5-14-4-4-12-4t-13 5-6 16l-25-2q2-22 14-32t30-10q20 0 31 12t12 27q0 9-4 18-3 8-10 18l-17 17q-12 11-15 16l-5 7zm60-115q19 0 30 15 13 17 13 56 0 40-13 57-11 14-30 14t-31-15q-12-16-12-56 0-39 13-56 11-15 30-15zm0 23q-5 0-8 3-4 3-6 11-2 10-2 34t2 34q2 9 6 12 3 3 8 3t8-3q4-3 6-11 3-10 3-35t-3-33q-2-9-6-12-3-3-8-3z"></path>
</symbol>
<symbol id="vjs-icon-forward30" viewBox="0 0 512 512">
<path d="M64 147v256c0 3 1 5 3 7s4 3 7 3h128v-40h-99V177h236v39c0 5 2 9 5 10s8 2 12-1l85-57 5-5 2-6v-3l-1-3-2-3-4-2-85-57c-4-3-8-4-12-2s-5 5-5 10v40H74c-3 0-5 1-7 3s-3 4-3 7zm184 227 25-3q1 10 6 15t13 5q8 0 13-6 6-6 6-17 0-10-5-16t-13-6l-12 2 3-21q10 0 16-5 5-5 5-13 0-7-4-11t-10-5q-7 0-12 5t-5 14l-24-4q3-13 8-20 5-8 13-12 9-5 20-5 19 0 31 13 9 10 9 23 0 18-19 29 11 3 18 12t7 21q0 18-13 31t-32 13q-18 0-30-11-12-10-14-28zm148-103q19 0 30 15 13 17 13 56 0 40-13 57-11 14-30 14t-31-15q-12-16-12-56 0-39 13-56 11-15 30-15zm0 23q-5 0-8 3-4 3-6 11-2 10-2 34t2 34q2 9 6 12 3 3 8 3t8-3q4-3 6-11 3-10 3-35t-3-33q-2-9-6-12-3-3-8-3z"></path>
</symbol>
<symbol id="vjs-icon-rewind5" viewBox="0 0 512 512">
<path d="m111 341 28-2q2 9 7 14 6 5 14 5 9 0 15-6 6-7 6-21 0-13-6-19-6-7-16-7-12 0-22 10l-22-3 14-73h75v25h-54l-4 24q9-4 19-4 19 0 32 13t13 33q0 18-10 31-15 19-40 19-21 0-33-10t-16-29zm337-226v256l-3 6c-2 2-4 3-7 3H310v-39h99V144H173v40c0 5-2 9-5 10s-8 1-12-2l-85-57c-3-1-5-3-6-7s-1-6 0-9l3-3 3-2 85-57c4-3 8-4 12-2s5 5 5 11v39h265c3 0 5 1 7 3s3 4 3 7z"></path>
</symbol>
<symbol id="vjs-icon-rewind10" viewBox="0 0 512 512">
<path d="M242 297q-6-10-15-16t-21-6q-11 0-21 6t-15 15v1q-6 10-10 22t-4 25 4 25 10 23v-1q5 10 15 16t21 6q11 0 21-6t15-15v-1q6-10 10-22t3-25-3-25-10-23v1zm-36 96q-12 0-21-14t-9-35 9-35 21-14 21 14 9 35-9 35-21 14zm-89 20V309l-10 10-14-14 27-27 3-2 4-1q4 0 7 3t3 7v128h-20zm331-266v256q0 4-3 7t-7 3H310v-40h99V177H173v39q0 8-5 10t-12-1l-85-57-5-5-2-6v-3l1-3 2-3q1-2 4-2l85-57q7-5 12-2t5 11v39h265q4 0 7 3t3 7z"></path>
</symbol>
<symbol id="vjs-icon-rewind20" viewBox="0 0 512 512">
<path d="M448 147v256l-3 6c-2 2-4 3-7 3H310v-39h99V176H173v39c0 6-2 9-5 11s-8 1-12-2l-85-57-5-4-2-7v-3l1-2 2-3 4-3 85-57c4-3 8-3 12-2s5 6 5 11v40h265l7 2c2 1 3 5 3 8zM161 387v24H71q2-14 9-26 7-13 29-34 17-16 21-22 5-8 5-17 0-8-4-13-5-5-13-5t-13 5-5 17l-26-3q3-22 15-31t30-10q19 0 31 11t11 28q0 9-3 17-3 9-10 18l-17 18-16 15-5 8zm61-115q19 0 30 14 13 17 13 57 0 39-13 56-11 15-30 15-20 0-32-16-12-15-12-55t13-57q11-14 31-14zm0 22q-5 0-9 3-3 3-5 11-3 10-3 35t2 33q3 10 6 13 4 3 9 3t8-3q3-4 5-11 3-11 3-35t-2-34q-3-9-6-12-4-3-8-3z"></path>
</symbol>
<symbol id="vjs-icon-rewind30" viewBox="0 0 512 512">
<path d="M448 147v256l-3 6c-2 2-4 3-7 3H310v-39h99V176H173v39c0 6-2 9-5 11s-8 1-12-2l-85-57-5-4-2-7v-3l1-2 2-3 4-3 85-57c4-3 8-3 12-2s5 6 5 11v40h265l7 2c2 1 3 5 3 8zM74 374l25-3q1 10 6 15t12 6q8 0 14-7 5-6 5-16 0-11-5-16t-13-6l-11 2 2-22q11 0 16-5 6-5 6-13 0-7-4-11t-11-4q-6 0-11 5t-6 13l-23-4q2-12 7-20 5-7 14-12 9-4 20-4 19 0 30 12 9 11 9 24 0 18-19 29 12 2 18 11 7 9 7 22 0 18-12 31t-32 13q-18 0-30-11t-14-29zm148-102q19 0 30 14 13 17 13 57 0 39-13 56-11 15-30 15-20 0-32-16-12-15-12-55t13-57q11-14 31-14zm0 22q-5 0-9 3-3 3-5 11-3 10-3 35t2 33q3 10 6 13 4 3 9 3t8-3q3-4 5-11 3-11 3-35t-2-34q-3-9-6-12-4-3-8-3z"></path>
</symbol>
<symbol id="vjs-icon-volume2" viewBox="0 0 512 512">
<path d="M61.5 187.8v130H148l108 108v-346l-108 108zm292 65a97.9 97.9 0 0 0-54-87v174a97.9 97.9 0 0 0 54-87z"></path>
</symbol>
<symbol id="vjs-icon-playlist" viewBox="0 0 512 512">
<path d="M47 166h334v56H47v-56zm0-111h334v55H47V55zm0 222h223v56H47v-56zm279 0v167l139-83z"></path>
</symbol>
<symbol id="vjs-icon-big-play" viewBox="0 0 512 512">
<path d="M185.3 98.3v302.4l237.4-151z"></path>
</symbol>
</defs>
</svg>
