<svg aria-hidden="true" style="position: absolute; width: 0; height: 0; overflow: hidden;" version="1.1" xmlns="http://www.w3.org/2000/svg" xmlns:xlink="http://www.w3.org/1999/xlink">
<defs>
<symbol id="vjs-icon-big-play" viewBox="0 0 512 512">
<path d="<path d="M465.55 241.88c-7.3-109.12-98.34-195.69-209.29-195.69-115.7 0-209.8 94.12-209.8 209.81 0 115.7 94.11 209.81 209.8 209.81 61.1 0 119.05-26.57 158.98-72.89l-7.17-4.51c-37.36 43.33-94.96 69.42-152.12 69.42-108.23 0-201.53-93.62-201.53-201.84S148.04 54.16 256.25 54.16c103.07 0 190.87 73.84 201.19 187.92zm-194.52 222.7c113.32-11.63 194.52-97.11 194.52-208.05 0-115.7-94-209.81-209.55-209.81-115.55 0-209.55 94.11-209.55 209.8 0 61.1 26.54 119.05 72.8 158.98l4.51-7.17c-43.28-37.36-70.57-95.89-70.57-153.05 0-108.22 94.73-200.6 202.82-200.6 108.09 0 206.53 93.73 201.58 201.84-4.95 108-74.06 187.77-188.61 201.18zm-58.2-292.63V351.6l146.95-90.26zm8.71 15.37 118.7 74.1-118.26 73.42z"></path>
</symbol>
<symbol id="vjs-icon-audio" viewBox="0 0 512 512">
<path d="M439.4 257.3c-4.7-110.1-85-198.2-183.4-198.2s-178.7 88-183.4 198.2c-14.5 5-25 18.6-25 34.7v98.1a36.7 36.7 0 0 0 36.6 36.8h37v-24.5h24.5V279.8h-24.5v-24.5h-24c5.5-95.7 74.5-171.7 158.8-171.7s153.3 76 158.8 171.7h-24v24.5h-24.5v122.6h24.5v24.5h37a36.7 36.7 0 0 0 36.6-36.8v-98a36.7 36.7 0 0 0-25-34.8zm-342.8 145H84.2c-6.6 0-12-5.5-12-12.2v-98c0-6.8 5.4-12.3 12-12.3h12.4v122.6zM440 390.2c0 6.7-5.5 12.3-12.1 12.3h-12.4V279.8h12.4c6.6 0 12 5.5 12 12.2v98.1z"></path>
</symbol>
<symbol id="vjs-icon-chapters" viewBox="0 0 512 512">
<path d="M483.4 122.6v26.8h-321v-26.8h321zM108.9 136a40.2 40.2 0 1 1-80.4 0 40.2 40.2 0 0 1 80.4 0zM82 136a13.4 13.4 0 1 0-26.8 0 13.4 13.4 0 0 0 26.8 0zm80.3 120.4h321v-26.8h-321v26.8zM108.9 243a40.2 40.2 0 1 1-80.3 0 40.2 40.2 0 0 1 80.3 0zM82 243a13.4 13.4 0 1 0-26.8 0 13.4 13.4 0 0 0 26.8 0zm80.3 120.4h321v-26.8h-321v26.8zM108.9 350a40.2 40.2 0 1 1-80.3-.1 40.2 40.2 0 0 1 80.3 0zM82 350a13.4 13.4 0 1 0-26.8 0 13.4 13.4 0 0 0 26.8 0z"></path>
</symbol>
<symbol id="vjs-icon-pause" viewBox="0 0 512 512">
<path d="d="M98.2 422.5h121.6v-359H98.2zm20.4-338.7h80.8v318.4h-80.8zm173.6-20.3v359h121.6v-359zm101.2 338.7h-80.8V83.8h80.8z""></path>
</symbol>
<symbol id="vjs-icon-play" viewBox="0 0 512 512">
<path d="M108.9 66.5v353L403 242.1zm25.3 49.1 212.3 126.7-212.3 128z"></path>
</symbol>
<symbol id="vjs-icon-settings" viewBox="0 0 512 512">
<path d="d="M256 183.5a59.6 59.6 0 1 0 .2 119.1 59.6 59.6 0 0 0-.2-119zm0 95.2a35.7 35.7 0 1 1 0-71.5 35.7 35.7 0 0 1 0 71.5zm200.8-12.5a202.3 202.3 0 0 0 0-46.4l-61.5-18.5A142 142 0 0 0 384 174l30.4-56.6a206 206 0 0 0-32.8-32.8L325 115c-8.6-4.6-17.8-8.4-27.4-11.3l-18.4-61.5a201.7 201.7 0 0 0-46.4 0l-18.4 61.5c-9.6 2.9-18.8 6.6-27.4 11.3l-56.6-30.4a203.1 203.1 0 0 0-32.8 32.8L128 174c-4.6 8.6-8.4 17.8-11.2 27.4l-61.6 18.5a201.7 201.7 0 0 0 0 46.4l61.5 18.4c2.9 9.6 6.7 18.8 11.3 27.4l-30.4 56.6a204.2 204.2 0 0 0 32.8 32.8L187 371c8.6 4.6 17.8 8.4 27.4 11.3l18.4 61.5a202.3 202.3 0 0 0 46.4 0l18.4-61.5c9.6-2.9 18.8-6.7 27.4-11.3l56.5 30.4a205.3 205.3 0 0 0 32.9-32.9L384 312c4.6-8.6 8.4-17.8 11.3-27.4l61.5-18.4zm-80.7-.7-3.6 12.4c-2.4 8-5.6 15.7-9.5 22.8l-6 11.3 6 11.3 22.7 42.1c-2.4 2.5-4.8 5-7.3 7.3L325 343.9l-11.3 6.1c-7.2 3.9-14.8 7-22.8 9.4l-12.4 3.7-3.6 12.3-13.8 46h-10.2l-13.7-46-3.7-12.3-12.4-3.7c-8-2.4-15.6-5.5-22.8-9.4l-11.3-6-53.4 28.6a196 196 0 0 1-7.3-7.2l28.8-53.4-6.1-11.3c-3.9-7.2-7-14.9-9.4-22.9l-3.7-12.3L77.6 248a125.2 125.2 0 0 1 0-10l58.3-17.5 3.7-12.4c2.3-8 5.5-15.7 9.4-22.8l6-11.3-28.7-53.4c2.4-2.5 4.8-5 7.3-7.3l53.4 28.8 11.4-6.2c7-3.8 14.7-7 22.7-9.4l12.3-3.6 3.7-12.3 13.8-46H261l13.9 46 3.6 12.3 12.4 3.7a121 121 0 0 1 22.8 9.4l11.3 6 53.4-28.7c2.5 2.4 5 4.8 7.3 7.3L363 162.7l-6 11.3 6 11.3c4 7.2 7 14.8 9.5 22.8l3.6 12.3 12.3 3.7 46 13.8v10.2L376 265.5z""></path>
</symbol>
<symbol id="vjs-icon-volume3" viewBox="0 0 512 512">
<path d="M113.7 163.4C89.3 163.4 74 176 74 196.7v55.1a39.5 39.5 0 0 0 39.6 39.7H158l145.1 145v-419L159.6 163.3zm164-83.7V375l-109-109h-55a14 14 0 0 1-14-14.2v-55.1c0-2.3 0-7.8 14-7.8h56.5L277.7 79.7zm57.5 212.6v-25.5a25.7 25.7 0 0 0 0-51.4v-25.5a51.3 51.3 0 0 1 0 102.4zm102.7-51c0 56.3-45.8 102-102 102v-25.5a76.6 76.6 0 0 0 0-153v-25.6c56.2 0 102 45.8 102 102.1z"></path>
</symbol>
<symbol id="vjs-icon-volume2" viewBox="0 0 512 512">
<path d="M107.4 166.5c-24.4 0-39.6 12.8-39.6 33.4V255a39.5 39.5 0 0 0 39.6 39.6h44.5l145 145.2V20.6l-143.6 146zm164-83.6V378l-109-109h-55a14 14 0 0 1-14-14.1v-55.1c0-2.4 0-7.8 14-7.8h56.5zM329 295.5V270a25.7 25.7 0 0 0 0-51.5V193a51.3 51.3 0 0 1 0 102.5zm.6 51V321z"></path>
</symbol>
<symbol id="vjs-icon-volume1" viewBox="0 0 512 512">
<path d="M112 166.5c-24.3 0-39.5 12.8-39.5 33.4V255a39.5 39.5 0 0 0 39.6 39.6h44.5l145 145.2V20.6L158 166.6zM276.2 83V378l-109-109h-55A14 14 0 0 1 98 255v-55.1c0-2.4 0-7.8 14-7.8h56.5zm51.4 263.6V321z"></path>
</symbol>
<symbol id="vjs-icon-mute" viewBox="0 0 512 512">
<path d="M111.9 166.5c-24.4 0-39.6 12.8-39.6 33.4V255a39.5 39.5 0 0 0 39.6 39.6h44.5l145 145.2V20.6l-143.6 146zm164-83.6V378l-109-109h-55a14 14 0 0 1-14-14.1v-55.1c0-2.4 0-7.8 14-7.8h56.6L275.9 82.9zm177.4 85.5L323.8 285.1l18.4 17.3 129.4-116.7zm-111.2.2-18.8 17L450 304.9l18.8-17z"></path>
</symbol>
<symbol id="vjs-icon-fullscreen" viewBox="0 0 512 512">
<path d="M471 189.2h-35.8V99.6H309.8V63.8H471v125.4zm-161.2 233v-35.8h125.4v-89.6h35.9v125.4H309.8zM40.9 296.8h35.9v89.6h125.4v35.8H41V296.8zm161.3-233v35.8H76.8v89.6H40.9V63.8h161.3z"></path>
</symbol>
<symbol id="vjs-icon-fullscreen-back" viewBox="0 0 512 512">
<path d="M309.8 63.8h35.8v89.6h125.5v35.8H309.8V63.8zm161.3 233v35.8H345.6v89.6h-35.8V296.8H471zM202.2 422.2h-35.8v-89.6H40.9v-35.8h161.3v125.4zM41 189.2v-35.8h125.5V63.8h35.8v125.4H41z"></path>
</symbol>
<symbol id="vjs-icon-mirror1" viewBox="0 0 512 512">
<path d="m153.5 263.8 21.5 21.5-50 50h312.7v30.3l-312.7.1 50 50-21.5 21.5-86.7-86.7 86.7-86.7zm205-189L337 96.3l50 50H74.3v30.3H387l-50 50 21.5 21.6 86.7-86.7-86.7-86.7z"></path>
</symbol>
<symbol id="vjs-icon-mirror2" viewBox="0 0 512 512">
<path d="M358.5 263.8 337 285.3l50 50H74.3v30.3l312.7.1-50 50 21.5 21.5 86.7-86.7-86.7-86.7zm-205-189L175 96.3l-50 50h312.7v30.3H125l50 50-21.5 21.6-86.7-86.7 86.7-86.7z"></path>
</symbol>
<symbol id="vjs-icon-captions" viewBox="0 0 512 512">
<path d="M457 97H55v292h402zm20-20v332H35V77zM219 274l23 15a84 84 0 0 1-69 37c-23 0-42-8-58-24s-25-36-25-59 8-42 25-59 35-24 58-24c14 0 27 3 39 10s22 16 30 27l-23 15a52 52 0 0 0-46-24c-15 0-28 5-39 16s-16 24-16 39 5 28 16 39 24 16 39 16c20 0 35-8 46-24zm166 0 23 15a84 84 0 0 1-69 37c-23 0-42-8-59-24s-24-36-24-59 8-42 24-59c17-16 36-24 59-24 14 0 27 3 39 10s22 16 30 27l-23 15a52 52 0 0 0-46-24c-15 0-29 5-39 16-11 11-16 24-16 39s5 28 16 39 24 16 39 16c20 0 35-8 46-24z"></path>
</symbol>
<symbol id="vjs-icon-pip" viewBox="0 0 512 512">
<path d="d="M406.8 70.2H108c-27.5 0-50.2 19.1-50.2 43v259.3c0 23.8 22.7 43.3 50.2 43.3h298.8c27.5 0 47.4-19.5 47.4-43.3V113.2c0-23.9-19.9-43-47.4-43zM424 385.6H88V100.4h336zM268.7 254.2h132.7v109.2H268.7V254.2z"></path>
</symbol>
<symbol id="vjs-icon-forward5" viewBox="0 0 512 512">
<path d="m213.4 322.7 29.1-3q1.3 9.9 7.4 15.7 6.2 5.7 14.2 5.7 9.2 0 15.5-7.4 6.4-7.5 6.4-22.5 0-14-6.4-21-6.2-7-16.3-7-12.6 0-22.6 11l-23.8-3.4 15-79.5h77.4v27.4h-55.2l-4.6 26q9.8-5 20-5 19.5 0 33 14.2t13.6 36.8q0 18.9-11 33.7-14.9 20.2-41.3 20.2-21.2 0-34.5-11.4t-16-30.5zM249.7 35v37a193.3 193.3 0 0 0-143.8 67.4 204.5 204.5 0 0 0-38.6 194.4c13.9 42.3 43.5 78.7 81 102.5 39.5 25.7 88.2 38 135 30.6 63.4-9.1 120.6-50.9 149.8-107.7 18-34.7 25.4-75 19.7-113.7-3-22.2-9.5-44.1-20.5-63.7-3.3-4.9-10.7-8.4-16-4.5-6.7 4.7-7.1 14.1-5.7 21.5 2.7 12.6 10.1 23.6 12.4 36.4 18.4 103.7-61.2 197.1-153.5 208-75.5 7.2-152.8-42.4-177.6-114.4A182.7 182.7 0 0 1 153 128.6 164 164 0 0 1 250 95.8c1 18.3.4 48 .4 65.9 3 9.4 17.2 12.4 23.6 4.8 25.6-21.6 51.9-42.4 76.9-64.8 5-7 1.2-17.5-6.2-21.3-25.2-20.7-49.6-42.3-75.5-62.2-11.3-4-21.1 8-19.5 16.8z"></path>
</symbol>
<symbol id="vjs-icon-forward10" viewBox="0 0 512 512">
<path d="M315.2 200.4q22.2 0 34.7 15.8 14.9 18.8 14.9 62.2 0 43.3-15 62.3-12.4 15.6-34.6 15.6-22.3 0-36-17-13.6-17.3-13.6-61.2 0-43.2 15-62.1 12.4-15.6 34.6-15.6zm0 24.2q-5.3 0-9.5 3.5-4.2 3.3-6.5 12-3 11.4-3 38.3t2.7 37q2.7 10 6.8 13.3 4.2 3.3 9.5 3.3t9.5-3.3q4.1-3.4 6.4-12.2 3-11.2 3-38.1t-2.7-36.9q-2.7-10-6.8-13.4-4.1-3.5-9.4-3.5zm-93.3 129.1h-29.3V243.4q-16 15-37.8 22.2V239q11.4-3.7 24.9-14.2 13.4-10.5 18.4-24.4h23.8zM249.7 35v37a193.3 193.3 0 0 0-143.8 67.4 204.5 204.5 0 0 0-38.6 194.4c13.9 42.3 43.5 78.7 81 102.5 39.5 25.7 88.2 38 135 30.6 63.4-9.1 120.6-50.9 149.8-107.7 18-34.7 25.4-75 19.7-113.7-3-22.2-9.5-44.1-20.5-63.7-3.3-4.9-10.7-8.4-16-4.5-6.7 4.7-7.1 14.1-5.7 21.5 2.7 12.6 10.1 23.6 12.4 36.4 11.5 45.9-.4 96.1-28.3 134a179.2 179.2 0 0 1-125.2 74c-75.5 7.2-152.8-42.4-177.6-114.4A182.7 182.7 0 0 1 153 128.6 164 164 0 0 1 250 95.8c1 18.3.4 48 .4 65.9 3 9.4 17.2 12.4 23.6 4.8 25.6-21.6 51.9-42.4 76.9-64.8 5-7 1.2-17.5-6.2-21.3-25.2-20.7-49.6-42.3-75.5-62.2-11.3-4-21.1 8-19.5 16.8z"></path>
</symbol>
<symbol id="vjs-icon-pip-full" viewBox="0 0 512 512">
<path d="M406.8 70.2H108c-27.5 0-50.2 19.1-50.2 43v259.3c0 23.8 22.7 43.3 50.2 43.3h298.8c27.5 0 47.4-19.5 47.4-43.3V113.2c0-23.9-19.9-43-47.4-43zM424 385.6H88V100.4h336zm-315.4-267h292.8v244.8H108.6V118.6z"></path>
</symbol>
<symbol id="vjs-icon-download" viewBox="0 0 512 512">
<path d="M444.2 185.3c-7.9 0-14.2 6.4-14.2 14.3V396H82V199.6a14.3 14.3 0 0 0-28.5 0v210.7c0 7.9 6.4 14.2 14.3 14.2h376.4c7.9 0 14.3-6.3 14.3-14.2V199.6c0-7.9-6.4-14.3-14.3-14.3zM246 334.8a14.3 14.3 0 0 0 20.2 0l61.5-61.6a14.3 14.3 0 1 0-20.1-20.2l-37.2 37.2V75.7a14.3 14.3 0 0 0-28.6 0v214.5l-37.1-37.1a14.3 14.3 0 1 0-20.2 20.1l61.5 61.6z"></path>
</symbol>
<symbol id="vjs-icon-brightness" viewBox="0 0 512 512">
<path d="M249.8 6.3A17 17 0 0 0 241 17c-.3 1.7-.5 18.6-.3 37.7.3 33 .4 34.6 2.3 37.1 3.9 5.2 7 6.8 13.2 6.8s9.3-1.6 13.1-6.8c2-2.6 2.1-3.8 2.1-39.8s-.1-37.2-2-39.8c-1.1-1.5-3.2-3.7-4.6-4.6-3.2-2.5-11-3.2-15-1.3zm-165 68.4a17 17 0 0 0-10.2 11c-2.2 8.1-1.3 9.4 26.4 37.1 20.9 21 25.9 25.4 29.1 26.2 11.2 3 22-7.8 19-19-.8-3.2-5.3-8.2-25.2-28.3-27.8-28.1-30-29.7-39.1-27zm331.8.8c-2.4 1.1-13 11-28.1 26.2-20.2 20.4-24.4 25-25.3 28.3-3 11.2 7.9 22 19 19 3.3-.8 8.3-5.3 28.4-25.2 26.1-26 28.9-29.5 27.6-36.4-1.9-10.4-12.6-16.4-21.6-12zM242.5 131c-20.5 2.6-40 9.9-57 21.3a164.9 164.9 0 0 0-33 33c-9.3 14-16 29.7-19.5 46.2a158.3 158.3 0 0 0 0 49 122.7 122.7 0 0 0 34.8 63.9 122.7 122.7 0 0 0 63.9 34.8c11.6 2.6 37.3 2.6 49 0a123 123 0 0 0 63.9-34.8 123 123 0 0 0 34.8-63.9c2.6-11.7 2.6-37.4 0-49a122.7 122.7 0 0 0-34.8-64 120.6 120.6 0 0 0-62-34.3c-8-1.8-32.4-3.2-40.1-2.2zm36.4 33.6a90.6 90.6 0 0 1 44.5 26c28.3 29 35 71.2 17 107-5.5 11-8.9 15.7-17.9 24.7s-13.6 12.4-24.7 17.9a89.5 89.5 0 0 1-47 9.7 89.1 89.1 0 0 1-60.3-27.2 92.5 92.5 0 0 1-26.2-45.7c-2.4-9.3-2.4-32.7 0-42a94.2 94.2 0 0 1 25.2-44.8 91 91 0 0 1 50.3-27c9.8-1.9 29.3-1.2 39 1.4zm-264.6 77a16.1 16.1 0 0 0-8.9 17.8c.9 4.6 5.8 10 10.2 11.3 2.4.7 15.7 1 38.7.8 33.5-.3 35-.4 37.6-2.4 5.2-3.8 6.8-7 6.8-13.1s-1.6-9.3-6.8-13.2c-2.5-2-4-2-38.6-2.2-28.5-.2-36.6 0-39 1zm408.2 0a16.1 16.1 0 0 0-9 17.8c1 4.6 5.9 10 10.3 11.3 2.3.7 15.7 1 38.6.8 33.6-.3 35.2-.4 37.7-2.4 5.2-3.8 6.8-7 6.8-13.1s-1.6-9.3-6.8-13.2c-2.5-2-4-2-38.6-2.2-28.5-.2-36.6 0-39 1zM129.1 363.6c-3 1.1-9.9 7.5-28.5 26.2-20.2 20.3-25 25.5-26 28.8a15.6 15.6 0 0 0 19.2 19.1c3.2-1 8.4-5.7 29.2-26.3 20.9-20.9 25.3-25.9 26.2-29.1 3-11.8-8.6-22.8-20-18.7zm244.3 0a15.8 15.8 0 0 0-10.2 18.7c1 3.2 5.4 8.2 25.3 28.3 26.3 26.4 29.4 28.8 36.6 27.6a18 18 0 0 0 12.7-11.6c2.2-8 1-9.6-25.4-36.3a494.7 494.7 0 0 0-26.7-25.7 14.6 14.6 0 0 0-12.3-1zm-123.6 51A17 17 0 0 0 241 425c-.3 1.8-.5 18.7-.3 37.7.3 33 .4 34.7 2.3 37.2 3.9 5.2 7 6.8 13.2 6.8s9.3-1.6 13.1-6.8c2-2.6 2.1-3.8 2.1-39.8s-.1-37.2-2-39.9c-1.1-1.4-3.2-3.6-4.6-4.6-3.2-2.4-11-3.1-15-1.2z"></path>
</symbol>
<symbol id="vjs-icon-contrast" viewBox="0 0 512 512">
<path d="M256 506.9A250.9 250.9 0 1 1 256 5a250.9 250.9 0 0 1 0 501.8zm7.2-466.7c-107.8.5-224 91.4-224 214.8 0 104 114 216.8 217.8 217.8 107 1 220.8-111 218.9-215.8C474 154 372.4 39.7 263.2 40.2zM256 412.8V99.2a156.8 156.8 0 1 1 0 313.6z"></path>
</symbol>
<symbol id="vjs-icon-saturation" viewBox="0 0 512 512">
<path d="M256 5.1a250.9 250.9 0 1 0 0 501.8 250.9 250.9 0 0 0 0-501.8zm0 27.5c115.5 0 221.3 107 221.3 222.4 0 0-43-19.9-116.8-19.9C298.2 235.1 256 256 256 256s-63.1 20.9-104.6 20.9c-73.1 0-116.7-25-116.7-25C34.7 136.4 140.5 32.6 256 32.6z"></path>
</symbol>
<symbol id="vjs-icon-filters" viewBox="0 0 512 512">
<path d="M338.7 349.7H504v27.6H338.7zm-110.3 0H8v27.6h220.4v82.6H256V294.6h-27.6zm82.7-220.4h27.6V-36.1H311V19H8v27.6h303.1zM421.3 19v27.6H504V19zM90.7 294.6h27.5V129.3H90.7v55H8V212h82.7zm110.2-82.7H504v-27.5H200.9zm137.8 165.2H504v27.5H338.7zm-83.1 0H8v27.5h247.6V460h27.6V294.6h-27.6zm82.7-247.8h27.5V-36.1h-27.5v82.5H8v27.5h330.3zm83-83V74H504V46.4zm-303.5 248h27.6v-165h-27.6v82.4H8v27.6h109.8zm83-55H504v-27.6H200.9z"></path>
</symbol>
<symbol id="vjs-icon-replay" viewBox="0 0 512 512">
<path d="M506.7 224h-45.5a208 208 0 0 0-390-64.1l29.8 11.9A176.2 176.2 0 0 1 429 224h-54.7c-5 4.8-9.7 7.8-2.6 16.1l59.7 60.7a13 13 0 0 0 18 0l60-60.7c5-4.8 2.4-11.3-2.6-16.1zm-251 208A176 176 0 0 1 86.3 304h52c5-4.8 7.6-11.3 2.7-16.1l-60.1-60.7a13 13 0 0 0-18 0L3.4 287.9C-3.7 296.2 1 299.2 6 304h47.7a207.8 207.8 0 0 0 379.2 61.1l-30.2-12a176 176 0 0 1-147 78.9z"/>
</symbol>
<symbol id="vjs-icon-forward20" viewBox="0 0 512 512">
<path d="M315.2 200.4q22.2 0 34.7 15.8 14.9 18.8 14.9 62.2 0 43.3-15 62.3-12.4 15.6-34.6 15.6-22.3 0-36-17-13.6-17.3-13.6-61.2 0-43.2 15-62.1 12.4-15.6 34.6-15.6zm0 24.2q-5.3 0-9.5 3.5-4.2 3.3-6.5 12-3 11.4-3 38.3t2.7 37q2.7 10 6.8 13.3 4.2 3.3 9.5 3.3t9.5-3.3q4.1-3.4 6.4-12.2 3-11.2 3-38.1t-2.7-36.9q-2.7-10-6.8-13.4-4.1-3.5-9.4-3.5zm-69.4 102v27.1H143.2q1.7-15.4 10-29.2 8.3-13.8 33-36.6 19.7-18.5 24.2-25 6-9 6-18 0-9.7-5.3-15-5.2-5.3-14.5-5.3-9.1 0-14.5 5.6t-6.3 18.3l-29.2-3q2.6-24 16.4-34.6t34.4-10.5q22.6 0 35.5 12.2t13 30.3q0 10.3-3.8 19.7-3.7 9.2-11.7 19.4-5.3 6.8-19.2 19.5t-17.6 16.9q-3.6 4.2-6 8.1zM249.7 35v37a193.3 193.3 0 0 0-143.8 67.4 204.5 204.5 0 0 0-38.6 194.4c13.9 42.3 43.5 78.7 81 102.5 39.5 25.7 88.2 38 135 30.6 63.4-9.1 120.6-50.9 149.8-107.7 18-34.7 25.4-75 19.7-113.7-3-22.2-9.5-44.1-20.5-63.7-3.3-4.9-10.7-8.4-16-4.5-6.7 4.7-7.1 14.1-5.7 21.5 2.7 12.6 10.1 23.6 12.4 36.4 11.5 45.9-.4 96.1-28.3 134a179.2 179.2 0 0 1-125.2 74c-75.5 7.2-152.8-42.4-177.6-114.4A182.7 182.7 0 0 1 153 128.6 164 164 0 0 1 250 95.8c1 18.3.4 48 .4 65.9 3 9.4 17.2 12.4 23.6 4.8 25.6-21.6 51.9-42.4 76.9-64.8 5-7 1.2-17.5-6.2-21.3-25.2-20.7-49.6-42.3-75.5-62.2-11.3-4-21.1 8-19.5 16.8z"></path>
</symbol>
<symbol id="vjs-icon-forward30" viewBox="0 0 512 512">
<path d="M315.2 200.4q22.2 0 34.7 15.8 14.9 18.8 14.9 62.2 0 43.3-15 62.3-12.4 15.6-34.6 15.6-22.3 0-36-17-13.6-17.3-13.6-61.2 0-43.2 15-62.1 12.4-15.6 34.6-15.6zm0 24.2q-5.3 0-9.5 3.5-4.2 3.3-6.5 12-3 11.4-3 38.3t2.7 37q2.7 10 6.8 13.3 4.2 3.3 9.5 3.3t9.5-3.3q4.1-3.4 6.4-12.2 3-11.2 3-38.1t-2.7-36.9q-2.7-10-6.8-13.4-4.1-3.5-9.4-3.5zm-169.3 88.6 28.3-3.5q1.4 10.9 7.3 16.6T196 332q9 0 15.2-6.8 6.3-7 6.3-18.6 0-11-6-17.5t-14.4-6.4q-5.7 0-13.5 2.1l3.2-23.8q12 .3 18.2-5.1 6.2-5.5 6.2-14.6 0-7.7-4.6-12.3t-12.1-4.6q-7.5 0-12.9 5.2t-6.4 15.2l-27-4.5q2.8-13.9 8.4-22.1 5.8-8.4 15.9-13 10.2-4.8 22.8-4.8 21.5 0 34.6 13.7 10.7 11.3 10.7 25.4 0 20.1-22 32.1 13.1 2.8 21 12.6t7.9 23.7q0 20-14.7 34.2T196 356.3q-20.7 0-34.4-11.9-13.6-12-15.8-31.2zM249.7 35v37a193.3 193.3 0 0 0-143.8 67.4 204.5 204.5 0 0 0-38.6 194.4c13.9 42.3 43.5 78.7 81 102.5 39.5 25.7 88.2 38 135 30.6 63.4-9.1 120.6-50.9 149.8-107.7 18-34.7 25.4-75 19.7-113.7-3-22.2-9.5-44.1-20.5-63.7-3.3-4.9-10.7-8.4-16-4.5-6.7 4.7-7.1 14.1-5.7 21.5 2.7 12.6 10.1 23.6 12.4 36.4 11.5 45.9-.4 96.1-28.3 134a179.2 179.2 0 0 1-125.2 74c-75.5 7.2-152.8-42.4-177.6-114.4A182.7 182.7 0 0 1 153 128.6 164 164 0 0 1 250 95.8c1 18.3.4 48 .4 65.9 3 9.4 17.2 12.4 23.6 4.8 25.6-21.6 51.9-42.4 76.9-64.8 5-7 1.2-17.5-6.2-21.3-25.2-20.7-49.6-42.3-75.5-62.2-11.3-4-21.1 8-19.5 16.8z"></path>
</symbol>
<symbol id="vjs-icon-rewind5" viewBox="0 0 512 512">
<path d="m206.1 321.2 29.2-3q1.2 10 7.4 15.7 6.1 5.8 14.2 5.8 9.1 0 15.5-7.4 6.3-7.5 6.3-22.5 0-14-6.3-21-6.3-7.2-16.4-7.2-12.6 0-22.6 11.2l-23.7-3.4 15-79.5H302v27.4h-55.2l-4.6 26q9.8-5 20-5 19.4 0 33 14.2t13.5 36.8q0 18.8-11 33.6-14.8 20.2-41.3 20.2-21.1 0-34.4-11.3t-16-30.6zM248 17c-8.4.5-13.4 8.2-19.7 12.6-22.3 19-45.6 37-67.3 56.8-4.7 7.1-.9 17.4 6.4 21.2 25.2 20.6 49.6 42.1 75.3 62.1 9 4.6 21.2-4 19.7-14 .2-19.7-.3-39.8.2-59.2 48-.3 95.8 22.7 125.6 60.4 39 48 52.4 116.6 31 175a174.3 174.3 0 0 1-89.7 95.4 162.7 162.7 0 0 1-125.5 7.2 181.7 181.7 0 0 1-117.2-137c-5.5-31.5-.2-64.2 13.2-93.1 3-8.5 3.6-19.2-2.9-26.3-5-4.6-13.7-2.3-17 3.4-6.5 8.7-9 19.4-13 29.3a192 192 0 0 0 9.4 143.5A204.5 204.5 0 0 0 237.2 468c44.6 4.6 90.3-7.6 127.5-32.3 39.8-26 71-66 83.2-112.2 17.8-66-.5-140.5-47.4-190.3a190 190 0 0 0-109.7-58.5c-9.4-1.5-19-2.4-28.5-2.7-.3-15.3 1-30.7-.9-46-2-5.4-7.7-9.2-13.5-9z"></path>
</symbol>
<symbol id="vjs-icon-rewind10" viewBox="0 0 512 512">
<path d="M313 207.2q22.1 0 34.6 15.8 15 18.8 15 62.2 0 43.3-15 62.3Q335 363 312.8 363q-22.3 0-35.9-17-13.6-17.3-13.6-61.2 0-43.1 15-62.1 12.3-15.6 34.5-15.6zm0 24.2q-5.4 0-9.5 3.5-4.2 3.3-6.5 12-3 11.4-3 38.3t2.7 37q2.7 10 6.8 13.3 4.1 3.3 9.4 3.3t9.5-3.3q4.2-3.4 6.5-12.2 3-11.2 3-38.1t-2.7-36.9q-2.7-10-6.9-13.4-4-3.5-9.4-3.5zm-93.4 129.1h-29.3V250.2q-16 15-37.8 22.2v-26.6q11.5-3.7 25-14.2 13.4-10.5 18.4-24.4h23.7zM247.9 17c-8.4.5-13.4 8.2-19.7 12.6-22.3 19-45.6 37-67.3 56.8-4.7 7.1-.9 17.4 6.4 21.2 25.2 20.6 49.6 42.1 75.3 62.1 9 4.6 21.2-4 19.7-14 .2-19.7-.3-39.8.2-59.2 48-.3 95.8 22.7 125.6 60.4 39 48 52.4 116.6 31 175a174.3 174.3 0 0 1-89.7 95.4 162.7 162.7 0 0 1-125.5 7.2 181.7 181.7 0 0 1-117.2-137c-5.5-31.5-.2-64.2 13.2-93.1 3-8.5 3.6-19.2-2.9-26.3-5-4.6-13.7-2.3-17 3.4-6.5 8.7-9 19.4-13 29.3a192 192 0 0 0 9.4 143.5A204.5 204.5 0 0 0 237.2 468c44.6 4.6 90.3-7.6 127.5-32.3 39.8-26 71-66 83.2-112.2 17.8-66-.5-140.5-47.4-190.3a190 190 0 0 0-109.7-58.5c-9.4-1.5-19-2.4-28.5-2.7-.3-15.3 1-30.7-.9-46-2-5.4-7.7-9.2-13.5-9z"></path>
</symbol>
<symbol id="vjs-icon-rewind20" viewBox="0 0 512 512">
<path d="M318 207.2q22.1 0 34.6 15.8 15 18.8 15 62.2 0 43.3-15 62.3Q340 363 317.8 363q-22.3 0-35.9-17-13.6-17.3-13.6-61.2 0-43.1 15-62.1 12.3-15.6 34.5-15.6zm0 24.2q-5.4 0-9.5 3.5-4.2 3.3-6.5 12-3 11.4-3 38.3t2.7 37q2.7 10 6.8 13.3 4.1 3.3 9.4 3.3t9.5-3.3q4.2-3.4 6.5-12.2 3-11.2 3-38.1t-2.7-36.9q-2.7-10-6.9-13.4-4-3.5-9.4-3.5zm-69.4 102v27.1H146q1.6-15.4 10-29.2 8.3-13.8 32.9-36.6 19.8-18.5 24.2-25 6-9 6-18 0-9.7-5.2-15-5.2-5.3-14.5-5.3-9.2 0-14.6 5.6t-6.2 18.3l-29.2-3q2.6-24 16.3-34.6t34.4-10.5q22.6 0 35.5 12.2t13 30.3q0 10.3-3.8 19.7-3.6 9.2-11.7 19.4-5.3 6.8-19.1 19.5t-17.6 16.9q-3.7 4.2-6 8.1zM247.9 17c-8.4.5-13.4 8.2-19.7 12.6-22.3 19-45.6 37-67.3 56.8-4.7 7.1-.9 17.4 6.4 21.2 25.2 20.6 49.6 42.1 75.3 62.1 9 4.6 21.2-4 19.7-14 .2-19.7-.3-39.8.2-59.2 48-.3 95.8 22.7 125.6 60.4 39 48 52.4 116.6 31 175a174.3 174.3 0 0 1-89.7 95.4 162.7 162.7 0 0 1-125.5 7.2 181.7 181.7 0 0 1-117.2-137c-5.5-31.5-.2-64.2 13.2-93.1 3-8.5 3.6-19.2-2.9-26.3-5-4.6-13.7-2.3-17 3.4-6.5 8.7-9 19.4-13 29.3a192 192 0 0 0 9.4 143.5A204.5 204.5 0 0 0 237.2 468c44.6 4.6 90.3-7.6 127.5-32.3 39.8-26 71-66 83.2-112.2 17.8-66-.5-140.5-47.4-190.3a190 190 0 0 0-109.7-58.5c-9.4-1.5-19-2.4-28.5-2.7-.3-15.3 1-30.7-.9-46-2-5.4-7.7-9.2-13.5-9z"></path>
</symbol>
<symbol id="vjs-icon-rewind30" viewBox="0 0 512 512">
<path d="M315 207.2q22.1 0 34.6 15.8 15 18.8 15 62.2 0 43.3-15 62.3Q337 363 314.8 363q-22.3 0-35.9-17-13.6-17.3-13.6-61.2 0-43.1 15-62.1 12.3-15.6 34.5-15.6zm0 24.2q-5.4 0-9.5 3.5-4.2 3.3-6.5 12-3 11.4-3 38.3t2.7 37q2.7 10 6.8 13.3 4.1 3.3 9.4 3.3t9.5-3.3q4.2-3.4 6.5-12.2 3-11.2 3-38.1t-2.7-36.9q-2.7-10-6.9-13.4-4-3.5-9.4-3.5zM145.6 320l28.3-3.5q1.4 10.9 7.3 16.6t14.4 5.7q9 0 15.2-6.8 6.2-7 6.2-18.6 0-11-6-17.5t-14.4-6.4q-5.6 0-13.4 2.1l3.2-23.8q11.9.3 18.1-5.1 6.3-5.5 6.3-14.6 0-7.7-4.6-12.3t-12.2-4.6q-7.5 0-12.8 5.2t-6.5 15.2l-27-4.5q2.9-13.9 8.5-22.1 5.7-8.4 15.8-13 10.2-4.8 22.8-4.8 21.6 0 34.6 13.7 10.7 11.3 10.7 25.4 0 20.1-22 32.1 13.2 2.8 21 12.6 8 9.8 8 23.7 0 20-14.8 34.2T196 363.1q-20.8 0-34.4-11.9-13.6-12-15.8-31.2zM247.9 17c-8.4.5-13.4 8.2-19.7 12.6-22.3 19-45.6 37-67.3 56.8-4.7 7.1-.9 17.4 6.4 21.2 25.2 20.6 49.6 42.1 75.3 62.1 9 4.6 21.2-4 19.7-14 .2-19.7-.3-39.8.2-59.2 48-.3 95.8 22.7 125.6 60.4 39 48 52.4 116.6 31 175a174.3 174.3 0 0 1-89.7 95.4 162.7 162.7 0 0 1-125.5 7.2 181.7 181.7 0 0 1-117.2-137c-5.5-31.5-.2-64.2 13.2-93.1 3-8.5 3.6-19.2-2.9-26.3-5-4.6-13.7-2.3-17 3.4-6.5 8.7-9 19.4-13 29.3a192 192 0 0 0 9.4 143.5A204.5 204.5 0 0 0 237.2 468c44.6 4.6 90.3-7.6 127.5-32.3 39.8-26 71-66 83.2-112.2 17.8-66-.5-140.5-47.4-190.3a190 190 0 0 0-109.7-58.5c-9.4-1.5-19-2.4-28.5-2.7-.3-15.3 1-30.7-.9-46-2-5.4-7.7-9.2-13.5-9z"></path>
</symbol>
<symbol id="vjs-icon-snapshot" viewBox="0 0 512 512">
<path d="M478.4 372.7V169a55.4 55.4 0 0 0-55.6-55.6h-64.2L327 65.9c-3.4-5-9-8.2-15.4-8.2H200.4c-6 0-11.9 2.9-15.4 8.2l-31.6 47.4H89.2a55.4 55.4 0 0 0-55.6 55.6v203.8a55.4 55.4 0 0 0 55.6 55.6h333.6a55.4 55.4 0 0 0 55.6-55.6zm-32.2 0c0 5.2-4.5 14.7-7.9 18s-10.4 5.5-15.5 5.5H89.2c-5.1 0-12.2-4.5-15.6-8s-7.8-10.3-7.8-15.5V169c0-5.1 2-12.2 5.4-15.6s12.9-7.9 18-7.9h74.1c6.4 0 12-3.2 15.4-8.2l26.7-47.4h101.2l26.6 47.4c3.6 5.3 9.4 8.2 15.5 8.2h74.1c5.1 0 12.2 4.5 15.5 8s8 10.4 8 15.5zm-97.5-111.2A92.5 92.5 0 0 0 190.5 196a92.4 92.4 0 0 0 0 131 92.4 92.4 0 0 0 131 0 92.4 92.4 0 0 0 27.2-65.5zm-32.2 0c0 15.4-6.2 29.3-16.3 39.3S271.4 322 256 322c-15.4 0-34.1-11-44.2-21.2s-16.3-23.9-16.3-39.3c0-15.3 5.7-29.2 15.8-39.3S240.6 201 256 201c15.4 0 29.2 6.2 39.3 16.3s21.2 28.9 21.2 44.2z"></path>
</symbol>
<symbol id="vjs-icon-center" viewBox="0 0 512 512">
<path d="M448.3 231.8h-38q-4-25-15.6-47-11-22-28.2-39.3t-39.3-28.3q-22-11.5-47-15.5v-38h-48.4v38q-25 4-47 15.5-22 11-39.3 28.3t-28.3 39.3q-11.5 22-15.5 47h-38v48.4h38q4 25 15.5 47 11 22 28.3 39.3t39.3 28.3q22 11.4 47 15.4v38h48.4v-38q25-4 47-15.4 22-11 39.3-28.3t28.3-39.3q11.4-22 15.4-47h38v-48.4zm-87 0h-37.6q-5-15-16.7-26.8t-26.8-16.8v-37.4q30 6.4 52.3 28.7t28.8 52.3zm-105 48.4q-10 0-17.3-7.2t-7.3-17.3q0-9.4 7.3-16.7t16.8-7.3q10 0 17.2 7.3t7.3 16.8q0 10-7.3 17.2t-16.8 7.3zm-24.6-129.4v37.4q-15 5-26.7 16.8t-16.8 26.8h-37.4q6.4-30 28.7-52.3t52.3-28.8zm-81 129.4h37.6q5 15 16.7 26.8t26.8 16.8v37.4q-30-6.4-52.3-28.7t-28.8-52.3zm129.6 81v-37.4q15-5 26.7-16.8t16.8-26.8h37.4q-6.4 30-28.7 52.3t-52.3 28.8z"></path>
</symbol>
<symbol id="vjs-icon-playlist" viewBox="0 0 512 512">
<path d="M44.6 178h338.3v29.8H44.6zm0-112.8h338.3V95H44.6zm0 225.5H270v29.9H44.6zm281.9-39v169.1l141-84.5z"></path>
</symbol>
<symbol id="vjs-icon-share" viewBox="0 0 512 512">
<path d="M428 349.8a78 78 0 0 0-56.2 24L161.2 268.3a78.7 78.7 0 0 0 0-24.8l210.6-105.3a78.2 78.2 0 1 0-21-42L140.2 201.7a78.2 78.2 0 1 0 0 108.7l210.6 105.3a78.2 78.2 0 1 0 77.2-65.8z"></path>
</symbol>
<symbol id="vjs-icon-big-replay" viewBox="0 0 512 512">
<path d="m467.5 210-4.9-4.9-38 38A190.5 190.5 0 0 0 234.6 65.8C129.8 65.7 44.5 151.1 44.5 256a190.5 190.5 0 0 0 334.4 124.2l-6.5-4.1c-33.9 39.3-87 64-138.8 64-98.1 0-182-86-182-184.1 0-98.2 85-183 183.1-183 93.5 0 173.1 68.5 182.5 172l-38-35.8-4.7 5.9 43.1 40.2 6.2-.1z"></path>
</symbol>
<symbol id="vjs-icon-related" viewBox="0 0 512 512">
<path d="M148 374v54c0 15-13 27-28 27H30c-15 0-27-12-27-27v-54c0-15 12-28 27-28h90c15 0 27 13 27 28zm0-145v54c0 15-13 27-28 27H30c-15 0-27-12-27-27v-54c0-15 12-27 27-27h90c15 0 27 12 27 27zm180 145v54c0 15-12 27-27 27h-90c-15 0-27-12-27-27v-54c0-15 12-28 27-28h90c15 0 27 13 27 28zM148 84v54c0 15-13 28-28 28H30c-15 0-27-13-27-28V84c0-15 12-27 27-27h90c15 0 27 12 27 27zm180 145v54c0 15-12 27-27 27h-90c-15 0-27-12-27-27v-54c0-15 12-27 27-27h90c15 0 27 12 27 27zm181 145v54c0 15-12 27-27 27h-90c-15 0-27-12-27-27v-54c0-15 12-28 27-28h90c15 0 27 13 27 28zM328 84v54c0 15-12 28-27 28h-90c-15 0-27-13-27-28V84c0-15 12-27 27-27h90c15 0 27 12 27 27zm181 145v54c0 15-12 27-27 27h-90c-15 0-27-12-27-27v-54c0-15 12-27 27-27h90c15 0 27 12 27 27zm0-145v54c0 15-12 28-27 28h-90c-15 0-27-13-27-28V84c0-15 12-27 27-27h90c15 0 27 12 27 27z"></path>
</symbol>
<symbol id="vjs-icon-check" viewBox="0 0 512 512">
<path d="M479.4 151.7a28 28 0 0 1-8 19.6L223.3 419a28 28 0 0 1-39.2 0L40.7 275.6a28 28 0 0 1 0-39.2l39.2-39.2a28 28 0 0 1 39.2 0l84.7 85L393 93a28 28 0 0 1 39.2 0l39.2 39.2a28 28 0 0 1 8 19.6z"></path>
</symbol>
<symbol id="vjs-icon-close" viewBox="0 0 409 512">
<path d="M376 360.6q0 11.6-8.1 19.7l-39.3 39.3q-8.1 8.1-19.7 8.1t-19.7-8l-85-85-85 85q-8 8-19.6 8t-19.7-8l-39.3-39.4q-8-8-8-19.7t8-19.6l85-85-85-85q-8-8-8-19.6t8-19.7L80 92.4q8.1-8.1 19.7-8.1t19.7 8l85 85 85-85q8-8 19.6-8t19.7 8l39.3 39.4q8 8 8 19.7t-8 19.6l-85 85 85 85q8 8 8 19.6z"></path>
</symbol>
<symbol id="vjs-icon-question" viewBox="0 0 444 512">
<path d="M259 394.5V339q0-4-2.7-6.6t-6.6-2.6h-55.4q-4 0-6.6 2.6T185 339v55.4q0 4 2.6 6.6t6.6 2.6h55.4q4 0 6.6-2.6t2.6-6.6zm73.8-193.9q0-25.4-16-47t-40-33.5-49-11.8q-70.1 0-107 61.4-4.4 7 2.2 12.2l38.1 28.8q2 1.7 5.5 1.7 4.6 0 7.2-3.4 15.3-19.6 24.8-26.6 9.8-6.9 24.8-6.9 13.9 0 24.7 7.5t10.8 17q0 11-5.7 17.6t-19.7 13q-18.1 8-33.3 25t-15.1 36.2v10.4q0 4 2.6 6.6t6.6 2.6h55.4q4 0 6.6-2.6t2.6-6.6q0-5.5 6.2-14.3t15.8-14.3q9.2-5.2 14-8.2t13.4-10.1 12.8-13.9 8-17.4 3.7-23.4zM443.6 256q0 60.3-29.7 111.2T333.2 448 222 477.6t-111.2-29.7T30 367.2.4 256t29.7-111.2T110.8 64 222 34.4t111.2 29.7 80.7 80.7T443.6 256z"></path>
</symbol>
<symbol id="vjs-icon-info" viewBox="0 0 444 512">
<path d="M295.9 394.5v-46.2q0-4-2.6-6.6t-6.7-2.6H259V191.4q0-4-2.6-6.7t-6.6-2.6h-92.3q-4 0-6.7 2.6t-2.6 6.7v46.1q0 4 2.6 6.7t6.7 2.6H185V339h-27.7q-4 0-6.7 2.6t-2.6 6.6v46.2q0 4 2.6 6.6t6.7 2.6h129.2q4 0 6.7-2.6t2.6-6.6zm-37-258.5V89.8q0-4-2.6-6.6t-6.6-2.6h-55.4q-4 0-6.6 2.6t-2.6 6.6V136q0 4 2.6 6.6t6.6 2.6h55.4q4 0 6.6-2.6t2.6-6.6zm184.7 120q0 60.3-29.7 111.2T333.2 448 222 477.6t-111.2-29.7T30 367.2.4 256t29.7-111.2T110.8 64 222 34.4t111.2 29.7 80.7 80.7T443.6 256z"></path>
</symbol>
<symbol id="vjs-icon-expand" viewBox="0 0 446 512">
<path d="M37.3 418.5H78v-351H37.3zm330.8-351v351h40.6v-351zm-78.5 199.8-43.7.9-.9-28.6 44.6-1.6v-60.7l79.5 76.4-79.5 76.5zm-133.3 2.5 43.7-2.5-.9-27.5-42.8.9.8-62-79.6 76 79.6 76z"></path>
</symbol>
<symbol id="vjs-icon-expand-back" viewBox="0 0 446 512">
<path d="M132.6 402.5h36.8v-319h-36.8zm144.2-319v319h36.9v-319zm108 171.7 44.2-.7V229l-44.3.7v-59.5l-72.3 72.5 72.3 72.5zm-323.5-1.5H17l.8-25.2 42.7-.7v-60.1l72.3 72.1L60.5 312z"></path>
</symbol>
<symbol id="vjs-icon-twitter" viewBox="0 0 445 512">
<path d="M370.5 173.3q-16.2 7.2-35 9.9 19.7-11.6 27-33.9-18.9 11-38.8 14.8Q306 145 279.5 145q-25.2 0-43 17.8t-17.8 42.9q0 8.4 1.5 13.9-37.3-2-70-18.8T94.7 156q-8.4 14.4-8.4 30.6 0 33 26.3 50.6-13.5-.3-28.9-7.5v.6q0 21.7 14.5 38.6t35.6 21q-8.4 2.2-14.8 2.2-3.7 0-11.3-1.1 6.1 18.2 21.6 30t35 12.2q-33.4 26-75.4 26-7.5 0-14.4-.9 42.8 27.2 93 27.2 32.5 0 60.8-10.3t48.5-27.4 34.9-39.6 21.7-46.8 7-48.8q0-5.2-.2-7.8 18.2-13 30.3-31.5zm74-56v277.5q0 34.4-24.4 58.8T361.3 478H83.7q-34.4 0-58.8-24.4T.5 394.8V117.2q0-34.4 24.4-58.8T83.7 34h277.6q34.4 0 58.8 24.4t24.4 58.8z"></path>
</symbol>
<symbol id="vjs-icon-facebook" viewBox="0 0 445 512">
<path d="M361.3 34q34.4 0 58.8 24.4t24.4 58.8v277.6q0 34.4-24.4 58.8T361.3 478h-54.4V306h57.5l8.7-67H307v-42.8q0-16.2 6.8-24.3t26.5-8.1l35.2-.3v-59.8Q357.2 101 324 101q-39.3 0-63 23.2t-23.5 65.3V239h-57.8V306h57.8v172H83.7q-34.4 0-58.8-24.4T.5 394.8V117.2q0-34.4 24.4-58.8T83.7 34h277.6z"></path>
</symbol>
<symbol id="vjs-icon-linkedin" viewBox="0 0 524 512">
<path d="M107.7 406.5H175V204.9h-67.2v201.6zm71.5-263.8q-.3-15.1-10.4-25t-27-9.9-27.5 10-10.6 25q0 14.7 10.3 24.7t26.9 10h.3q17 0 27.6-10t10.4-24.8zm170 263.8h67V290.9q0-44.8-21.2-67.7t-56-23q-39.5 0-60.7 34h.5V205h-67q.8 19.1 0 201.6h67V293.8q0-11 2-16.3 4.4-10.2 13.2-17.3t21.5-7.1q33.6 0 33.6 45.6v107.8zm135.9-290v279q0 34.5-24.5 59t-59.2 24.6H122.6q-34.6 0-59.2-24.5T39 395.4V116.6q0-34.6 24.5-59.2T122.6 33h278.8q34.6 0 59.2 24.5t24.5 59.2z"></path>
</symbol>
<symbol id="vjs-icon-pinterest" viewBox="0 0 445 512">
<path d="M361.3 34q34.4 0 58.8 24.4t24.4 58.8v277.6q0 34.4-24.4 58.8T361.3 478H151.7q24.5-35.3 31.2-60.7 2.6-9.8 15.3-60.4 6 11.3 21.3 19.4t32.5 8q52.3 0 85.4-42.6t33.1-108q0-24.2-10.1-47t-27.9-40.1-44-28-57-10.6q-30.1 0-56.3 8.2T131 138.3 100 170t-19.3 37-6.2 38.3q0 29.5 11.4 52t33.7 31.8q3.7 1.5 6.8 0t4.2-5.5q2.9-12.7 4.3-17.6 1.7-6.6-3.2-12.1-14.4-18-14.4-43.4 0-43.4 29.9-74.1t78.2-30.8q43 0 67.2 23.4t24.1 60.7q0 48.6-19.5 82.7t-50.1 34q-17.4 0-28-12.5t-6.7-30q2.3-9.7 7.6-26.7t8.6-29.4 3.2-21.6q0-14.1-7.7-23.5t-21.8-9.4q-17.7 0-30 16.3t-12.2 40.3q0 20.8 6.9 35l-28.3 119.7q-7 28.9-2 73.4h-53q-34.4 0-58.8-24.4T.5 394.8V117.2q0-34.4 24.4-58.8T83.7 34h277.6z"></path>
</symbol>
<symbol id="vjs-icon-descriptions" viewBox="0 0 512 512">
<path d="M428.7 70.3H83.3a43.2 43.2 0 0 0-43.1 43.2v259a43.2 43.2 0 0 0 43.1 43.2h345.4a43.2 43.2 0 0 0 43.2-43.2v-259a43.2 43.2 0 0 0-43.2-43.2zM83.3 243h86.4v43.2H83.3V243zm215.9 129.5H83.3v-43.2h215.9v43.2zm129.5 0h-86.4v-43.2h86.4v43.2zm0-86.3H212.8V243h215.9v43.2z"></path>
</symbol>
<symbol id="vjs-icon-cancel" viewBox="0 0 512 512">
<path d="M256 40.2a215.8 215.8 0 1 0-.1 431.5 215.8 215.8 0 0 0 .1-431.5zm108 293.2-30.6 30.5-77.4-77.4-77.4 77.4-30.5-30.5 77.4-77.4-77.4-77.4 30.5-30.5 77.4 77.4 77.4-77.4 30.5 30.5-77.4 77.4 77.4 77.4z"></path>
</symbol>
<symbol id="vjs-icon-help" viewBox="0 0 318 512">
<path d="M200.7 359v68.5q0 4.5-3.2 8t-8.3 3.5h-68.5q-4.5 0-8-3.5t-3.5-8V359q0-5 3.5-8.3t8-3.2h68.5q5 0 8.3 3.3t3.2 8.2zm90.5-171.5q0 40.5-21.7 59.8t-42.3 30.2q-12.5 7.5-20 19.5t-7.5 18.5q0 4.5-3.2 9t-8.3 4.5h-68.5q-5 0-7.7-5.5t-2.8-10.5v-13q0-25.5 20.3-46.3t39.2-29.2q16.5-7.5 24-15.8t7.5-22.2q0-12-13.5-21t-30.5-9q-10 0-18.2 2.5t-12.8 5.5q-5.5 4-11.7 10.5t-18.8 22.5q-2 2-4.2 3.3t-4.8 1.2q-2 0-3.7-.5t-3.8-1.5l-46.5-36q-4-2.5-4.7-6.8t1.7-8.2q23-38.5 56-57.3T161.2 73q23 0 46.5 8.5 23 8.5 41.5 24t30.5 36.5q11.5 20.5 11.5 45.5z"></path>
</symbol>
</defs>
</svg>
