<svg xmlns="http://www.w3.org/2000/svg">
<defs>
<symbol id="vjs-icon-pip-full" viewBox="0 0 512 512">
<path d="M407 83H108q-21 0-35.8 12.5T57.5 126v259.5q0 18 14.8 30.8T108 429h299q20.5 0 34-12.8t13.5-30.7V126q0-18-13.5-30.5T407 83zm14.5 308h-325l-1-270h326v270zM117 140h279v230H117V140z"></path>
</symbol>
<symbol id="vjs-icon-expand" viewBox="0 0 446 512">
<path d="M138.3 423.5h47.3v-335h-47.3zm123.1-335v335h47.3v-335zm133.8 171.7 53.8-1V229l-53.8.9v-71.2l-88 86.6 88 86.7zm-344-1.8H-3l1-30.2 52.3-1v-72l88.5 86.5-88.5 86.7z"></path>
</symbol>
<symbol id="vjs-icon-expand-back" viewBox="0 0 446 512">
<path d="M24 439.5h47v-367H24zm351-367v367h47v-367zm-92.8 210.1-48.4 1-1.6-33 50-1.2v-68.6l94 86.4-94 86.4zm-115 2.5 50.2-.9-.4-32.5-49.7.9 1-69.1L70 268.2l98.3 84.6z"></path>
</symbol>
<symbol id="vjs-icon-download" viewBox="0 0 512 512">
<path d="M396.2 284.3V376H115.8v-91.7H62V403a27 27 0 0 0 27 27h334.2c14.9 0 27-12.1 27-27V284.3zM251 328.8l-77.2-93.3s-9.8-4.4 1-11h43.5V88.8s-1.7-6.6 8.2-6.6h61.2c7.2 0 7 5.5 7 5.5v134H335c15.5 0 3.9 11.6 3.9 11.6S273 320.4 264 329.5c-6.6 6.7-13-.7-13-.7z"></path>
</symbol>
<symbol id="vjs-icon-volume2" viewBox="0 0 512 512">
<path d="M69.7 209.7v124.6h82.9L256 437.7V106.3L152.6 209.7H69.7zM349.4 272a93.5 93.5 0 0 0-51.7-83.3v166.6a93.7 93.7 0 0 0 51.7-83.3z"></path>
</symbol>
<symbol id="vjs-icon-volume1" viewBox="0 0 512 512">
<path d="M69.7 209.7v124.6h82.9L256 437.7V106.3L152.6 209.7H69.7z"></path>
</symbol>
<symbol id="vjs-icon-share" viewBox="0 0 512 512">
<path d="M386 313q-12.5 0-23.5 4.5t-19 12l-154.5-90q1-3.5 1.5-7.3t.5-7.7-.5-7.8-1.5-7.2l152.5-89q9 8 20.3 12.8T386 138q26.5 0 45.5-19t19-46-19-46T386 8q-27 0-46 19t-19 46q0 4 .5 7.8T323 88l-152.5 89q-9-8-20.3-12.8t-24.2-4.7q-26.5 0-45.5 19t-19 46 19 46 45.5 19q13 0 24.3-4.8t20.2-12.7l154 89.5q-1 3.5-1.5 7t-.5 7.5q0 26 18.5 44.5t45 18.5q26 0 44.5-18.5T449 376q0-26.5-18.5-44.8T386 313z"></path>
</symbol>
<symbol id="vjs-icon-snapshot" viewBox="0 0 512 512">
<path d="M264.9 202.7a80 80 0 1 0 0 160 80 80 0 0 0 0-160zm-31 26.3a61.4 61.4 0 0 1 92.5 46.5 312.2 312.2 0 0 0-92.5-46.5zm208.8-97.4h-86L345 96H167l-11.8 35.6H87c-19.6 0-44.4 15.9-44.4 35.5v213.3c0 19.7 24.8 35.6 44.4 35.6h355.6c19.6 0 26.6-16 26.6-35.6V167.1c0-19.6-7-35.5-26.6-35.5zM264.9 398.2a115.6 115.6 0 1 1 0-231 115.6 115.6 0 0 1 0 231zm168.9-195.5h-35.6V167h35.6v35.6z"></path>
</symbol>
<symbol id="vjs-icon-center" viewBox="0 0 512 512">
<path d="M448 232h-38q-4-25-15-47t-28-39-40-29q-22-11-47-15V64h-48v38q-25 4-47 15t-39 29-29 39q-11 22-15 47H64v48h38q4 25 15 47t29 40 39 28q22 11 47 15v38h48v-38q25-4 47-15t40-28 28-40q11-22 15-47h38v-48zm-87 0h-37q-5-15-17-27t-27-17v-37q30 6 53 29t28 52zm-105 48q-10 0-17-7t-7-17q0-10 7-17t17-7q10 0 17 7t7 17q0 10-7 17t-17 7zm-24-129v37q-15 5-27 17t-17 27h-37q6-30 29-52t52-29zm-81 129h37q5 15 17 27t27 17v37q-30-6-52-28t-29-53zm129 81v-37q15-5 27-17t17-27h37q-6 30-28 53t-53 28z"></path>
</symbol>
<symbol id="vjs-icon-mirror1" viewBox="0 0 512 512">
<path d="M426.5 61H451v195h-24.5V61zM61 256h24.5v195H61V256zm122 73h268v48.6H183v61l-85-85.1 85-85.5v61zm146-146H61v-48.6h268v-61l85 85.1-85 85.5v-61z"></path>
</symbol>
<symbol id="vjs-icon-mirror2" viewBox="0 0 512 512">
<path d="M85.5 61H61v195h24.5V61zM451 256h-24.5v195H451V256zm-122 73H61v48.6h268v61l85-85.1-85-85.5v61zM183 183h268v-48.6H183v-61l-85 85.1 85 85.5v-61z"></path>
</symbol>
<symbol id="vjs-icon-big-replay" viewBox="0 0 512 512">
<path d="m305 142 33-71 48 130-119 22 29-64c-15-7-32-11-47-11-16 0-40 2-54 8s-39 21-50 31c-12 11-24 29-31 44-6 15-11 37-11 53-1 15 2 29 8 43s16 36 26 48c11 11 28 27 43 34s43 12 58 12c16 0 41-6 55-11a134 134 0 0 0 71-68l18 9a153 153 0 0 1-87 81A158 158 0 0 1 83 281a154 154 0 0 1 102-142 158 158 0 0 1 120 3z"></path>
</symbol>
<symbol id="vjs-icon-brightness" viewBox="0 0 512 512">
<path d="M250-13c-4 2-8 7-9 10a667 667 0 0 0 2 75c4 6 7 7 13 7s10-1 13-7c2-2 2-3 2-39s0-38-2-40l-4-5c-3-2-11-3-15-1zM85 55c-5 1-9 6-10 11-3 8-2 10 26 37 21 21 26 26 29 27 11 3 22-8 19-19-1-4-5-9-25-29-28-28-30-29-39-27zm332 1c-3 1-13 11-29 26-20 21-24 25-25 29-3 11 8 22 19 19 4-1 9-6 29-26 26-26 28-29 27-36-2-10-12-16-21-12zm-175 56c-20 2-39 9-56 21-10 6-27 24-34 33-9 14-16 30-19 46a123 123 0 0 0 35 113 123 123 0 0 0 177 0 123 123 0 0 0 0-177c-19-18-38-29-62-34-8-2-33-3-41-2zm37 33c18 5 31 13 44 26a92 92 0 0 1 0 132c-10 9-14 12-25 18-15 7-30 10-47 9-24-1-43-10-61-27a92 92 0 0 1-26-45c-2-10-2-33 0-42 5-18 13-32 25-45a91 91 0 0 1 90-26zM14 222c-6 3-10 11-9 18 1 5 6 10 11 11l38 1c34 0 35 0 38-2 5-4 7-7 7-13s-2-10-7-14c-3-2-4-2-39-2l-39 1zm408 0c-6 3-10 11-8 18 0 5 5 10 10 11l38 1c34 0 36 0 38-2 5-4 7-7 7-13s-2-10-7-14c-2-2-4-2-39-2l-39 1zM129 344c-3 1-10 7-28 26-21 21-25 26-26 29-4 11 7 22 19 19 3-1 8-6 29-26 21-21 25-26 26-29 3-12-8-23-20-19zm244 0c-7 3-12 11-10 19 1 3 6 8 25 28 27 26 30 29 37 28 5-1 11-7 13-12 2-8 1-10-26-36l-26-26c-4-2-8-2-13-1zm-123 51c-4 2-8 7-9 11v37c0 33 0 35 2 38 4 5 7 6 13 6s10-1 13-6c2-3 2-4 2-40s0-38-2-40l-4-5c-3-2-11-3-15-1z"></path>
</symbol>
<symbol id="vjs-icon-saturation" viewBox="0 0 512 512">
<path d="M256-14.4a250.9 250.9 0 1 0 0 501.8 250.9 250.9 0 0 0 0-501.8zm0 27.5c115.5 0 221.3 107 221.3 222.4 0 0-43-19.9-116.8-19.9-62.3 0-104.5 20.9-104.5 20.9s-63.1 20.9-104.6 20.9c-73.1 0-116.7-25-116.7-25C34.7 116.9 140.5 13.1 256 13.1z"></path>
</symbol>
<symbol id="vjs-icon-contrast" viewBox="0 0 512 512">
<path d="M256 487.4a250.9 250.9 0 1 1 0-501.8 250.9 250.9 0 0 1 0 501.8zm7.2-466.7c-107.8.5-224 91.4-224 214.8 0 104 114 216.8 217.8 217.8 107 1 220.8-111 218.9-215.8-1.9-103-103.5-217.3-212.7-216.8zM256 393.3V79.7a156.8 156.8 0 1 1 0 313.6z"></path>
</symbol>
<symbol id="vjs-icon-filters" viewBox="0 0 512 512">
<path d="M341.3 391.7H512v28.5H341.3zm-113.7 0H0v28.5h227.6v85.3H256V334.8h-28.4zm85.3-227.5h28.4V-6.5H313v56.9H0v28.4h312.9zM426.7 50.4v28.4H512V50.4zM85.3 334.8h28.5V164.2H85.3V221H0v28.4h85.3zm113.8-85.3H512v-28.4H199.1zM341.3 420H512v28.4H341.3zm-85.7 0H0v28.4h255.6v57.1H284V334.8h-28.4zm85.3-255.8h28.5V-6.5h-28.5v85.1H0v28.5h341zm85.8-85.6v28.5H512V78.6zm-313.3 256h28.4V164.2h-28.4v85H0v28.5h113.4zm85.7-56.9H512v-28.4H199.1z"></path>
</symbol>
<symbol id="vjs-icon-related" viewBox="0 0 512 512">
<path d="M145.5 376v55q0 11.5-8.3 19.5t-19.2 8H25.5q-11.5 0-19.5-8T-2 431v-55q0-11.5 8-19.8t19.5-8.2H118q11 0 19.3 8.3t8.2 19.7zm0-147.5v55q0 11.5-8.3 19.8t-19.2 8.2H25.5q-11.5 0-19.5-8.3t-8-19.7v-55q0-11.5 8-19.8t19.5-8.2H118q11 0 19.3 8.3t8.2 19.7zm184 147.5v55q0 11.5-8 19.5t-19.5 8h-92q-11.5 0-19.5-8t-8-19.5v-55q0-11.5 8-19.8T210 348h92q11.5 0 19.5 8.3t8 19.7zm-184-295v55q0 11.5-8.3 19.8T118 164H25.5Q14 164 6 155.7T-2 136V81q0-11.5 8-19.5t19.5-8H118q11 0 19.3 8t8.2 19.5zm184 147.5v55q0 11.5-8 19.8t-19.5 8.2h-92q-11.5 0-19.5-8.3t-8-19.7v-55q0-11.5 8-19.8t19.5-8.2h92q11.5 0 19.5 8.3t8 19.7zM514 376v55q0 11.5-8 19.5t-19.5 8H394q-11 0-19.3-8t-8.2-19.5v-55q0-11.5 8.3-19.8T394 348h92.5q11.5 0 19.5 8.3t8 19.7zM329.5 81v55q0 11.5-8 19.8T302 164h-92q-11.5 0-19.5-8.3t-8-19.7V81q0-11.5 8-19.5t19.5-8h92q11.5 0 19.5 8t8 19.5zM514 228.5v55q0 11.5-8 19.8t-19.5 8.2H394q-11 0-19.3-8.3t-8.2-19.7v-55q0-11.5 8.3-19.8t19.2-8.2h92.5q11.5 0 19.5 8.3t8 19.7zM514 81v55q0 11.5-8 19.8t-19.5 8.2H394q-11 0-19.3-8.3t-8.2-19.7V81q0-11.5 8.3-19.5t19.2-8h92.5q11.5 0 19.5 8t8 19.5z"></path>
</symbol>
<symbol id="vjs-icon-cancel" viewBox="0 0 410 512">
<path d="M377 361q0 12-8 20l-39 39q-9 8-20 8t-20-8l-85-85-85 85q-8 8-20 8t-20-8l-39-39q-8-8-8-20t8-20l85-85-85-85q-8-8-8-20t8-19l39-40q9-8 20-8t20 8l85 85 85-85q8-8 20-8t20 8l39 40q8 8 8 19t-8 20l-85 85 85 85q8 9 8 20z"></path>
</symbol>
<symbol id="vjs-icon-help" viewBox="0 0 445 512">
<path d="M259.5 395v-55.5q0-4.5-2.5-7t-6.5-2.5h-56q-4 0-6.5 2.5t-2.5 7V395q0 4 2.5 6.5t6.5 2.5h56q4 0 6.5-2.5t2.5-6.5zm74-194.5q0-25.5-16-47-16-22-40-33.5-24-12-49-12-70.5 0-107.5 61.5-4.5 7 2.5 12l38 29q2 2 5.5 2 4.5 0 7-3.5 15.5-20 25-26.5 10-7 25-7 14 0 24.5 7.5 11 7.5 11 17 0 11-6 17.5-5.5 6.5-19.5 13-18 8-33.5 25-15 17-15 36.5v10q0 4.5 2.5 7t7 2.5h55.5q4 0 6.5-2.5t2.5-7q0-5 6-14 6.5-9 16-14.5 9-5 14-8t13.5-10q8.5-7.5 13-14 4.5-7 8-17.5 3.5-11 3.5-23.5zm111 55.5q0 60.5-30 111.5-29.5 51-80.5 80.5-51 30-111.5 30T111 448q-51-29.5-80.5-80.5-30-51-30-111.5t30-111.5Q60 93.5 111 64q51-30 111.5-30T334 64q51 29.5 80.5 80.5 30 51 30 111.5z"></path>
</symbol>
<symbol id="vjs-icon-info" viewBox="0 0 445 512">
<path d="M296.5 395v-46.5q0-4-2.5-6.5t-6.5-2.5h-28V191q0-4-2.5-6.5t-6.5-2.5h-93q-4 0-6.5 2.5t-2.5 6.5v46.5q0 4 2.5 6.5t6.5 2.5h28v93h-28q-4 0-6.5 2.5t-2.5 6.5V395q0 4 2.5 6.5t6.5 2.5h130q4 0 6.5-2.5t2.5-6.5zm-37-259.5v-46q0-4-2.5-6.5-2.5-3-6.5-3h-56q-4 0-6.5 3-2.5 2.5-2.5 6.5v46q0 4.5 2.5 7t6.5 2.5h56q4 0 6.5-2.5t2.5-7zm185 120.5q0 60.5-30 111.5-29.5 51-80.5 80.5-51 30-111.5 30T111 448q-51-29.5-80.5-80.5-30-51-30-111.5t30-111.5Q60 93.5 111 64q51-30 111.5-30T334 64q51 29.5 80.5 80.5 30 51 30 111.5z"></path>
</symbol>
<symbol id="vjs-icon-twitter" viewBox="0 0 446 512">
<path d="M371.5 173q-16.5 7.5-35 10 19.5-11.5 26.5-34-18.5 11-38.5 15-18-19-44.5-19-25 0-43 17.5-18 18-18 43 0 8.5 1.5 14-37-2-70-19Q118 184 95 156q-8.5 14.5-8.5 30.5 0 33 26.5 50.5-13.5 0-29-7.5v.5q0 22 14.5 39t35.5 21q-8.5 2-14.5 2-4 0-11.5-1 6 18.5 21.5 30 15.5 12 35.5 12.5-34 26-76 26-7.5 0-14.5-1 43 27.5 93.5 27.5 32.5 0 61-10.5 28-10.5 48.5-27.5 20-17.5 35-39.5 14.5-22.5 21.5-47t7-49v-8q18-13 30.5-31.5zm74-56v278q0 34.5-24.5 59t-59 24.5H84q-34.5 0-59-24.5T.5 395V117Q.5 82.5 25 58t59-24.5h278q34.5 0 59 24.5t24.5 59z"></path>
</symbol>
<symbol id="vjs-icon-facebook" viewBox="0 0 446 512">
<path d=""M362 33.5q34.5 0 59 24.5t24.5 59v278q0 34.5-24.5 59t-59 24.5h-54.5V306H365l9-67h-66.5v-43q0-16 7-24.5 6.5-8 26.5-8h35v-60q-18-3-51.5-3-39 0-63 23.5-23.5 23-23.5 65.5V239h-58v67h58v172.5H84q-34.5 0-59-24.5T.5 395V117Q.5 82.5 25 58t59-24.5h278z"></path>
</symbol>
<symbol id="vjs-icon-linkedin" viewBox="0 0 446 512">
<path d="M69 406h67V205H69v201zm71.5-263q-.5-15-10.5-25-10-9.5-27-9.5-16.5 0-27.5 9.5Q65 128 65 143t10.5 25q10 10 26.5 10h.5q17 0 27.5-10t10.5-25zM310 406h67V291q0-45-21.5-67.5-21-23-55.5-23-39.5 0-61 34h1V205h-67q1 19 0 201h67V293.5q0-11 2-16 4-10 13-17.5 8.5-7 21.5-7 33.5 0 33.5 45.5V406zm135.5-289v278q0 34.5-24.5 59t-59 24.5H84q-34.5 0-59-24.5T.5 395V117Q.5 82.5 25 58t59-24.5h278q34.5 0 59 24.5t24.5 59z"></path>
</symbol>
<symbol id="vjs-icon-pinterest" viewBox="0 0 446 512">
<path d="M362 33.5q34.5 0 59 24.5t24.5 59v278q0 34.5-24.5 59t-59 24.5H152q24.5-35.5 31.5-61 2.5-9.5 15-60.5 6.5 11.5 21.5 19.5t32.5 8q52.5 0 85.5-42.5 33.5-43 33.5-108.5 0-24-10.5-47-10-22.5-28-40-17.5-17.5-44-28-26.5-11-57-11-30 0-56.5 8.5-26 8-44 22-18.5 14-31.5 32-13 17.5-19 37-6.5 19-6.5 38.5 0 29.5 11.5 52t34 32q3.5 1 6.5 0 3-1.5 4.5-5.5 3-13 4-18 2-6.5-3-12-14.5-18-14.5-43.5 0-43.5 30-74.5 30-30.5 78.5-30.5 43 0 67 23.5 24.5 23.5 24.5 60.5 0 49-19.5 83t-50.5 34q-17.5 0-28-12.5t-6.5-30q2-10 7.5-26.5 5.5-17 8.5-30 3.5-12.5 3.5-21.5 0-14-8-23.5-7.5-9.5-22-9.5-17.5 0-30 16.5-12 16.5-12 40.5 0 21 7 35L139 405q-7 29-2 73.5H84q-34.5 0-59-24.5T.5 395V117Q.5 82.5 25 58t59-24.5h278z"></path>
</symbol>
<symbol id="vjs-icon-play" viewBox="0 0 512 512">
<path d="M137 104.5v303L375 256z"></path>
</symbol>
<symbol id="vjs-icon-pause" viewBox="0 0 512 512">
<path d="M126 407.5h86.5v-303H126v303zm173.5-303v303H386v-303h-86.5z"></path>
</symbol>
<symbol id="vjs-icon-mute" viewBox="0 0 512 512">
<path d="M349.5 272q0-27.3-14.4-49.6t-37.4-33.8V234l50.8 51.3q.5-3.3.8-6.7t.2-6.7zm51.8 0q0 14.4-3.1 28.3t-8.4 26.4l31.6 31.6q10-19.7 15.6-41.2t5.5-45.1q0-33-11-63.3-11-29.7-30.5-53.7t-45.8-40.7q-26.8-17.3-57.5-24V133q22 6.7 41.2 20.1 19.2 13 32.9 31.4t21.8 40.5q7.7 22.5 7.7 47zM95.9 85.5l-26.4 26.4 97.8 97.8H69.5v124.6h83L256 438V298.4l88.2 88.2q-10.5 8.1-22.3 14.4t-24.2 10v43.2q21.1-5.3 40.5-14.9t35.7-23l42.2 42.2 26.4-26.4L95.9 85.5zM256 106.1l-43.1 43.2 43.1 43.6V106z"></path>
</symbol>
<symbol id="vjs-icon-volume3" viewBox="0 0 512 512">
<path d="M69.7 209.7v124.6h82.9L256 437.7V106.3L152.6 209.7H69.7zM349.4 272q0-27.3-14.4-49.6t-37.3-33.7v166.6q23-11.5 37.3-33.7t14.4-49.6zM297.7 90.5v42.6q22 6.7 41.1 20.1 19.2 13 32.9 31.4t21.7 40.5q7.7 22.5 7.7 46.9t-7.7 47q-8.1 22-21.7 40.4t-32.9 31.4q-19.1 13.4-41.1 20v42.7q30.6-6.7 57.4-23.5 26.4-17.2 45.8-41.2t30.4-53.6 11-63.2-11-63.2-30.4-53.7T355 114q-26.8-16.8-57.4-23.5z"></path>
</symbol>
<symbol id="vjs-icon-fullscreen" viewBox="0 0 512 512">
<path d="M133.7 314.3H84.5v122.3h122.3v-49.3h-73v-73zm-49.2-98.5h49.2v-73h73V93.6H84.6v122.2zm293.8 171.5h-73v49.3h122.2V314.3h-49.2v73zm-73-293.7v49.2h73v73h49.2V93.6H305.2z"></path>
</symbol>
<symbol id="vjs-icon-fullscreen-back" viewBox="0 0 512 512">
<path d="M84.5 362.7h73.6v73.6h48.7V314.1H84.5v48.6zM158.1 167H84.5v48.7h122.3V93.3H158V167zm147.1 269.4H354v-73.6h73.6v-48.6H305.2v122.2zM354 167V93.3h-48.7v122.3h122.3v-48.7h-73.6z"></path>
</symbol>
<symbol id="vjs-icon-pip" viewBox="0 0 512 512">
<path d="M407 83H108q-21 0-35.8 12.5T57.5 126v259.5q0 18 14.8 30.8T108 429h299q20.5 0 34-12.8t13.5-30.7V126q0-18-13.5-30.5T407 83zm14.5 308h-325l-1-270h326v270zM264 260.5h133V370H264V260.5z"></path>
</symbol>
<symbol id="vjs-icon-descriptions" viewBox="0 0 512 512">
<path d="M417 95H95q-16.8 0-28.6 11.9T54.5 135v242q0 16.3 11.9 28.1T95 417h322q16.8 0 28.6-11.9t11.9-28.1V135q0-16.3-11.9-28.1T417 95zM95 256h80.5v40.5H95V256zm201.5 121H95v-40.5h201.5V377zm120.5 0h-80.5v-40.5H417V377zm0-80.5H215.5V256H417v40.5z"></path>
</symbol>
<symbol id="vjs-icon-captions" viewBox="0 0 512 512">
<path d="M415 75H97q-18 0-31 13t-13 32v272q0 18 13 32t31 13h318q18 0 31-13t13-32V120q0-18-13-32t-31-13zM234 234h-34v-12h-46v68h46v-12h34v24q0 8-7 15t-17 7h-67q-9 0-16-7t-7-15v-92q0-8 7-15t16-7h67q10 0 17 7t7 15v24zm158 0h-34v-12h-46v68h46v-12h34v24q0 8-7 15t-16 7h-67q-10 0-17-7t-7-15v-92q0-8 7-15t17-7h67q9 0 16 7t7 15v24z"></path>
</symbol>
<symbol id="vjs-icon-chapters" viewBox="0 0 512 512">
<path d="M54 278h45v-44H54v44zm0 90h45v-45H54v45zm0-179h45v-45H54v45zm90 89h314v-44H144v44zm0 90h314v-45H144v45zm0-224v45h314v-45H144z"></path>
</symbol>
<symbol id="vjs-icon-settings" viewBox="0 0 512 512">
<path d="M398 267a150 150 0 0 0 0-38l40-31c4-3 5-8 3-12l-39-67c-2-4-7-5-11-4l-48 19c-10-7-20-13-32-18l-7-51c-1-4-5-8-10-8h-76c-5 0-9 4-10 8l-7 51c-12 5-22 11-32 18l-48-19c-4-1-9 0-11 4l-39 67c-2 4-1 9 3 12l40 31a149 149 0 0 0 0 38l-40 31c-4 3-5 8-3 12l39 67c2 4 7 5 11 4l48-19c10 7 20 13 32 18l7 51c1 4 5 8 10 8h76c5 0 9-4 10-8l7-51c11-5 22-11 32-18l48 19c4 1 9 0 11-4l38-67c3-4 2-9-2-12l-40-31zm-142 48a67 67 0 1 1 0-134 67 67 0 0 1 0 134z"></path>
</symbol>
<symbol id="vjs-icon-close" viewBox="0 0 512 512">
<path d="M256 40q-45 0-84 17t-69 46-46 69q-17 39-17 84t17 84q17 40 46 69t69 47q39 17 84 17t84-17q40-17 69-47t47-69q17-39 17-84t-17-84q-17-39-47-69t-69-46q-39-17-84-17zm108 294-30 30-78-77-77 77-31-30 78-78-78-77 31-31 77 78 78-78 30 31-77 77z"></path>
</symbol>
<symbol id="vjs-icon-replay" viewBox="0 0 512 512">
<path d="M256 126V39.5L148 148l108 108v-86.5q27 0 50.5 10 23.5 10.5 41.3 28t27.7 41q10.5 24 10.5 51 0 26.5-10.5 50.5-10 23.5-27.8 41t-41.2 28Q283 429 256 429t-50.5-10q-23.5-10.5-41.3-28t-27.7-41Q126 326 126 299.5H83q0 35.5 13.5 67t37 55 55 37q31.5 14 67.5 14t67.5-14q31.5-13.5 55-37t37-55 13.5-67q0-36-13.5-67.5t-37-55-55-37Q292 126 256 126z"></path>
</symbol>
<symbol id="vjs-icon-audio" viewBox="0 0 512 512">
<path d="M256 75q-35 0-67 13-31 14-55 37t-37 55q-13 31-13 66v134q0 24 17 41t41 17h57V284h-77v-38q0-27 11-52t29-42 42-29 52-10 52 10 42 29 29 42 11 52v38h-77v154h57q24 0 41-17t17-41V246q0-35-13-66-14-32-37-55t-55-37q-32-13-67-13z"></path>
</symbol>
<symbol id="vjs-icon-forward5" viewBox="0 0 512 512">
<path d="m284.6 376 28-2.8q1.2 9.1 7.1 14.5 6 5.2 13.6 5.2 8.9 0 15-6.8 6-6.9 6-20.7 0-13-6-19.3-6-6.6-15.8-6.6-12 0-21.7 10.3l-22.8-3.2 14.4-73.1h74.4v25.2h-53l-4.5 23.9q9.4-4.5 19.3-4.5 18.7 0 31.7 13t13 33.8q0 17.4-10.5 31-14.3 18.6-39.8 18.6-20.3 0-33.1-10.4T284.5 376zM63.9 148.3v256c0 2.5 1 4.8 2.9 6.7s4.3 2.8 7.1 2.8h127.8v-39h-98.2v-197h236v39.6c0 5.4 1.6 9 5 10.5s7.2 1 11.6-1.9l85.3-57.2c2.9-1.3 4.9-3.5 6-6.7s.9-6.3-.7-9.5c-.6-1.3-1.4-2.4-2.4-3.3s-1.9-1.6-2.9-2l-85.3-57.1c-4.4-2.9-8.3-3.5-11.7-1.7s-5 5.3-5 10.7v39.1H74c-2.8 0-5.2 1-7.1 3.1s-2.9 4.4-2.9 7z"></path>
</symbol>
<symbol id="vjs-icon-forward10" viewBox="0 0 512 512">
<path d="M64 148.4v256q0 3.8 2.8 6.7t7.1 2.8h127.8v-39h-98.2v-197h236v39.6q0 8.1 5 10.5t11.6-1.9l85.3-57.2q4.3-1.9 6-6.7t-.7-9.5q-1-1.9-2.4-3.3t-2.9-2l-85.3-57.1q-6.7-4.3-11.7-1.7t-5 10.7v39.1H74q-4.3 0-7.1 3.1t-2.9 7zm329.8 149.2q-5.7-9.5-15.3-15.2t-20.5-6.2q-11.4.4-21 6.2t-15.2 15.2q-13.4 22-13.4 47.4t13.4 47.5q5.7 9.5 15.2 15.2t21 6.2q11-.5 20.5-6.2t15.3-15.2q13.3-22 13.3-47.5t-13.3-47.4zM358 394.4q-12.4 0-21-14.6t-8.5-35q0-20 8.5-34.6t21-14.5q11.5 0 20.3 14.5t8.8 34.6q0 20.5-8.6 35T358 394.4zM269 413.9V310l-9.5 9.5-13.9-13.8 26.7-26.2q4.3-4.8 10.5-2.4t6.2 9v128.3z"></path>
</symbol>
<symbol id="vjs-icon-forward20" viewBox="0 0 512 512">
<path d="M63.9 148.6v256c0 2.5 1 4.7 2.8 6.6s4.3 2.9 7.2 2.9h127.8v-39.6h-98.2V178.1h236v39.1c0 5.4 1.6 9 5 10.7s7.2 1.2 11.6-1.6l85.3-57.2c2-1 3.5-2.4 4.8-4.3a11.5 11.5 0 0 0 .5-12c-.7-1.2-1.4-2.3-2.2-3.3s-1.8-1.7-3-2.4L356 90.4c-4.4-3.2-8.3-3.9-11.7-2.1s-5 5.3-5 10.7v39.5H74a9.7 9.7 0 0 0-10 10zm271.6 239v24.7H246q1.4-14 8.7-26.5 7.3-12.6 28.7-33.3 17.3-16.8 21.2-22.7 5.3-8.3 5.3-16.3 0-8.9-4.6-13.6-4.6-4.9-12.7-4.9-8 0-12.7 5t-5.5 16.7l-25.4-2.6q2.3-22 14.3-31.6t30-9.5q19.7 0 31 11t11.2 27.6q0 9.4-3.3 17.9-3.1 8.4-10.1 17.7-4.7 6.1-16.8 17.7T290 380.2q-3.2 3.8-5.2 7.4zM396 273q19.4 0 30.3 14.4 13 17 13 56.5 0 39.4-13 56.6-10.9 14.2-30.3 14.2t-31.3-15.5q-12-15.7-12-55.6 0-39.2 13.2-56.4Q376.7 273 396 273zm0 22q-4.6 0-8.2 3.2-3.7 3-5.7 11-2.6 10.3-2.6 34.7t2.4 33.6q2.3 9 5.9 12 3.6 3.1 8.2 3.1t8.3-3q3.7-3.1 5.7-11 2.6-10.3 2.6-34.7t-2.4-33.5q-2.3-9.2-6-12.2-3.5-3.2-8.2-3.2z"></path>
</symbol>
<symbol id="vjs-icon-forward30" viewBox="0 0 512 512">
<path d="M63.9 148.6v256c0 2.5 1 4.7 2.8 6.6s4.3 2.9 7.2 2.9h127.8v-39.6h-98.2V178.1h236v39.1c0 5.4 1.6 9 5 10.7s7.2 1.2 11.6-1.6l85.3-57.2c2-1 3.5-2.4 4.8-4.3a11.5 11.5 0 0 0 .5-12c-.7-1.2-1.4-2.3-2.2-3.3s-1.8-1.7-3-2.4L356 90.4c-4.4-3.2-8.3-3.9-11.7-2.1s-5 5.3-5 10.7v39.5H74a9.7 9.7 0 0 0-10 10zm184.5 226.9 24.7-3.1q1.2 9.8 6.3 15t12.6 5.2q7.9 0 13.3-6.2 5.4-6.3 5.4-16.9 0-10-5.2-15.9t-12.6-5.8q-5 0-11.7 2L284 328q10.3.3 15.8-4.7t5.5-13.2q0-7-4-11.2t-10.7-4.1q-6.5 0-11.2 4.7t-5.6 13.8l-23.5-4.2q2.4-12.5 7.3-20 5-7.6 13.8-11.9 9-4.3 20-4.3 18.8 0 30.1 12.5 9.4 10.2 9.4 23 0 18.3-19.2 29.2 11.5 2.6 18.3 11.5 6.9 8.9 6.9 21.5 0 18.2-12.8 31.1t-32 12.9q-18 0-30-10.8-11.8-10.9-13.7-28.4zM396 273q19.4 0 30.3 14.4 13 17 13 56.5 0 39.4-13 56.6-10.9 14.2-30.3 14.2t-31.3-15.5q-12-15.7-12-55.6 0-39.2 13.2-56.4Q376.7 273 396 273zm0 22q-4.6 0-8.2 3.2-3.7 3-5.7 11-2.6 10.3-2.6 34.7t2.4 33.6q2.3 9 5.9 12 3.6 3.1 8.2 3.1t8.3-3q3.7-3.1 5.7-11 2.6-10.3 2.6-34.7t-2.4-33.5q-2.3-9.2-6-12.2-3.5-3.2-8.2-3.2z"></path>
</symbol>
<symbol id="vjs-icon-rewind5" viewBox="0 0 512 512">
<path d="m111.3 375.5 28-2.8q1.2 9.1 7.1 14.5 6 5.3 13.6 5.3 8.9 0 15-6.9 6-6.9 6-20.7 0-12.9-6-19.3-6-6.5-15.8-6.5-12 0-21.7 10.2l-22.8-3.1L129 273h74.4v25.2h-53l-4.5 23.9q9.4-4.5 19.2-4.5 18.8 0 31.8 13t13 33.9q0 17.3-10.5 31-14.3 18.5-39.8 18.5-20.3 0-33.1-10.4t-15.3-28.1zM448 148.7v256c0 2.5-1 4.7-2.9 6.6s-4.3 2.8-7.1 2.8H310.3v-39h98.2V178.2h-236v39.6c0 5.4-1.6 8.9-5 10.5s-7.2 1-11.6-2l-85.3-57.1c-2.9-1.3-4.9-3.5-6-6.7s-.9-6.4.7-9.5c.7-1.3 1.5-2.4 2.4-3.4s2-1.6 2.9-1.9l85.3-57.2c4.4-2.8 8.3-3.4 11.7-1.7s5 5.4 5 10.8v39H438c2.8 0 5.2 1 7.1 3.2s2.9 4.3 2.9 6.9z"></path>
</symbol>
<symbol id="vjs-icon-rewind10" viewBox="0 0 512 512">
<path d="M242.2 298.3q-5.7-9.5-15.3-15.5t-21-6.4q-11.4.4-21 6.4t-15.2 15v.5q-6.2 10-9.8 22.2t-3.5 25 3.5 25 10.3 22.7l-.5-.5q5.7 9.5 15.3 15.5t21 6.4q11.4-.5 21-6.4t14.7-15l.5-.5q6.2-10 9.5-22.2t3.3-25-3.3-25-10-22.7l.5.5zm-36.3 96.3q-11.9 0-20.7-14.5t-8.8-34.6 8.8-34.6 20.7-14.5 20.8 14.5 8.8 34.6-8.8 34.6-20.8 14.5zm-88.6 20V310.2l-10 10-13.9-13.8 26.7-26.7q1.5-1.4 3.1-2.1t4-.8q4 0 6.8 3t2.8 6.6v128.2h-19.5zm330.8-266v256q0 3.8-2.9 6.7t-7.1 2.8H310.3v-39.5h98.2V178.2h-236v39q0 8.2-5 10.8t-11.6-1.7l-85.3-57.2q-2.9-1.4-4.8-4.3t-2-6.6q0-1.5.6-3t1-2.3q.9-1.9 2-3.3t3.2-2.4l85.3-56.7q6.7-4.8 11.7-2.2t5 10.7v39.6H438q4.3 0 7.1 2.9t3 7.1z"></path>
</symbol>
<symbol id="vjs-icon-rewind20" viewBox="0 0 512 512">
<path d="M448.1 148v256c0 2.6-1 4.9-2.8 6.8s-4.3 2.8-7.2 2.8H310.4v-39.5h98.2V177.6h-236v39.1c0 5.4-1.7 9-5 10.7s-7.3 1.2-11.7-1.6l-85.4-57.2a12.3 12.3 0 0 1-6.7-11c0-1 .2-2 .5-2.9a18.9 18.9 0 0 1 3.1-5.7c.8-1 1.9-1.7 3.1-2.4L156 90c4.4-3.2 8.3-3.9 11.7-2.2s5 5.4 5 10.8V138H438c2.9 0 5.3 1 7.2 3s2.8 4.2 2.8 7zm-287 240.1v24.7H71.4q1.4-14 8.7-26.5 7.3-12.6 28.7-33.3 17.3-16.8 21.2-22.7 5.3-8.3 5.3-16.3 0-9-4.6-13.7-4.6-4.8-12.7-4.8-8 0-12.7 5t-5.5 16.7l-25.4-2.7q2.3-22 14.3-31.5t30-9.5q19.7 0 31 11t11.2 27.6q0 9.4-3.2 17.9-3.2 8.4-10.2 17.7-4.7 6.1-16.8 17.7t-15.3 15.3q-3.2 3.8-5.2 7.4zm60.5-114.6q19.3 0 30.2 14.4 13 17 13 56.5 0 39.3-13 56.6-10.9 14.2-30.2 14.2-19.5 0-31.4-15.5-11.9-15.7-11.9-55.6 0-39.2 13-56.4 10.9-14.2 30.3-14.2zm0 22q-4.7 0-8.3 3.1-3.6 3-5.6 11-2.7 10.3-2.7 34.8t2.4 33.6q2.4 9 5.9 12 3.6 3.1 8.3 3.1t8.2-3q3.7-3.1 5.7-11 2.6-10.3 2.6-34.7t-2.4-33.5q-2.3-9.2-6-12.3-3.5-3-8.1-3z"></path>
</symbol>
<symbol id="vjs-icon-rewind30" viewBox="0 0 512 512">
<path d="M448.1 148v256c0 2.6-1 4.9-2.8 6.8s-4.3 2.8-7.2 2.8H310.4v-39.5h98.2V177.6h-236v39.1c0 5.4-1.7 9-5 10.7s-7.3 1.2-11.7-1.6l-85.4-57.2a12.3 12.3 0 0 1-6.7-11c0-1 .2-2 .5-2.9a18.9 18.9 0 0 1 3.1-5.7c.8-1 1.9-1.7 3.1-2.4L156 90c4.4-3.2 8.3-3.9 11.7-2.2s5 5.4 5 10.8V138H438c2.9 0 5.3 1 7.2 3s2.8 4.2 2.8 7zM74 376l24.7-3.1q1.2 9.8 6.3 15t12.6 5.2q7.9 0 13.3-6.2 5.4-6.3 5.4-16.9 0-10-5.2-15.9t-12.6-5.9q-5 0-11.7 2l2.8-21.6q10.3.2 15.8-4.7 5.5-5 5.5-13.2 0-7-4-11.2t-10.7-4.2q-6.5 0-11.2 4.8t-5.6 13.8l-23.5-4.2q2.4-12.6 7.3-20 5-7.6 13.8-11.9 9-4.3 20-4.3 18.8 0 30.1 12.5 9.4 10.2 9.4 23 0 18.3-19.2 29.2 11.5 2.6 18.3 11.5 6.9 8.9 6.9 21.5 0 18.2-12.8 31.1t-32 12.9q-18 0-30-10.8Q75.9 393.5 74 376zm147.7-102.5q19.3 0 30.2 14.4 13 17 13 56.5 0 39.3-13 56.6-10.9 14.2-30.2 14.2-19.5 0-31.4-15.5-11.9-15.7-11.9-55.6 0-39.2 13-56.4 10.9-14.2 30.3-14.2zm0 22q-4.7 0-8.3 3.1-3.6 3-5.6 11-2.7 10.3-2.7 34.8t2.4 33.6q2.4 9 5.9 12 3.6 3.1 8.3 3.1t8.2-3q3.7-3.1 5.7-11 2.6-10.3 2.6-34.7t-2.4-33.5q-2.3-9.2-6-12.3-3.5-3-8.1-3z"></path>
</symbol>
<symbol id="vjs-icon-playlist" viewBox="0 0 512 512">
<path d="M47.1 172.5h334.2v55.7H47.1v-55.7zm0-111.4h334.2v55.7H47.1V61zm0 222.7H270v55.7H47.1v-55.7zm278.5 0V451L465 367.4z"></path>
</symbol>
<symbol id="vjs-icon-big-play" viewBox="0 0 512 512">
<path d="M169 105v303l238-152z"></path>
</symbol>
</defs>
</svg>
